G04 Layer_Physical_Order=1*
G04 Layer_Color=255*
%FSLAX26Y26*%
%MOIN*%
%TF.FileFunction,Copper,L1,Top,Signal*%
%TF.Part,Single*%
G01*
G75*
%TA.AperFunction,SMDPad,CuDef*%
%ADD10R,0.023622X0.031496*%
%ADD11R,0.037402X0.066929*%
%ADD12R,0.047244X0.019685*%
%ADD13R,0.062992X0.019685*%
G04:AMPARAMS|DCode=14|XSize=70.866mil|YSize=118.11mil|CornerRadius=0mil|HoleSize=0mil|Usage=FLASHONLY|Rotation=270.000|XOffset=0mil|YOffset=0mil|HoleType=Round|Shape=Octagon|*
%AMOCTAGOND14*
4,1,8,0.059055,0.017716,0.059055,-0.017716,0.041339,-0.035433,-0.041339,-0.035433,-0.059055,-0.017716,-0.059055,0.017716,-0.041339,0.035433,0.041339,0.035433,0.059055,0.017716,0.0*
%
%ADD14OCTAGOND14*%

%TA.AperFunction,ConnectorPad*%
%ADD15R,0.066929X0.037402*%
%TA.AperFunction,Conductor*%
%ADD16C,0.025000*%
%ADD17C,0.023622*%
%ADD18C,0.019685*%
%TA.AperFunction,ComponentPad*%
%ADD19C,0.059055*%
%ADD20R,0.059055X0.059055*%
%ADD21C,0.062992*%
D10*
X1190000Y1219212D02*
D03*
Y1120788D02*
D03*
Y1410788D02*
D03*
Y1509212D02*
D03*
D11*
X1396850Y1125000D02*
D03*
X1503150D02*
D03*
D12*
X1491930Y1380944D02*
D03*
Y1499056D02*
D03*
D13*
X1484056Y1440000D02*
D03*
D14*
X1393504D02*
D03*
D15*
X1415000Y1726850D02*
D03*
Y1833150D02*
D03*
D16*
X1393504Y1440000D02*
X1484056D01*
X1190000Y1120788D02*
X1291000D01*
X1295212Y1125000D01*
X1396850D01*
X1415000Y1833150D02*
X1483000D01*
X1511150Y1805000D01*
X1580000D01*
X1700000Y1225000D02*
Y1332000D01*
X1715000Y1347000D01*
Y1455000D01*
X1140000Y1303000D02*
Y1459000D01*
Y1303000D02*
X1190000Y1253000D01*
X1270000Y1399000D02*
X1300000Y1369000D01*
X1270000Y1399000D02*
Y1539000D01*
X1388000Y1657000D01*
Y1726850D02*
X1415000D01*
X1554000Y1169000D02*
Y1470056D01*
X1525000Y1140000D02*
X1554000Y1169000D01*
X1503150Y1125000D02*
Y1140000D01*
X1668000Y1125000D02*
X1700000D01*
X1620000Y1173000D02*
X1668000Y1125000D01*
X1620000Y1173000D02*
Y1508000D01*
X1581000Y1547000D02*
X1620000Y1508000D01*
X1434000Y1547000D02*
X1581000D01*
X1370000Y1483000D02*
X1434000Y1547000D01*
X1370000Y1440000D02*
X1393504D01*
X1090000Y1590000D02*
X1205000Y1705000D01*
X1090000Y1222000D02*
Y1590000D01*
Y1222000D02*
X1150000Y1162000D01*
X1190000D01*
X1370000Y1440000D02*
Y1483000D01*
X1503150Y1140000D02*
X1525000D01*
X1388000Y1657000D02*
Y1726850D01*
D17*
X1190000Y1509000D02*
Y1509212D01*
X1140000Y1459000D02*
X1190000Y1509000D01*
Y1219212D02*
Y1253000D01*
Y1367000D02*
Y1410788D01*
Y1120788D02*
Y1162000D01*
D18*
Y1367000D02*
X1479000D01*
X1487000Y1380944D02*
X1491930D01*
X1300000Y1369000D02*
X1475056D01*
X1491930Y1499056D02*
X1525000D01*
X1554000Y1470056D01*
X1475056Y1369000D02*
X1479000Y1372944D01*
X1487000Y1380944D01*
X1479000Y1367000D02*
Y1372944D01*
Y1380944D01*
X1487000D01*
D19*
X1205000Y1805000D02*
D03*
X1700000Y1125000D02*
D03*
X1580000Y1705000D02*
D03*
D20*
X1205000D02*
D03*
X1700000Y1225000D02*
D03*
X1580000Y1805000D02*
D03*
D21*
X1715000Y1455000D02*
D03*
Y1555000D02*
D03*
%TF.MD5,8DCE7FF62AE8ADB486024ABA831CC470*%
M02*
