%FSTAX23Y23*%
%MOIN*%
%SFA1B1*%

%IPPOS*%
%ADD11C,0.020000*%
%ADD12C,0.059060*%
%ADD13R,0.059060X0.059060*%
%ADD14R,0.059060X0.059060*%
%ADD15C,0.050000*%
%LNpcb-1*%
%LPD*%
G54D11*
X013Y0202D02*
X0174D01*
X011Y0182D02*
X013Y0202D01*
X011Y0162D02*
Y0182D01*
Y0162D02*
X0116Y0156D01*
X0184Y0202D02*
Y0205D01*
X0187Y0208*
X02256*
X0236Y01976*
Y0172D02*
Y01976D01*
X023Y0166D02*
X0236Y0172D01*
X0116Y0176D02*
X01235Y01835D01*
X01842*
X0189Y01787*
X02Y0176D02*
X023D01*
X0174Y0202D02*
X02Y0176D01*
X0188Y011D02*
X0194Y0116D01*
X0166Y011D02*
X0188D01*
X016Y0116D02*
X0166Y011D01*
X015Y0116D02*
X0154Y012D01*
Y0122*
X0181*
Y0119D02*
Y0122D01*
Y0119D02*
X0184Y0116D01*
X0116Y0166D02*
X0146D01*
G54D12*
X0146Y0146D03*
Y0156D03*
Y0166D03*
X015Y0116D03*
X014D03*
X013D03*
X012D03*
X011D03*
X0116Y0166D03*
Y0156D03*
X0184Y0202D03*
X0174D03*
X023Y0166D03*
Y0176D03*
X0184Y0116D03*
X0194D03*
G54D13*
X0146Y0176D03*
X0116D03*
X023Y0156D03*
G54D14*
X016Y0116D03*
X0194Y0202D03*
X0174Y0116D03*
G54D15*
X0189Y01787D03*
M02*