G04 Layer_Color=0*
%FSLAX26Y26*%
%MOIN*%
%TF.FileFunction,Plated,1,2,PTH,Drill*%
%TF.Part,Single*%
G01*
G75*
%TA.AperFunction,ComponentDrill*%
%ADD24C,0.043307*%
%ADD25C,0.035433*%
%ADD26C,0.035433*%
%TA.AperFunction,ViaDrill,NotFilled*%
%ADD27C,0.028000*%
D24*
X5660000Y4855000D02*
D03*
Y5055000D02*
D03*
D25*
X6220000Y3640000D02*
D03*
X6120000D02*
D03*
X6020000D02*
D03*
X5885000Y8300000D02*
D03*
X5985000D02*
D03*
X6085000D02*
D03*
X6185000D02*
D03*
X5665000Y7485000D02*
D03*
X6205000Y5540000D02*
D03*
X6105000D02*
D03*
X6005000D02*
D03*
X5905000D02*
D03*
X5805000D02*
D03*
X5840000Y5240000D02*
D03*
Y5140000D02*
D03*
Y5040000D02*
D03*
Y4940000D02*
D03*
Y4840000D02*
D03*
Y4740000D02*
D03*
Y4640000D02*
D03*
Y4540000D02*
D03*
Y4440000D02*
D03*
Y4340000D02*
D03*
Y4240000D02*
D03*
Y4140000D02*
D03*
Y4040000D02*
D03*
Y3940000D02*
D03*
X6140000Y5240000D02*
D03*
Y5140000D02*
D03*
Y5040000D02*
D03*
Y4940000D02*
D03*
Y4840000D02*
D03*
Y4740000D02*
D03*
Y4640000D02*
D03*
Y4540000D02*
D03*
Y4440000D02*
D03*
Y4340000D02*
D03*
Y4240000D02*
D03*
Y4140000D02*
D03*
Y4040000D02*
D03*
Y3940000D02*
D03*
D26*
X5640000Y8260000D02*
D03*
X6380000Y7115000D02*
D03*
Y7215000D02*
D03*
X5645000Y7015000D02*
D03*
Y7115000D02*
D03*
X6340000Y7675000D02*
D03*
X6345000Y7840000D02*
D03*
X5630000Y5800236D02*
D03*
Y6079764D02*
D03*
X6325000Y8180000D02*
D03*
X5640000Y8125000D02*
D03*
X6325000Y8030000D02*
D03*
X6330000Y3950000D02*
D03*
Y4100000D02*
D03*
X6320000Y4240000D02*
D03*
X6340000Y4400000D02*
D03*
X5735000Y6700000D02*
D03*
Y6600000D02*
D03*
Y6500000D02*
D03*
Y6400000D02*
D03*
Y6300000D02*
D03*
Y6200000D02*
D03*
X5680000Y3650000D02*
D03*
Y3750000D02*
D03*
D27*
X5755000Y4240000D02*
D03*
X5971000Y5336000D02*
D03*
X6224000Y5225000D02*
D03*
X6334844Y4675000D02*
D03*
X6112000Y5335000D02*
D03*
X6167868Y6029000D02*
D03*
X6150000Y7855000D02*
D03*
X6270000Y4756000D02*
D03*
Y5116000D02*
D03*
X5985000Y6818000D02*
D03*
X5885000Y6664000D02*
D03*
X5671000Y5380000D02*
D03*
X5737000Y5246000D02*
D03*
Y5458000D02*
D03*
X5780000Y7180000D02*
D03*
%TF.MD5,AAA479AC301956DA9F5E310F9612CDD1*%
M02*
