G04 Layer_Physical_Order=2*
G04 Layer_Color=16711680*
%FSLAX26Y26*%
%MOIN*%
%TF.FileFunction,Copper,L2,Bot,Signal*%
%TF.Part,Single*%
G01*
G75*
%TA.AperFunction,Conductor*%
%ADD16C,0.019685*%
%TA.AperFunction,ComponentPad*%
%ADD17R,0.072835X0.072835*%
%ADD18C,0.072835*%
%ADD19R,0.059055X0.059055*%
%ADD20C,0.059055*%
%ADD21R,0.059055X0.059055*%
%TA.AperFunction,ViaPad*%
%ADD22C,0.050000*%
D16*
X6140000Y3940000D02*
X6230000D01*
X6240000Y3950000D01*
X6330000D01*
X5680000Y3750000D02*
X6010000D01*
X6120000Y3640000D01*
X5910000Y8125000D02*
X6085000Y8300000D01*
X5640000Y8125000D02*
X5910000D01*
X6185000Y8245000D02*
Y8300000D01*
Y8245000D02*
X6250000Y8180000D01*
X6325000D01*
X5770000Y4470000D02*
X5840000Y4540000D01*
X5770000Y4255000D02*
Y4470000D01*
X5755000Y4240000D02*
X5770000Y4255000D01*
X5695000Y6600000D02*
X5735000D01*
X5645000Y6650000D02*
X5695000Y6600000D01*
X5645000Y6650000D02*
Y7015000D01*
X5694000Y7675000D02*
X6340000D01*
X5595000Y7576000D02*
X5694000Y7675000D01*
X5595000Y7165000D02*
Y7576000D01*
Y7165000D02*
X5645000Y7115000D01*
X5700000D01*
X5735000Y7080000D01*
Y6700000D02*
Y7080000D01*
X5971000Y5406000D02*
X6105000Y5540000D01*
X5971000Y5336000D02*
Y5406000D01*
X6270000Y4040000D02*
X6330000Y4100000D01*
X6140000Y4040000D02*
X6270000D01*
X6140000Y4440000D02*
X6214686D01*
X6399686Y4625000D01*
Y6281314D01*
X6219000Y6462000D02*
X6399686Y6281314D01*
X6219000Y6462000D02*
Y7554000D01*
X6340000Y7675000D01*
X6224000Y5225000D02*
X6259844D01*
X6334844Y5150000D01*
Y4675000D02*
Y5150000D01*
X6280000Y4340000D02*
X6340000Y4400000D01*
X6140000Y4340000D02*
X6280000D01*
X6112000Y5335000D02*
X6309592D01*
X6325000Y5350408D01*
Y5871868D01*
X6167868Y6029000D02*
X6325000Y5871868D01*
X5680000Y3650000D02*
X5860000Y3640000D01*
X6020000D01*
X6140000Y4140000D02*
X6240000Y4240000D01*
X6320000D01*
X6150000Y7855000D02*
X6325000Y8030000D01*
X6270000Y4756000D02*
Y5116000D01*
X5985000Y6818000D02*
X6000560Y6802440D01*
Y5644440D02*
Y6802440D01*
Y5644440D02*
X6105000Y5540000D01*
X5885000Y5660000D02*
Y6664000D01*
Y5660000D02*
X6005000Y5540000D01*
X5665000Y6230000D02*
X5735000Y6300000D01*
X5665000Y6142868D02*
Y6230000D01*
Y6142868D02*
X5699370Y6108498D01*
Y5746398D02*
Y6108498D01*
X5606000Y5653028D02*
X5699370Y5746398D01*
X5606000Y5350000D02*
Y5653028D01*
Y5350000D02*
X5641000Y5315000D01*
X5905000D01*
X5910000Y5310000D01*
Y4910000D02*
Y5310000D01*
X5840000Y4840000D02*
X5910000Y4910000D01*
X5735000Y6200000D02*
X5754000Y6181000D01*
Y5701000D02*
Y6181000D01*
X5671000Y5618000D02*
X5754000Y5701000D01*
X5671000Y5380000D02*
Y5618000D01*
X5737000Y5143000D02*
X5840000Y5040000D01*
X5737000Y5143000D02*
Y5246000D01*
X5721000Y5474000D02*
X5737000Y5458000D01*
X5721000Y5474000D02*
Y5597000D01*
X5810000Y5686000D01*
Y7150000D01*
X5780000Y7180000D02*
X5810000Y7150000D01*
X5840000Y4740000D02*
X6042244Y4942244D01*
Y5370244D01*
X6122000Y5450000D01*
X6225000D01*
X6275000Y5500000D01*
Y5786000D01*
X6066314Y5994686D02*
X6275000Y5786000D01*
X6066314Y5994686D02*
Y7083686D01*
X5665000Y7485000D02*
X6066314Y7083686D01*
D17*
X5660000Y4855000D02*
D03*
D18*
Y5055000D02*
D03*
D19*
X6220000Y3640000D02*
D03*
X6185000Y8300000D02*
D03*
X5665000Y7485000D02*
D03*
X5805000Y5540000D02*
D03*
X5840000Y5240000D02*
D03*
D20*
X6120000Y3640000D02*
D03*
X6020000D02*
D03*
X5885000Y8300000D02*
D03*
X5985000D02*
D03*
X6085000D02*
D03*
X6380000Y7215000D02*
D03*
X5645000Y7115000D02*
D03*
X5630000Y6079764D02*
D03*
X6205000Y5540000D02*
D03*
X6105000D02*
D03*
X6005000D02*
D03*
X5905000D02*
D03*
X5840000Y5140000D02*
D03*
Y5040000D02*
D03*
Y4940000D02*
D03*
Y4840000D02*
D03*
Y4740000D02*
D03*
Y4640000D02*
D03*
Y4540000D02*
D03*
Y4440000D02*
D03*
Y4340000D02*
D03*
Y4240000D02*
D03*
Y4140000D02*
D03*
Y4040000D02*
D03*
Y3940000D02*
D03*
X6140000Y5240000D02*
D03*
Y5140000D02*
D03*
Y5040000D02*
D03*
Y4940000D02*
D03*
Y4840000D02*
D03*
Y4740000D02*
D03*
Y4640000D02*
D03*
Y4540000D02*
D03*
Y4440000D02*
D03*
Y4340000D02*
D03*
Y4240000D02*
D03*
Y4140000D02*
D03*
Y4040000D02*
D03*
Y3940000D02*
D03*
X5735000Y6600000D02*
D03*
Y6500000D02*
D03*
Y6400000D02*
D03*
Y6300000D02*
D03*
Y6200000D02*
D03*
X5680000Y3750000D02*
D03*
D21*
X5640000Y8260000D02*
D03*
X6380000Y7115000D02*
D03*
X5645000Y7015000D02*
D03*
X6340000Y7675000D02*
D03*
X6345000Y7840000D02*
D03*
X5630000Y5800236D02*
D03*
X6325000Y8180000D02*
D03*
X5640000Y8125000D02*
D03*
X6325000Y8030000D02*
D03*
X6330000Y3950000D02*
D03*
Y4100000D02*
D03*
X6320000Y4240000D02*
D03*
X6340000Y4400000D02*
D03*
X5735000Y6700000D02*
D03*
X5680000Y3650000D02*
D03*
D22*
X5755000Y4240000D02*
D03*
X5971000Y5336000D02*
D03*
X6224000Y5225000D02*
D03*
X6334844Y4675000D02*
D03*
X6112000Y5335000D02*
D03*
X6167868Y6029000D02*
D03*
X6150000Y7855000D02*
D03*
X6270000Y4756000D02*
D03*
Y5116000D02*
D03*
X5985000Y6818000D02*
D03*
X5885000Y6664000D02*
D03*
X5671000Y5380000D02*
D03*
X5737000Y5246000D02*
D03*
Y5458000D02*
D03*
X5780000Y7180000D02*
D03*
%TF.MD5,FC1D0444EB9EF5DD07A971BA3AD191A1*%
M02*
