G04 Layer_Color=8421504*
%FSLAX26Y26*%
%MOIN*%
%TF.FileFunction,Paste,Top*%
%TF.Part,Single*%
G01*
G75*
%TA.AperFunction,SMDPad,CuDef*%
%ADD10R,0.045276X0.070866*%
%ADD11R,0.027559X0.062992*%
%ADD12R,0.031496X0.055118*%
%ADD13R,0.030000X0.045000*%
%ADD14R,0.045000X0.030000*%
%ADD15R,0.070866X0.045276*%
%ADD16R,0.053150X0.037402*%
%ADD17O,0.098425X0.027559*%
G36*
X2347402Y562835D02*
Y472284D01*
X2325748Y450630D01*
X2294252D01*
X2272598Y472284D01*
Y562835D01*
X2294252Y584488D01*
X2325748D01*
X2347402Y562835D01*
D02*
G37*
D10*
X1762914Y3185000D02*
D03*
X1877086D02*
D03*
D11*
X2250944Y427008D02*
D03*
X2369056D02*
D03*
D12*
X2310000Y423070D02*
D03*
D13*
X2070000Y616260D02*
D03*
Y523740D02*
D03*
D14*
X2266260Y785000D02*
D03*
X2173740D02*
D03*
D15*
X2520000Y627914D02*
D03*
Y742086D02*
D03*
X1920000Y842086D02*
D03*
Y727914D02*
D03*
D16*
X1420000Y2316496D02*
D03*
Y2253504D02*
D03*
D17*
X4416456Y335000D02*
D03*
Y385000D02*
D03*
Y435000D02*
D03*
Y485000D02*
D03*
Y535000D02*
D03*
Y585000D02*
D03*
Y635000D02*
D03*
X4223544Y335000D02*
D03*
Y385000D02*
D03*
Y435000D02*
D03*
Y485000D02*
D03*
Y535000D02*
D03*
Y585000D02*
D03*
Y635000D02*
D03*
%TF.MD5,8BB9ED7BBE701CED2ACCEBDA177E0501*%
M02*
