G04 Layer_Physical_Order=2*
G04 Layer_Color=16711680*
%FSLAX26Y26*%
%MOIN*%
%TF.FileFunction,Copper,L2,Bot,Signal*%
%TF.Part,Single*%
G01*
G75*
%TA.AperFunction,Conductor*%
%ADD18C,0.020000*%
%TA.AperFunction,ComponentPad*%
%ADD20R,0.059055X0.059055*%
%ADD21C,0.059055*%
%ADD22C,0.055118*%
%ADD23R,0.072835X0.072835*%
%ADD24C,0.072835*%
%ADD25R,0.059055X0.059055*%
%ADD26P,0.083516X4X345.0*%
%ADD27P,0.083516X4X285.0*%
%ADD28R,0.072835X0.072835*%
%TA.AperFunction,ViaPad*%
%ADD29C,0.050000*%
D18*
X550000Y1380000D02*
X1100000D01*
X260000Y1670000D02*
X550000Y1380000D01*
X690000Y1750000D02*
X750000Y1690000D01*
X230000Y1750000D02*
X690000D01*
X200000Y1720000D02*
X230000Y1750000D01*
X200000Y1330000D02*
Y1720000D01*
Y1330000D02*
X250000Y1280000D01*
X3765000Y2040000D02*
X4570000D01*
X3720000Y1995000D02*
X3765000Y2040000D01*
X615000Y2505000D02*
X710000Y2410000D01*
X160000Y2505000D02*
X615000D01*
X3860000Y1545000D02*
X3920000Y1485000D01*
X2835000Y1545000D02*
X3860000D01*
X2520000Y1230000D02*
X2835000Y1545000D01*
X1163000Y3853000D02*
X2000000Y4690000D01*
X757000Y3853000D02*
X1163000D01*
X690000Y3920000D02*
X757000Y3853000D01*
X1769000Y1981000D02*
X2520000Y1230000D01*
X491000Y1981000D02*
X1769000D01*
X420000Y1910000D02*
X491000Y1981000D01*
X4570000Y2140000D02*
X4630000Y2080000D01*
Y1960000D02*
Y2080000D01*
X4465000Y1795000D02*
X4630000Y1960000D01*
X3720000Y1795000D02*
X4465000D01*
X4420000Y885000D02*
X4529000Y776000D01*
Y532000D02*
Y776000D01*
X3920000Y1085000D02*
X4120000D01*
X4320000Y885000D01*
X3820000Y485000D02*
X3920000D01*
X4320000Y885000D01*
Y85000D02*
X4720000Y485000D01*
X3920000Y885000D02*
X4220000D01*
X3720000Y1085000D02*
X3920000Y885000D01*
X4065000Y320000D02*
X4130000Y385000D01*
X3794000Y320000D02*
X4065000D01*
X3520000Y594000D02*
X3794000Y320000D01*
X3520000Y594000D02*
Y1085000D01*
X2250000Y80000D02*
X2340000D01*
X2140000Y190000D02*
X2250000Y80000D01*
X2426602Y93398D02*
X2570000D01*
X2340000Y180000D02*
X2426602Y93398D01*
X2750000Y4830000D02*
X2850000Y4730000D01*
X2170000Y4830000D02*
X2750000D01*
X2230000Y4630000D02*
X2850000D01*
X2170000Y4690000D02*
X2230000Y4630000D01*
X2720000Y1230000D02*
X3465000D01*
X3720000Y1485000D01*
X3000000Y2210000D02*
X3150000D01*
X3160000Y2220000D01*
X3310000D01*
X1090000Y3920000D02*
X2000000Y4830000D01*
X850000Y3920000D02*
X1090000D01*
X350000Y3930000D02*
X965000Y3315000D01*
Y2329000D02*
Y3315000D01*
Y2329000D02*
X1065000Y2229000D01*
X1764000D01*
X2270000Y2735000D01*
X2359000Y2524000D02*
X2570000Y2735000D01*
X2359000Y1820000D02*
Y2524000D01*
X2305000Y1766000D02*
X2359000Y1820000D01*
X2161000Y1766000D02*
X2305000D01*
X1890000Y2037000D02*
X2161000Y1766000D01*
X415000Y2037000D02*
X1890000D01*
X360000Y1982000D02*
X415000Y2037000D01*
X360000Y1853000D02*
Y1982000D01*
Y1853000D02*
X390000Y1823000D01*
X503000D01*
X590000Y1910000D01*
X2570000Y2635000D02*
X2880000Y2325000D01*
X3351000D01*
X3623000Y2053000D01*
Y1770000D02*
Y2053000D01*
Y1770000D02*
X3725000Y1668000D01*
X3961000D01*
X3980000Y1649000D01*
Y1327000D02*
Y1649000D01*
X3823000Y1170000D02*
X3980000Y1327000D01*
X1490000Y1170000D02*
X3823000D01*
X750000Y1910000D02*
X1490000Y1170000D01*
X2615000Y1990000D02*
X3320000D01*
X2570000Y2035000D02*
X2615000Y1990000D01*
X2130000Y3750000D02*
X3640000D01*
X2060000Y3820000D02*
X2130000Y3750000D01*
X2715000Y1790000D02*
X3320000D01*
X2570000Y1935000D02*
X2715000Y1790000D01*
X4515000Y2395000D02*
X4570000Y2340000D01*
X3720000Y2395000D02*
X4515000D01*
X1230000Y3380000D02*
X2490000D01*
X1120000Y3270000D02*
X1230000Y3380000D01*
X1120000Y3083000D02*
Y3270000D01*
Y3083000D02*
X1318000Y2885000D01*
X2020000D01*
X4630000Y4820000D02*
X4710000Y4740000D01*
X4590000Y4820000D02*
X4630000D01*
X4510000Y4740000D02*
X4590000Y4820000D01*
X3990000Y3750000D02*
X4670000Y3070000D01*
X3860000Y3750000D02*
X3990000D01*
X1735000Y2400000D02*
X2020000Y2685000D01*
X1060000Y2400000D02*
X1735000D01*
X4055000Y2195000D02*
X4080000Y2220000D01*
X3720000Y2195000D02*
X4055000D01*
X4400000Y2240000D02*
X4570000D01*
X4380000Y2220000D02*
X4400000Y2240000D01*
X2645000Y2210000D02*
X2800000D01*
X2570000Y2135000D02*
X2645000Y2210000D01*
X250000Y80000D02*
X1100000D01*
X2520000Y3310000D02*
X2590000Y3380000D01*
X1305236Y3310000D02*
X2520000D01*
X1180236Y3185000D02*
X1305236Y3310000D01*
X4720000Y485000D02*
X4820000D01*
X4320000Y630000D02*
X4465000Y485000D01*
X4320000Y630000D02*
Y885000D01*
X2510000Y4530000D02*
X2850000D01*
X2490000Y4550000D02*
X2510000Y4530000D01*
X2170000Y4550000D02*
X2490000D01*
X2510000Y4430000D02*
X2850000D01*
X2490000Y4410000D02*
X2510000Y4430000D01*
X2170000Y4410000D02*
X2490000D01*
X2762000Y4908000D02*
X3640000Y4030000D01*
X2078000Y4908000D02*
X2762000D01*
X2000000Y4830000D02*
X2078000Y4908000D01*
X435000Y2590000D02*
X710000D01*
X420000Y2605000D02*
X435000Y2590000D01*
X160000Y2605000D02*
X420000D01*
X180000Y3920000D02*
X850000Y3250000D01*
Y2255000D02*
Y3250000D01*
Y2255000D02*
X965000Y2140000D01*
X1875000D01*
X2270000Y2535000D01*
X2790000Y3380000D02*
X2868000Y3302000D01*
Y2783000D02*
Y3302000D01*
X2840000Y2755000D02*
X2868000Y2783000D01*
X2768000Y2755000D02*
X2840000D01*
X2669528Y2853472D02*
X2768000Y2755000D01*
X2669528Y2853472D02*
Y3035472D01*
X2570000Y3135000D02*
X2669528Y3035472D01*
X2385000Y3120000D02*
X2570000Y2935000D01*
X2890000Y3380000D02*
X2908000Y3317000D01*
Y2770000D02*
Y3317000D01*
X2858000Y2720000D02*
X2908000Y2770000D01*
X2679528Y2720000D02*
X2858000D01*
X2629528Y2770000D02*
X2679528Y2720000D01*
X2629528Y2770000D02*
Y2975472D01*
X2570000Y3035000D02*
X2629528Y2975472D01*
X2609056Y3195000D02*
X2810000Y2994056D01*
X2395000Y3195000D02*
X2609056D01*
X2320000Y3120000D02*
X2395000Y3195000D01*
X2320000Y2485000D02*
Y3120000D01*
X2270000Y2435000D02*
X2320000Y2485000D01*
X420000Y1680000D02*
X513000Y1587000D01*
X1013000D01*
X1160000Y1440000D01*
Y1340000D02*
Y1440000D01*
X1100000Y1280000D02*
X1160000Y1340000D01*
X2810000Y2830000D02*
Y2994056D01*
X2196000Y3170000D02*
X2221000Y3195000D01*
X2196000Y2861000D02*
Y3170000D01*
X2020000Y2685000D02*
X2196000Y2861000D01*
X4465000Y485000D02*
X4720000D01*
X2221000Y3195000D02*
X2395000D01*
D20*
X1100000Y80000D02*
D03*
Y380000D02*
D03*
X250000Y80000D02*
D03*
X1100000Y1380000D02*
D03*
X690000Y3010000D02*
D03*
X250000Y1180000D02*
D03*
X2320000Y1230000D02*
D03*
X3860000Y3750000D02*
D03*
Y4030000D02*
D03*
X3640000D02*
D03*
X3860000Y3890000D02*
D03*
X3640000Y3750000D02*
D03*
X2850000Y4730000D02*
D03*
X2170000Y4550000D02*
D03*
Y4830000D02*
D03*
Y4410000D02*
D03*
Y4690000D02*
D03*
X2000000Y4830000D02*
D03*
X260000Y1670000D02*
D03*
X420000Y1680000D02*
D03*
Y1910000D02*
D03*
X260000D02*
D03*
X2000000Y4690000D02*
D03*
Y4410000D02*
D03*
Y4550000D02*
D03*
X180000Y3920000D02*
D03*
X520000D02*
D03*
X850000D02*
D03*
X690000D02*
D03*
X350000Y3930000D02*
D03*
X750000Y1690000D02*
D03*
X590000D02*
D03*
X750000Y1910000D02*
D03*
X590000D02*
D03*
X530000Y4180000D02*
D03*
X695000Y4185000D02*
D03*
X860000Y4180000D02*
D03*
X2340000Y180000D02*
D03*
X4570000Y2340000D02*
D03*
X2720000Y1230000D02*
D03*
X3520000Y1485000D02*
D03*
X1040000Y2590000D02*
D03*
X1060000Y2400000D02*
D03*
X710000Y2590000D02*
D03*
X160000Y2605000D02*
D03*
X3920000Y1485000D02*
D03*
X710000Y2410000D02*
D03*
X3720000Y1485000D02*
D03*
X2520000Y1230000D02*
D03*
X3520000Y1085000D02*
D03*
X2320000Y985000D02*
D03*
X2720000D02*
D03*
X2520000D02*
D03*
X3640000Y3890000D02*
D03*
X160000Y3005000D02*
D03*
X3310000Y2220000D02*
D03*
X3320000Y2390000D02*
D03*
Y1790000D02*
D03*
Y1990000D02*
D03*
X4820000Y385000D02*
D03*
X3820000Y585000D02*
D03*
D21*
X1100000Y1280000D02*
D03*
X250000D02*
D03*
X4610000Y4740000D02*
D03*
X4510000D02*
D03*
X4580000Y4460000D02*
D03*
X4680000D02*
D03*
X4570000Y4150000D02*
D03*
X4470000D02*
D03*
X4570000Y3790000D02*
D03*
X4670000D02*
D03*
X4570000Y3390000D02*
D03*
X4470000D02*
D03*
X4570000Y3070000D02*
D03*
X4670000D02*
D03*
X2850000Y4430000D02*
D03*
Y4530000D02*
D03*
Y4630000D02*
D03*
X2270000Y3035000D02*
D03*
Y2935000D02*
D03*
Y2835000D02*
D03*
Y2735000D02*
D03*
Y2635000D02*
D03*
Y2535000D02*
D03*
Y2435000D02*
D03*
Y2335000D02*
D03*
Y2235000D02*
D03*
Y2135000D02*
D03*
Y2035000D02*
D03*
Y1935000D02*
D03*
Y1835000D02*
D03*
X2570000Y3135000D02*
D03*
Y3035000D02*
D03*
Y2935000D02*
D03*
Y2835000D02*
D03*
Y2735000D02*
D03*
Y2635000D02*
D03*
Y2535000D02*
D03*
Y2435000D02*
D03*
Y2335000D02*
D03*
Y2235000D02*
D03*
Y2135000D02*
D03*
Y2035000D02*
D03*
Y1935000D02*
D03*
Y1835000D02*
D03*
Y93398D02*
D03*
X2340000Y80000D02*
D03*
X2090000Y103398D02*
D03*
X4570000Y2040000D02*
D03*
Y2140000D02*
D03*
Y2240000D02*
D03*
X160000Y2505000D02*
D03*
Y2405000D02*
D03*
X640000Y4790000D02*
D03*
X540000D02*
D03*
X440000D02*
D03*
X340000D02*
D03*
X240000D02*
D03*
X160000Y3105000D02*
D03*
X2890000Y3380000D02*
D03*
X2790000D02*
D03*
X2690000D02*
D03*
X2590000D02*
D03*
X1180236Y3185000D02*
D03*
X4320000Y885000D02*
D03*
X4220000D02*
D03*
X4820000Y485000D02*
D03*
Y585000D02*
D03*
X4320000Y85000D02*
D03*
X4420000D02*
D03*
X3820000Y485000D02*
D03*
Y385000D02*
D03*
D22*
X2060000Y3820000D02*
D03*
X2360000D02*
D03*
X4080000Y2220000D02*
D03*
X4380000D02*
D03*
X2810000Y2830000D02*
D03*
Y2530000D02*
D03*
D23*
X2800000Y2210000D02*
D03*
D24*
X3000000D02*
D03*
X2020000Y2685000D02*
D03*
D25*
X4710000Y4740000D02*
D03*
X4480000Y4460000D02*
D03*
X4670000Y4150000D02*
D03*
X4470000Y3790000D02*
D03*
X4670000Y3390000D02*
D03*
X4470000Y3070000D02*
D03*
X2270000Y3135000D02*
D03*
X190000Y4180000D02*
D03*
X360000D02*
D03*
X3720000Y2395000D02*
D03*
Y1795000D02*
D03*
Y1995000D02*
D03*
Y2195000D02*
D03*
X3920000Y1085000D02*
D03*
X3720000D02*
D03*
X740000Y4790000D02*
D03*
X2490000Y3380000D02*
D03*
X1459764Y3185000D02*
D03*
X4420000Y885000D02*
D03*
X4220000Y85000D02*
D03*
D26*
X2520000Y180000D02*
D03*
D27*
X2140000Y190000D02*
D03*
D28*
X2020000Y2885000D02*
D03*
D29*
X4529000Y532000D02*
D03*
X4130000Y385000D02*
D03*
X2385000Y3120000D02*
D03*
%TF.MD5,15F7E53FCF6ACAF72959165A3E0A29AC*%
M02*
