G04 Layer_Color=255*
%FSLAX26Y26*%
%MOIN*%
%TF.FileFunction,Pads,Bot*%
%TF.Part,Single*%
G01*
G75*
%TA.AperFunction,ComponentPad*%
%ADD20R,0.059055X0.059055*%
%ADD21C,0.059055*%
%ADD22C,0.055118*%
%ADD23R,0.072835X0.072835*%
%ADD24C,0.072835*%
%ADD25R,0.059055X0.059055*%
%ADD26P,0.083516X4X345.0*%
%ADD27P,0.083516X4X285.0*%
%ADD28R,0.072835X0.072835*%
D20*
X1100000Y80000D02*
D03*
Y380000D02*
D03*
X250000Y80000D02*
D03*
X1100000Y1380000D02*
D03*
X690000Y3010000D02*
D03*
X250000Y1180000D02*
D03*
X2320000Y1230000D02*
D03*
X3860000Y3750000D02*
D03*
Y4030000D02*
D03*
X3640000D02*
D03*
X3860000Y3890000D02*
D03*
X3640000Y3750000D02*
D03*
X2850000Y4730000D02*
D03*
X2170000Y4550000D02*
D03*
Y4830000D02*
D03*
Y4410000D02*
D03*
Y4690000D02*
D03*
X2000000Y4830000D02*
D03*
X260000Y1670000D02*
D03*
X420000Y1680000D02*
D03*
Y1910000D02*
D03*
X260000D02*
D03*
X2000000Y4690000D02*
D03*
Y4410000D02*
D03*
Y4550000D02*
D03*
X180000Y3920000D02*
D03*
X520000D02*
D03*
X850000D02*
D03*
X690000D02*
D03*
X350000Y3930000D02*
D03*
X750000Y1690000D02*
D03*
X590000D02*
D03*
X750000Y1910000D02*
D03*
X590000D02*
D03*
X530000Y4180000D02*
D03*
X695000Y4185000D02*
D03*
X860000Y4180000D02*
D03*
X2340000Y180000D02*
D03*
X4570000Y2340000D02*
D03*
X2720000Y1230000D02*
D03*
X3520000Y1485000D02*
D03*
X1040000Y2590000D02*
D03*
X1060000Y2400000D02*
D03*
X710000Y2590000D02*
D03*
X160000Y2605000D02*
D03*
X3920000Y1485000D02*
D03*
X710000Y2410000D02*
D03*
X3720000Y1485000D02*
D03*
X2520000Y1230000D02*
D03*
X3520000Y1085000D02*
D03*
X2320000Y985000D02*
D03*
X2720000D02*
D03*
X2520000D02*
D03*
X3640000Y3890000D02*
D03*
X160000Y3005000D02*
D03*
X3310000Y2220000D02*
D03*
X3320000Y2390000D02*
D03*
Y1790000D02*
D03*
Y1990000D02*
D03*
X4820000Y385000D02*
D03*
X3820000Y585000D02*
D03*
D21*
X1100000Y1280000D02*
D03*
X250000D02*
D03*
X4610000Y4740000D02*
D03*
X4510000D02*
D03*
X4580000Y4460000D02*
D03*
X4680000D02*
D03*
X4570000Y4150000D02*
D03*
X4470000D02*
D03*
X4570000Y3790000D02*
D03*
X4670000D02*
D03*
X4570000Y3390000D02*
D03*
X4470000D02*
D03*
X4570000Y3070000D02*
D03*
X4670000D02*
D03*
X2850000Y4430000D02*
D03*
Y4530000D02*
D03*
Y4630000D02*
D03*
X2270000Y3035000D02*
D03*
Y2935000D02*
D03*
Y2835000D02*
D03*
Y2735000D02*
D03*
Y2635000D02*
D03*
Y2535000D02*
D03*
Y2435000D02*
D03*
Y2335000D02*
D03*
Y2235000D02*
D03*
Y2135000D02*
D03*
Y2035000D02*
D03*
Y1935000D02*
D03*
Y1835000D02*
D03*
X2570000Y3135000D02*
D03*
Y3035000D02*
D03*
Y2935000D02*
D03*
Y2835000D02*
D03*
Y2735000D02*
D03*
Y2635000D02*
D03*
Y2535000D02*
D03*
Y2435000D02*
D03*
Y2335000D02*
D03*
Y2235000D02*
D03*
Y2135000D02*
D03*
Y2035000D02*
D03*
Y1935000D02*
D03*
Y1835000D02*
D03*
Y93398D02*
D03*
X2340000Y80000D02*
D03*
X2090000Y103398D02*
D03*
X4570000Y2040000D02*
D03*
Y2140000D02*
D03*
Y2240000D02*
D03*
X160000Y2505000D02*
D03*
Y2405000D02*
D03*
X640000Y4790000D02*
D03*
X540000D02*
D03*
X440000D02*
D03*
X340000D02*
D03*
X240000D02*
D03*
X160000Y3105000D02*
D03*
X2890000Y3380000D02*
D03*
X2790000D02*
D03*
X2690000D02*
D03*
X2590000D02*
D03*
X1180236Y3185000D02*
D03*
X4320000Y885000D02*
D03*
X4220000D02*
D03*
X4820000Y485000D02*
D03*
Y585000D02*
D03*
X4320000Y85000D02*
D03*
X4420000D02*
D03*
X3820000Y485000D02*
D03*
Y385000D02*
D03*
D22*
X2060000Y3820000D02*
D03*
X2360000D02*
D03*
X4080000Y2220000D02*
D03*
X4380000D02*
D03*
X2810000Y2830000D02*
D03*
Y2530000D02*
D03*
D23*
X2800000Y2210000D02*
D03*
D24*
X3000000D02*
D03*
X2020000Y2685000D02*
D03*
D25*
X4710000Y4740000D02*
D03*
X4480000Y4460000D02*
D03*
X4670000Y4150000D02*
D03*
X4470000Y3790000D02*
D03*
X4670000Y3390000D02*
D03*
X4470000Y3070000D02*
D03*
X2270000Y3135000D02*
D03*
X190000Y4180000D02*
D03*
X360000D02*
D03*
X3720000Y2395000D02*
D03*
Y1795000D02*
D03*
Y1995000D02*
D03*
Y2195000D02*
D03*
X3920000Y1085000D02*
D03*
X3720000D02*
D03*
X740000Y4790000D02*
D03*
X2490000Y3380000D02*
D03*
X1459764Y3185000D02*
D03*
X4420000Y885000D02*
D03*
X4220000Y85000D02*
D03*
D26*
X2520000Y180000D02*
D03*
D27*
X2140000Y190000D02*
D03*
D28*
X2020000Y2885000D02*
D03*
%TF.MD5,02E471CA89D60A73DC561795EEBB5883*%
M02*
