G04 Layer_Physical_Order=2*
G04 Layer_Color=16711680*
%FSLAX26Y26*%
%MOIN*%
%TF.FileFunction,Copper,L2,Bot,Signal*%
%TF.Part,Single*%
G01*
G75*
%TA.AperFunction,Conductor*%
%ADD16C,0.019685*%
%TA.AperFunction,ComponentPad*%
%ADD17R,0.072835X0.072835*%
%ADD18C,0.072835*%
%ADD19R,0.059055X0.059055*%
%ADD20C,0.059055*%
%ADD21R,0.059055X0.059055*%
%TA.AperFunction,ViaPad*%
%ADD22C,0.050000*%
D16*
X6140000Y3940000D02*
X6230000D01*
X6240000Y3950000D01*
X6330000D01*
X5680000Y3750000D02*
X6010000D01*
X6120000Y3640000D01*
X5930000Y7680000D02*
X6105000Y7855000D01*
X5660000Y7680000D02*
X5930000D01*
X5840000Y4640000D02*
X5940000Y4740000D01*
Y5340630D01*
X5800000Y5480630D02*
X5940000Y5340630D01*
X5745000Y5480630D02*
X5800000D01*
X5745000D02*
Y5637752D01*
X5768742Y5661494D01*
Y6068258D01*
X5735000Y6102000D02*
X5768742Y6068258D01*
X5735000Y6102000D02*
Y6200000D01*
X5840000Y4740000D02*
X5900000Y4800000D01*
Y5300000D01*
X5767574Y5432426D02*
X5900000Y5300000D01*
X5725000Y5432426D02*
X5767574D01*
X5690000Y5467426D02*
X5725000Y5432426D01*
X5690000Y5467426D02*
Y5662124D01*
X5729056Y5701180D01*
Y5899292D01*
X5690000Y5938348D02*
X5729056Y5899292D01*
X5690000Y5938348D02*
Y6140000D01*
X5675000Y6155000D02*
X5690000Y6140000D01*
X5675000Y6155000D02*
Y6752000D01*
X5685000Y6762000D01*
Y7040000D01*
X5726000Y5240000D02*
X5840000D01*
X5666000Y5300000D02*
X5726000Y5240000D01*
X6005000Y5540000D02*
X6097000Y5448000D01*
X6135000D01*
X5783000Y7835000D02*
X5803000Y7855000D01*
X5905000D01*
X6105000Y7655000D02*
X6365000Y7395000D01*
X6105000Y7655000D02*
Y7855000D01*
X5940000Y4540000D02*
X6140000Y4340000D01*
X5840000Y4540000D02*
X5940000D01*
X6360000Y6569000D02*
Y7230000D01*
Y6569000D02*
X6369000Y6560000D01*
Y4669000D02*
Y6560000D01*
X6140000Y4440000D02*
X6369000Y4669000D01*
X5665000Y7415000D02*
X6175000D01*
X6360000Y7230000D01*
X6140000Y4340000D02*
X6200000Y4400000D01*
X6340000D01*
X6205000Y5540000D02*
X6288844Y5623844D01*
Y6046156D01*
X5735000Y6600000D02*
X6288844Y6046156D01*
X5680000Y3650000D02*
X5860000Y3640000D01*
X6020000D01*
X6140000Y4140000D02*
X6240000Y4240000D01*
X6320000D01*
X6140000Y4040000D02*
X6200000Y4100000D01*
X6330000D01*
X5789914Y3850000D02*
X6391000D01*
X5623914Y4016000D02*
X5789914Y3850000D01*
X6234000Y5669000D02*
Y5859842D01*
X6105000Y5540000D02*
X6234000Y5669000D01*
X5630000Y5919370D02*
X5689370Y5860000D01*
Y5740866D02*
Y5860000D01*
X5593000Y5644496D02*
X5689370Y5740866D01*
X5593000Y4788000D02*
Y5644496D01*
Y4788000D02*
X5788000D01*
X5840000Y4840000D01*
X5600000Y7755000D02*
X5660000Y7815000D01*
X5600000Y7273000D02*
Y7755000D01*
Y7273000D02*
X6328530Y6544470D01*
Y5558530D02*
Y6544470D01*
X6010000Y5240000D02*
X6328530Y5558530D01*
D17*
X5660000Y4855000D02*
D03*
D18*
Y5055000D02*
D03*
D19*
X6220000Y3640000D02*
D03*
X6205000Y7855000D02*
D03*
X5685000Y7040000D02*
D03*
X5805000Y5540000D02*
D03*
X5840000Y5240000D02*
D03*
D20*
X6120000Y3640000D02*
D03*
X6020000D02*
D03*
X5905000Y7855000D02*
D03*
X6005000D02*
D03*
X6105000D02*
D03*
X5630000Y6079764D02*
D03*
X6205000Y5540000D02*
D03*
X6105000D02*
D03*
X6005000D02*
D03*
X5905000D02*
D03*
X5840000Y5140000D02*
D03*
Y5040000D02*
D03*
Y4940000D02*
D03*
Y4840000D02*
D03*
Y4740000D02*
D03*
Y4640000D02*
D03*
Y4540000D02*
D03*
Y4440000D02*
D03*
Y4340000D02*
D03*
Y4240000D02*
D03*
Y4140000D02*
D03*
Y4040000D02*
D03*
Y3940000D02*
D03*
X6140000Y5240000D02*
D03*
Y5140000D02*
D03*
Y5040000D02*
D03*
Y4940000D02*
D03*
Y4840000D02*
D03*
Y4740000D02*
D03*
Y4640000D02*
D03*
Y4540000D02*
D03*
Y4440000D02*
D03*
Y4340000D02*
D03*
Y4240000D02*
D03*
Y4140000D02*
D03*
Y4040000D02*
D03*
Y3940000D02*
D03*
X5735000Y6600000D02*
D03*
Y6500000D02*
D03*
Y6400000D02*
D03*
Y6300000D02*
D03*
Y6200000D02*
D03*
X5680000Y3750000D02*
D03*
D21*
X5660000Y7815000D02*
D03*
X6360000Y7230000D02*
D03*
X6365000Y7395000D02*
D03*
X5630000Y5800236D02*
D03*
X6345000Y7735000D02*
D03*
X5660000Y7680000D02*
D03*
X6345000Y7585000D02*
D03*
X6330000Y3950000D02*
D03*
Y4100000D02*
D03*
X6320000Y4240000D02*
D03*
X6340000Y4400000D02*
D03*
X5735000Y6700000D02*
D03*
X5680000Y3650000D02*
D03*
X5665000Y7415000D02*
D03*
D22*
X5666000Y5300000D02*
D03*
X6135000Y5448000D02*
D03*
X5783000Y7835000D02*
D03*
X6391000Y3850000D02*
D03*
X5623914Y4016000D02*
D03*
X6234000Y5859842D02*
D03*
X5630000Y5919370D02*
D03*
X6010000Y5240000D02*
D03*
%TF.MD5,5CA043E8F05BBAE21E78951866795D64*%
M02*
