G04 Layer_Color=0*
%FSLAX26Y26*%
%MOIN*%
%TF.FileFunction,Plated,1,2,PTH,Drill*%
%TF.Part,Single*%
G01*
G75*
%TA.AperFunction,ComponentDrill*%
%ADD24C,0.043307*%
%ADD25C,0.035433*%
%ADD26C,0.035433*%
%TA.AperFunction,ViaDrill,NotFilled*%
%ADD27C,0.028000*%
D24*
X5660000Y4855000D02*
D03*
Y5055000D02*
D03*
D25*
X6220000Y3640000D02*
D03*
X6120000D02*
D03*
X6020000D02*
D03*
X5905000Y7855000D02*
D03*
X6005000D02*
D03*
X6105000D02*
D03*
X6205000D02*
D03*
X5685000Y7040000D02*
D03*
X6205000Y5540000D02*
D03*
X6105000D02*
D03*
X6005000D02*
D03*
X5905000D02*
D03*
X5805000D02*
D03*
X5840000Y5240000D02*
D03*
Y5140000D02*
D03*
Y5040000D02*
D03*
Y4940000D02*
D03*
Y4840000D02*
D03*
Y4740000D02*
D03*
Y4640000D02*
D03*
Y4540000D02*
D03*
Y4440000D02*
D03*
Y4340000D02*
D03*
Y4240000D02*
D03*
Y4140000D02*
D03*
Y4040000D02*
D03*
Y3940000D02*
D03*
X6140000Y5240000D02*
D03*
Y5140000D02*
D03*
Y5040000D02*
D03*
Y4940000D02*
D03*
Y4840000D02*
D03*
Y4740000D02*
D03*
Y4640000D02*
D03*
Y4540000D02*
D03*
Y4440000D02*
D03*
Y4340000D02*
D03*
Y4240000D02*
D03*
Y4140000D02*
D03*
Y4040000D02*
D03*
Y3940000D02*
D03*
D26*
X5660000Y7815000D02*
D03*
X6360000Y7230000D02*
D03*
X6365000Y7395000D02*
D03*
X5630000Y5800236D02*
D03*
Y6079764D02*
D03*
X6345000Y7735000D02*
D03*
X5660000Y7680000D02*
D03*
X6345000Y7585000D02*
D03*
X6330000Y3950000D02*
D03*
Y4100000D02*
D03*
X6320000Y4240000D02*
D03*
X6340000Y4400000D02*
D03*
X5735000Y6700000D02*
D03*
Y6600000D02*
D03*
Y6500000D02*
D03*
Y6400000D02*
D03*
Y6300000D02*
D03*
Y6200000D02*
D03*
X5680000Y3650000D02*
D03*
Y3750000D02*
D03*
X5665000Y7415000D02*
D03*
D27*
X5666000Y5300000D02*
D03*
X6135000Y5448000D02*
D03*
X5783000Y7835000D02*
D03*
X6391000Y3850000D02*
D03*
X5623914Y4016000D02*
D03*
X6234000Y5859842D02*
D03*
X5630000Y5919370D02*
D03*
X6010000Y5240000D02*
D03*
%TF.MD5,9227C720568DF689F5CACB4A489D654D*%
M02*
