G04 Layer_Physical_Order=1*
G04 Layer_Color=255*
%FSLAX26Y26*%
%MOIN*%
%TF.FileFunction,Copper,L1,Top,Signal*%
%TF.Part,Single*%
G01*
G75*
%TA.AperFunction,SMDPad,CuDef*%
%ADD10R,0.027559X0.062992*%
%ADD11R,0.031496X0.055118*%
%ADD12R,0.030000X0.045000*%
%ADD13R,0.070866X0.045276*%
%ADD14R,0.053150X0.037402*%
%ADD15R,0.045276X0.070866*%
%TA.AperFunction,Conductor*%
%ADD16C,0.019685*%
%TA.AperFunction,ComponentPad*%
%ADD17R,0.072835X0.072835*%
%ADD18C,0.072835*%
%ADD19R,0.059055X0.059055*%
%ADD20C,0.059055*%
%ADD21R,0.059055X0.059055*%
%TA.AperFunction,ViaPad*%
%ADD22C,0.050000*%
G36*
X6182402Y6327717D02*
Y6237165D01*
X6160748Y6215512D01*
X6129252D01*
X6107598Y6237165D01*
Y6327717D01*
X6129252Y6349370D01*
X6160748D01*
X6182402Y6327717D01*
D02*
G37*
D10*
X6204056Y6372992D02*
D03*
X6085944D02*
D03*
D11*
X6145000Y6376930D02*
D03*
D12*
X5640000Y4588740D02*
D03*
Y4681260D02*
D03*
X5630000Y4338740D02*
D03*
Y4431260D02*
D03*
D13*
Y5622086D02*
D03*
Y5507914D02*
D03*
D14*
X5725000Y4298504D02*
D03*
Y4361496D02*
D03*
D15*
X5712086Y4080000D02*
D03*
X5597914D02*
D03*
X6087086Y6590000D02*
D03*
X5972914D02*
D03*
D16*
X5640000Y4681260D02*
Y4758000D01*
X5660000Y4778000D01*
Y4855000D01*
X5848000Y6600000D02*
X5858000Y6590000D01*
X5972914D01*
X5597914Y4080000D02*
Y4193000D01*
X5630000Y4225086D01*
Y4338740D01*
Y4431260D02*
Y4505000D01*
X5640000Y4515000D01*
Y4588740D01*
X5630000Y5622086D02*
Y5800236D01*
X6085944Y6372992D02*
Y6480000D01*
X6087086Y6481142D01*
Y6590000D01*
X6080000Y5515000D02*
X6105000Y5540000D01*
X6080000Y5200000D02*
Y5515000D01*
Y5200000D02*
X6140000Y5140000D01*
Y4440000D02*
X6220000Y4360000D01*
Y3640000D02*
Y4360000D01*
X5630000Y6595000D02*
X5735000Y6700000D01*
X5630000Y6079764D02*
Y6595000D01*
X6205000Y7385000D02*
Y7855000D01*
Y7385000D02*
X6360000Y7230000D01*
X5774000Y4540000D02*
X5840000D01*
X5640000Y4674000D02*
X5774000Y4540000D01*
X5640000Y4674000D02*
Y4681260D01*
X5689000Y5089000D02*
X5840000Y5240000D01*
X5660000Y5055000D02*
Y5089000D01*
X5735000Y6400000D02*
X5795000Y6340000D01*
Y5704000D02*
Y6340000D01*
X5721000Y5630000D02*
X5795000Y5704000D01*
X5721000Y5263000D02*
Y5630000D01*
X5593000Y5135000D02*
X5721000Y5263000D01*
X5593000Y5009000D02*
Y5135000D01*
Y5009000D02*
X5662000Y4940000D01*
X5840000D01*
X5630000Y5507914D02*
X5666000D01*
X5725000Y4298504D02*
X5769000Y4254504D01*
Y3986642D02*
Y4254504D01*
X5680000Y3897642D02*
X5769000Y3986642D01*
X5680000Y3750000D02*
Y3897642D01*
X6135000Y5448000D02*
X6140000Y5443000D01*
Y5240000D02*
Y5443000D01*
X6005000Y5540000D02*
X6026000Y5561000D01*
Y6959000D01*
X5783000Y7202000D02*
X6026000Y6959000D01*
X5783000Y7202000D02*
Y7835000D01*
X5660000Y7680000D02*
X5735568Y7604432D01*
Y7137716D02*
Y7604432D01*
Y7137716D02*
X5795000Y7078284D01*
Y6625000D02*
Y7078284D01*
X5770000Y6600000D02*
X5795000Y6625000D01*
X5735000Y6600000D02*
X5770000D01*
X6205000Y5540000D02*
X6340000Y5405000D01*
Y4400000D02*
Y5405000D01*
X6080000Y3680000D02*
X6120000Y3640000D01*
X6080000Y3680000D02*
Y4280000D01*
X6140000Y4340000D01*
X5621000Y6814000D02*
X5735000Y6700000D01*
X5621000Y6814000D02*
Y7371000D01*
X5665000Y7415000D01*
X6145000Y6376930D02*
Y6994000D01*
X5845000Y7294000D02*
X6145000Y6994000D01*
X5845000Y7294000D02*
Y7885000D01*
X5875000Y7915000D01*
X6268000D01*
Y7662000D02*
Y7915000D01*
Y7662000D02*
X6345000Y7585000D01*
X5805000Y5275000D02*
X5840000Y5240000D01*
X5805000Y5275000D02*
Y5540000D01*
X6179000Y6094000D02*
X6204056Y6372992D01*
X6179000Y5729000D02*
Y6094000D01*
Y5729000D02*
X6400000Y5508000D01*
Y3859000D02*
Y5508000D01*
X6391000Y3850000D02*
X6400000Y3859000D01*
X5597914Y4042000D02*
X5623914Y4016000D01*
X5597914Y4042000D02*
Y4080000D01*
X6005000Y7201000D02*
Y7855000D01*
Y7201000D02*
X6248000Y6958000D01*
Y5873842D02*
Y6958000D01*
X6234000Y5859842D02*
X6248000Y5873842D01*
X5740000Y3840000D02*
X5840000Y3940000D01*
X5740000Y3590000D02*
Y3840000D01*
X5620630Y3590000D02*
X5740000D01*
X5620630D02*
Y3923630D01*
X5712086Y4015086D01*
Y4080000D01*
X5675000Y6240000D02*
X5735000Y6300000D01*
X5675000Y6139000D02*
Y6240000D01*
Y6139000D02*
X5690000Y6124000D01*
Y5979370D02*
Y6124000D01*
X5630000Y5919370D02*
X5690000Y5979370D01*
X6010000Y5210000D02*
Y5240000D01*
X5840000Y5040000D02*
X6010000Y5210000D01*
X5770000Y6600000D02*
X5848000D01*
X5660000Y5089000D02*
X5689000D01*
X5666000Y5300000D02*
Y5507914D01*
D17*
X5660000Y4855000D02*
D03*
D18*
Y5055000D02*
D03*
D19*
X6220000Y3640000D02*
D03*
X6205000Y7855000D02*
D03*
X5685000Y7040000D02*
D03*
X5805000Y5540000D02*
D03*
X5840000Y5240000D02*
D03*
D20*
X6120000Y3640000D02*
D03*
X6020000D02*
D03*
X5905000Y7855000D02*
D03*
X6005000D02*
D03*
X6105000D02*
D03*
X5630000Y6079764D02*
D03*
X6205000Y5540000D02*
D03*
X6105000D02*
D03*
X6005000D02*
D03*
X5905000D02*
D03*
X5840000Y5140000D02*
D03*
Y5040000D02*
D03*
Y4940000D02*
D03*
Y4840000D02*
D03*
Y4740000D02*
D03*
Y4640000D02*
D03*
Y4540000D02*
D03*
Y4440000D02*
D03*
Y4340000D02*
D03*
Y4240000D02*
D03*
Y4140000D02*
D03*
Y4040000D02*
D03*
Y3940000D02*
D03*
X6140000Y5240000D02*
D03*
Y5140000D02*
D03*
Y5040000D02*
D03*
Y4940000D02*
D03*
Y4840000D02*
D03*
Y4740000D02*
D03*
Y4640000D02*
D03*
Y4540000D02*
D03*
Y4440000D02*
D03*
Y4340000D02*
D03*
Y4240000D02*
D03*
Y4140000D02*
D03*
Y4040000D02*
D03*
Y3940000D02*
D03*
X5735000Y6600000D02*
D03*
Y6500000D02*
D03*
Y6400000D02*
D03*
Y6300000D02*
D03*
Y6200000D02*
D03*
X5680000Y3750000D02*
D03*
D21*
X5660000Y7815000D02*
D03*
X6360000Y7230000D02*
D03*
X6365000Y7395000D02*
D03*
X5630000Y5800236D02*
D03*
X6345000Y7735000D02*
D03*
X5660000Y7680000D02*
D03*
X6345000Y7585000D02*
D03*
X6330000Y3950000D02*
D03*
Y4100000D02*
D03*
X6320000Y4240000D02*
D03*
X6340000Y4400000D02*
D03*
X5735000Y6700000D02*
D03*
X5680000Y3650000D02*
D03*
X5665000Y7415000D02*
D03*
D22*
X5666000Y5300000D02*
D03*
X6135000Y5448000D02*
D03*
X5783000Y7835000D02*
D03*
X6391000Y3850000D02*
D03*
X5623914Y4016000D02*
D03*
X6234000Y5859842D02*
D03*
X5630000Y5919370D02*
D03*
X6010000Y5240000D02*
D03*
%TF.MD5,44B7CA6E37E674C6ADCDE493B0E5D8E8*%
M02*
