G04 Layer_Color=0*
%FSLAX25Y25*%
%MOIN*%
%TF.FileFunction,Plated,1,2,PTH,Drill*%
%TF.Part,Single*%
G01*
G75*
%TA.AperFunction,ComponentDrill*%
%ADD19C,0.03543*%
%ADD20C,0.04331*%
%ADD21C,0.03543*%
%TA.AperFunction,ViaDrill,NotFilled*%
%ADD22C,0.02800*%
D19*
X92000Y9000D02*
D03*
Y19000D02*
D03*
Y29000D02*
D03*
Y39000D02*
D03*
X7500Y62000D02*
D03*
Y72000D02*
D03*
Y82000D02*
D03*
X92000Y100000D02*
D03*
Y90000D02*
D03*
X77500Y156524D02*
D03*
Y184476D02*
D03*
X7500Y8500D02*
D03*
Y18500D02*
D03*
X92000Y141000D02*
D03*
Y131000D02*
D03*
Y121000D02*
D03*
X7500Y110500D02*
D03*
Y183000D02*
D03*
Y173000D02*
D03*
Y163000D02*
D03*
Y153000D02*
D03*
Y143000D02*
D03*
X92500Y184500D02*
D03*
Y174500D02*
D03*
X92000Y70000D02*
D03*
Y60000D02*
D03*
D20*
X60000Y167500D02*
D03*
X40000D02*
D03*
D21*
X65000Y8500D02*
D03*
Y18500D02*
D03*
Y28500D02*
D03*
Y38500D02*
D03*
Y48500D02*
D03*
Y58500D02*
D03*
Y68500D02*
D03*
Y78500D02*
D03*
Y88500D02*
D03*
Y98500D02*
D03*
Y108500D02*
D03*
Y118500D02*
D03*
Y128500D02*
D03*
Y138500D02*
D03*
X35000Y8500D02*
D03*
Y18500D02*
D03*
Y28500D02*
D03*
Y38500D02*
D03*
Y48500D02*
D03*
Y58500D02*
D03*
Y68500D02*
D03*
Y78500D02*
D03*
Y88500D02*
D03*
Y98500D02*
D03*
Y108500D02*
D03*
Y118500D02*
D03*
Y128500D02*
D03*
Y138500D02*
D03*
D22*
X73700Y6900D02*
D03*
X84300Y44600D02*
D03*
X83800Y168700D02*
D03*
%TF.MD5,6AF829DCD11C50F02F19F33403CA6CD5*%
M02*
