G04 Layer_Color=255*
%FSLAX24Y24*%
%MOIN*%
%TF.FileFunction,Pads,Top*%
%TF.Part,Single*%
G01*
G75*
%TA.AperFunction,SMDPad,CuDef*%
%ADD10R,0.0453X0.0709*%
%ADD11R,0.0532X0.0374*%
%ADD12R,0.0709X0.0453*%
%ADD13R,0.0300X0.0450*%
%ADD14R,0.0276X0.0630*%
%ADD15R,0.0315X0.0551*%
%TA.AperFunction,ComponentPad*%
%ADD17C,0.0591*%
%ADD18R,0.0591X0.0591*%
%ADD19R,0.0591X0.0591*%
%ADD20C,0.0728*%
%ADD21R,0.0728X0.0728*%
D10*
X59729Y65900D02*
D03*
X60871D02*
D03*
X55979Y40800D02*
D03*
X57121D02*
D03*
D11*
X57250Y43615D02*
D03*
Y42985D02*
D03*
D12*
X56300Y55079D02*
D03*
Y56221D02*
D03*
D13*
Y44313D02*
D03*
Y43387D02*
D03*
X56400Y46813D02*
D03*
Y45887D02*
D03*
D14*
X60859Y63730D02*
D03*
X62041D02*
D03*
D15*
X61450Y63769D02*
D03*
D17*
X56800Y37500D02*
D03*
X57350Y62000D02*
D03*
Y63000D02*
D03*
Y64000D02*
D03*
Y65000D02*
D03*
Y66000D02*
D03*
X61400Y39400D02*
D03*
Y40400D02*
D03*
Y41400D02*
D03*
Y42400D02*
D03*
Y43400D02*
D03*
Y44400D02*
D03*
Y45400D02*
D03*
Y46400D02*
D03*
Y47400D02*
D03*
Y48400D02*
D03*
Y49400D02*
D03*
Y50400D02*
D03*
Y51400D02*
D03*
Y52400D02*
D03*
X58400Y39400D02*
D03*
Y40400D02*
D03*
Y41400D02*
D03*
Y42400D02*
D03*
Y43400D02*
D03*
Y44400D02*
D03*
Y45400D02*
D03*
Y46400D02*
D03*
Y47400D02*
D03*
Y48400D02*
D03*
Y49400D02*
D03*
Y50400D02*
D03*
Y51400D02*
D03*
X59050Y55400D02*
D03*
X60050D02*
D03*
X61050D02*
D03*
X62050D02*
D03*
X56300Y60798D02*
D03*
X56450Y71150D02*
D03*
X63800Y72150D02*
D03*
X60850Y83000D02*
D03*
X59850D02*
D03*
X58850D02*
D03*
X60200Y36400D02*
D03*
X61200D02*
D03*
D18*
X56800Y36500D02*
D03*
X57350Y67000D02*
D03*
X63400Y44000D02*
D03*
X63200Y42400D02*
D03*
X63300Y41000D02*
D03*
Y39500D02*
D03*
X63250Y80300D02*
D03*
X56400Y81250D02*
D03*
X63250Y81800D02*
D03*
X56300Y58002D02*
D03*
X63450Y78400D02*
D03*
X63400Y76750D02*
D03*
X56450Y70150D02*
D03*
X63800Y71150D02*
D03*
X56400Y82600D02*
D03*
D19*
X58400Y52400D02*
D03*
X58050Y55400D02*
D03*
X56650Y74850D02*
D03*
X61850Y83000D02*
D03*
X62200Y36400D02*
D03*
D20*
X56600Y50550D02*
D03*
D21*
Y48550D02*
D03*
%TF.MD5,2B303FFB10B3DA5AD6D1329ABBD391B5*%
M02*
