M48
;Layer_Color=9474304
;FILE_FORMAT=2:4
INCH,LZ
;TYPE=PLATED
T1F00S00C0.0280
T2F00S00C0.0354
T3F00S00C0.0433
%
T01
X0626Y05615
X0619Y05967
X05977Y06058
X05955Y054071
X05883Y05465
X05691Y05442
X05659Y05248
X06065Y0524
X05714Y0474
X05867Y06656
X05977Y07317
X06145Y0785
X05922Y07978
T02
X0568Y0365
Y0375
X0584Y0394
Y0404
Y0414
Y0424
Y0434
Y0444
Y0454
Y0464
X0614
Y0454
Y0444
Y0434
Y0424
Y0414
Y0404
Y0394
X0612Y0364
X0622
X0602
X0633Y0395
Y041
X0632Y0424
X0634Y044
X0614Y0474
Y0484
Y0494
Y0504
Y0514
Y0524
X0584
Y0514
Y0504
Y0494
Y0484
Y0474
X05805Y0554
X05905
X06005
X06105
X06205
X0563Y058002
Y060798
X05735Y062
Y063
Y064
Y065
Y066
Y067
X05645Y07015
Y07115
X05665Y07485
X0634Y07675
X0638Y07215
Y07115
X06345Y0784
X06325Y0803
Y0818
X06185Y083
X06085
X05985
X05885
X0564Y0826
Y08125
T03
X0566Y04855
Y05055
M30
