G04 Layer_Physical_Order=1*
G04 Layer_Color=255*
%FSLAX24Y24*%
%MOIN*%
%TF.FileFunction,Copper,L1,Top,Signal*%
%TF.Part,Single*%
G01*
G75*
%TA.AperFunction,SMDPad,CuDef*%
%ADD10R,0.0453X0.0709*%
%ADD11R,0.0532X0.0374*%
%ADD12R,0.0709X0.0453*%
%ADD13R,0.0300X0.0450*%
%ADD14R,0.0276X0.0630*%
%ADD15R,0.0315X0.0551*%
%TA.AperFunction,Conductor*%
%ADD16C,0.0197*%
%TA.AperFunction,ComponentPad*%
%ADD17C,0.0591*%
%ADD18R,0.0591X0.0591*%
%ADD19R,0.0591X0.0591*%
%ADD20C,0.0728*%
%ADD21R,0.0728X0.0728*%
%TA.AperFunction,ViaPad*%
%ADD22C,0.0500*%
G36*
X61824Y63277D02*
Y62372D01*
X61607Y62155D01*
X61293D01*
X61076Y62372D01*
Y63277D01*
X61293Y63494D01*
X61607D01*
X61824Y63277D01*
D02*
G37*
D10*
X59729Y65900D02*
D03*
X60871D02*
D03*
X55979Y40800D02*
D03*
X57121D02*
D03*
D11*
X57250Y43615D02*
D03*
Y42985D02*
D03*
D12*
X56300Y55079D02*
D03*
Y56221D02*
D03*
D13*
Y44313D02*
D03*
Y43387D02*
D03*
X56400Y46813D02*
D03*
Y45887D02*
D03*
D14*
X60859Y63730D02*
D03*
X62041D02*
D03*
D15*
X61450Y63769D02*
D03*
D16*
X56060Y53540D02*
Y55079D01*
X56400Y46740D02*
X56565D01*
X57550Y42400D02*
Y42985D01*
X56400Y82600D02*
X57800Y81200D01*
Y71800D02*
Y81200D01*
X57370Y52460D02*
Y54580D01*
X58100Y46400D02*
X58400D01*
X57550Y47130D02*
X58100Y46400D01*
X57550Y47130D02*
Y51320D01*
X56710Y52160D02*
X57550Y51320D01*
X56710Y52160D02*
Y53800D01*
X57121Y40000D02*
Y40800D01*
Y40000D02*
X57721Y39400D01*
X58400D01*
X58850Y66640D02*
Y83000D01*
X59850Y68180D02*
Y83000D01*
X62041Y62087D02*
Y63730D01*
Y62087D02*
X62824Y61304D01*
Y54881D02*
Y61304D01*
Y54881D02*
X62926Y54779D01*
Y51386D02*
Y54779D01*
X62700Y51160D02*
X62926Y51386D01*
X62700Y43300D02*
Y47560D01*
Y43300D02*
X63500D01*
X64000Y42800D01*
Y36700D02*
Y42800D01*
X63000Y35700D02*
X64000Y36700D01*
X59780Y35700D02*
X63000D01*
X55979Y39501D02*
X59780Y35700D01*
X55979Y39501D02*
Y40800D01*
X58050Y52750D02*
Y55400D01*
Y52750D02*
X58400Y52400D01*
X61450Y63769D02*
Y64870D01*
X61500Y64920D01*
Y78550D01*
X61400Y48400D02*
X63494Y50494D01*
Y55742D01*
X63321Y55915D02*
X63494Y55742D01*
X63321Y55915D02*
Y61809D01*
X63245Y61885D02*
X63321Y61809D01*
X63245Y61885D02*
Y69662D01*
X62760Y70147D02*
X63245Y69662D01*
X62760Y70147D02*
Y71500D01*
X63410Y72150D01*
X63800D01*
X57350Y64000D02*
X61060Y60290D01*
X61679D01*
X60313Y54157D02*
X61120Y53350D01*
X59500Y54157D02*
X60313D01*
X59000Y53657D02*
X59500Y54157D01*
X59000Y53140D02*
Y53657D01*
Y53140D02*
X59100Y53040D01*
Y50100D02*
Y53040D01*
X58400Y49400D02*
X59100Y50100D01*
X59729Y63671D02*
Y65900D01*
Y63671D02*
X62327Y61073D01*
Y55677D02*
Y61073D01*
X62050Y55400D02*
X62327Y55677D01*
X63400Y44000D02*
Y46698D01*
X63348Y46750D02*
X63400Y46698D01*
X62240Y52250D02*
X62429Y52439D01*
Y54280D01*
X62050Y54659D02*
X62429Y54280D01*
X62050Y54659D02*
Y55400D01*
X56300Y55079D02*
X56753D01*
X57074Y55400D01*
X58050D01*
X61400Y52400D02*
X61819Y52819D01*
Y53631D01*
X60050Y55400D02*
X61819Y53631D01*
X56120Y50550D02*
X56600D01*
X56120D02*
Y53480D01*
X56060Y53540D02*
X56120Y53480D01*
X56060Y55079D02*
X56300D01*
Y60798D02*
Y65950D01*
X57350Y67000D01*
X63800Y61950D02*
Y71150D01*
Y61950D02*
X64000Y61750D01*
Y50000D02*
Y61750D01*
X61400Y47400D02*
X64000Y50000D01*
X59710Y53090D02*
X61400Y51400D01*
X59710Y53090D02*
Y53360D01*
X56400Y46740D02*
Y46813D01*
X56565Y46740D02*
X57905Y45400D01*
X58400D01*
X60871Y64811D02*
Y65900D01*
X60859Y64800D02*
X60871Y64811D01*
X60859Y63730D02*
Y64800D01*
X57250Y42985D02*
X57550D01*
X60400Y43400D02*
X61400D01*
X58400Y45400D02*
X60400Y43400D01*
X60700Y36900D02*
X61200Y36400D01*
X60700Y36900D02*
Y42700D01*
X61400Y43400D01*
X60850Y81000D02*
Y83000D01*
Y81000D02*
X63450Y78400D01*
X62200Y36400D02*
Y43600D01*
X61400Y44400D02*
X62200Y43600D01*
X56450Y70150D02*
X57150Y70850D01*
Y72800D01*
X55950Y74000D02*
X57150Y72800D01*
X55950Y74000D02*
Y80800D01*
X56400Y81250D01*
X56300Y56221D02*
Y58002D01*
X56400Y45150D02*
Y45887D01*
X56300Y45050D02*
X56400Y45150D01*
X56300Y44313D02*
Y45050D01*
Y42251D02*
Y43387D01*
X55979Y41930D02*
X56300Y42251D01*
X55979Y40800D02*
Y41930D01*
X58580Y65900D02*
X59729D01*
X58480Y66000D02*
X58580Y65900D01*
X57350Y66000D02*
X58480D01*
X56600Y47780D02*
Y48550D01*
X56400Y47580D02*
X56600Y47780D01*
X56400Y46813D02*
Y47580D01*
D17*
X56800Y37500D02*
D03*
X57350Y62000D02*
D03*
Y63000D02*
D03*
Y64000D02*
D03*
Y65000D02*
D03*
Y66000D02*
D03*
X61400Y39400D02*
D03*
Y40400D02*
D03*
Y41400D02*
D03*
Y42400D02*
D03*
Y43400D02*
D03*
Y44400D02*
D03*
Y45400D02*
D03*
Y46400D02*
D03*
Y47400D02*
D03*
Y48400D02*
D03*
Y49400D02*
D03*
Y50400D02*
D03*
Y51400D02*
D03*
Y52400D02*
D03*
X58400Y39400D02*
D03*
Y40400D02*
D03*
Y41400D02*
D03*
Y42400D02*
D03*
Y43400D02*
D03*
Y44400D02*
D03*
Y45400D02*
D03*
Y46400D02*
D03*
Y47400D02*
D03*
Y48400D02*
D03*
Y49400D02*
D03*
Y50400D02*
D03*
Y51400D02*
D03*
X59050Y55400D02*
D03*
X60050D02*
D03*
X61050D02*
D03*
X62050D02*
D03*
X56300Y60798D02*
D03*
X56450Y71150D02*
D03*
X63800Y72150D02*
D03*
X60850Y83000D02*
D03*
X59850D02*
D03*
X58850D02*
D03*
X60200Y36400D02*
D03*
X61200D02*
D03*
D18*
X56800Y36500D02*
D03*
X57350Y67000D02*
D03*
X63400Y44000D02*
D03*
X63200Y42400D02*
D03*
X63300Y41000D02*
D03*
Y39500D02*
D03*
X63250Y80300D02*
D03*
X56400Y81250D02*
D03*
X63250Y81800D02*
D03*
X56300Y58002D02*
D03*
X63450Y78400D02*
D03*
X63400Y76750D02*
D03*
X56450Y70150D02*
D03*
X63800Y71150D02*
D03*
X56400Y82600D02*
D03*
D19*
X58400Y52400D02*
D03*
X58050Y55400D02*
D03*
X56650Y74850D02*
D03*
X61850Y83000D02*
D03*
X62200Y36400D02*
D03*
D20*
X56600Y50550D02*
D03*
D21*
Y48550D02*
D03*
D22*
X57800Y71800D02*
D03*
X57370Y54580D02*
D03*
Y52460D02*
D03*
X56710Y53800D02*
D03*
X58850Y66640D02*
D03*
X59850Y68180D02*
D03*
X62700Y51160D02*
D03*
Y47560D02*
D03*
X61500Y78550D02*
D03*
X61679Y60290D02*
D03*
X61120Y53350D02*
D03*
X63348Y46750D02*
D03*
X62240Y52250D02*
D03*
X59710Y53360D02*
D03*
X57550Y42400D02*
D03*
%TF.MD5,1DDBBD5E5F9CA3A7269B12B8C7B3F20C*%
M02*
