G04 Layer_Physical_Order=2*
G04 Layer_Color=16711680*
%FSLAX24Y24*%
%MOIN*%
%TF.FileFunction,Copper,L2,Bot,Signal*%
%TF.Part,Single*%
G01*
G75*
%TA.AperFunction,Conductor*%
%ADD16C,0.0197*%
%TA.AperFunction,ComponentPad*%
%ADD17C,0.0591*%
%ADD18R,0.0591X0.0591*%
%ADD19R,0.0591X0.0591*%
%ADD20C,0.0728*%
%ADD21R,0.0728X0.0728*%
%TA.AperFunction,ViaPad*%
%ADD22C,0.0500*%
D16*
X56650Y74850D02*
X60663Y70837D01*
Y59947D02*
Y70837D01*
Y59947D02*
X62750Y57860D01*
Y55000D02*
Y57860D01*
X62250Y54500D02*
X62750Y55000D01*
X61220Y54500D02*
X62250D01*
X60422Y53702D02*
X61220Y54500D01*
X60422Y49422D02*
Y53702D01*
X58400Y47400D02*
X60422Y49422D01*
X57800Y71800D02*
X58100Y71500D01*
Y56860D02*
Y71500D01*
X57210Y55970D02*
X58100Y56860D01*
X57210Y54740D02*
Y55970D01*
Y54740D02*
X57370Y54580D01*
Y51430D02*
Y52460D01*
Y51430D02*
X58400Y50400D01*
X56710Y53800D02*
Y56180D01*
X57540Y57010D01*
Y61810D01*
X57350Y62000D02*
X57540Y61810D01*
X58400Y48400D02*
X59100Y49100D01*
Y53100D01*
X59050Y53150D02*
X59100Y53100D01*
X56410Y53150D02*
X59050D01*
X56060Y53500D02*
X56410Y53150D01*
X56060Y53500D02*
Y56530D01*
X56994Y57464D01*
Y61085D01*
X56650Y61429D02*
X56994Y61085D01*
X56650Y61429D02*
Y62300D01*
X57350Y63000D01*
X58850Y56600D02*
X60050Y55400D01*
X58850Y56600D02*
Y66640D01*
X60006Y56444D02*
X61050Y55400D01*
X60006Y56444D02*
Y68024D01*
X59850Y68180D02*
X60006Y68024D01*
X62700Y47560D02*
Y51160D01*
X61500Y78550D02*
X63250Y80300D01*
X62400Y42400D02*
X63200D01*
X61400Y41400D02*
X62400Y42400D01*
X58600Y36400D02*
X60200D01*
X56800Y36500D02*
X58600Y36400D01*
X61679Y60290D02*
X63250Y58719D01*
Y53504D02*
Y58719D01*
X63096Y53350D02*
X63250Y53504D01*
X61120Y53350D02*
X63096D01*
X61400Y43400D02*
X62800D01*
X63400Y44000D01*
X63348Y46750D02*
Y51500D01*
X62598Y52250D02*
X63348Y51500D01*
X62240Y52250D02*
X62598D01*
X62190Y75540D02*
X63400Y76750D01*
X62190Y64620D02*
Y75540D01*
Y64620D02*
X63997Y62813D01*
Y46250D02*
Y62813D01*
X62147Y44400D02*
X63997Y46250D01*
X61400Y44400D02*
X62147D01*
X61400Y40400D02*
X62700D01*
X63300Y41000D01*
X59710Y53360D02*
Y54060D01*
X61050Y55400D01*
X57350Y67000D02*
Y70800D01*
X57000Y71150D02*
X57350Y70800D01*
X56450Y71150D02*
X57000D01*
X55950Y71650D02*
X56450Y71150D01*
X55950Y71650D02*
Y75760D01*
X56940Y76750D01*
X63400D01*
X56450Y66500D02*
Y70150D01*
Y66500D02*
X56950Y66000D01*
X57350D01*
X57550Y42400D02*
X57700Y42550D01*
Y44700D01*
X58400Y45400D01*
X62500Y81800D02*
X63250D01*
X61850Y82450D02*
X62500Y81800D01*
X61850Y82450D02*
Y83000D01*
X56400Y81250D02*
X59100D01*
X60850Y83000D01*
X60100Y37500D02*
X61200Y36400D01*
X56800Y37500D02*
X60100D01*
X62400Y39500D02*
X63300D01*
X62300Y39400D02*
X62400Y39500D01*
X61400Y39400D02*
X62300D01*
D17*
X56800Y37500D02*
D03*
X57350Y62000D02*
D03*
Y63000D02*
D03*
Y64000D02*
D03*
Y65000D02*
D03*
Y66000D02*
D03*
X61400Y39400D02*
D03*
Y40400D02*
D03*
Y41400D02*
D03*
Y42400D02*
D03*
Y43400D02*
D03*
Y44400D02*
D03*
Y45400D02*
D03*
Y46400D02*
D03*
Y47400D02*
D03*
Y48400D02*
D03*
Y49400D02*
D03*
Y50400D02*
D03*
Y51400D02*
D03*
Y52400D02*
D03*
X58400Y39400D02*
D03*
Y40400D02*
D03*
Y41400D02*
D03*
Y42400D02*
D03*
Y43400D02*
D03*
Y44400D02*
D03*
Y45400D02*
D03*
Y46400D02*
D03*
Y47400D02*
D03*
Y48400D02*
D03*
Y49400D02*
D03*
Y50400D02*
D03*
Y51400D02*
D03*
X59050Y55400D02*
D03*
X60050D02*
D03*
X61050D02*
D03*
X62050D02*
D03*
X56300Y60798D02*
D03*
X56450Y71150D02*
D03*
X63800Y72150D02*
D03*
X60850Y83000D02*
D03*
X59850D02*
D03*
X58850D02*
D03*
X60200Y36400D02*
D03*
X61200D02*
D03*
D18*
X56800Y36500D02*
D03*
X57350Y67000D02*
D03*
X63400Y44000D02*
D03*
X63200Y42400D02*
D03*
X63300Y41000D02*
D03*
Y39500D02*
D03*
X63250Y80300D02*
D03*
X56400Y81250D02*
D03*
X63250Y81800D02*
D03*
X56300Y58002D02*
D03*
X63450Y78400D02*
D03*
X63400Y76750D02*
D03*
X56450Y70150D02*
D03*
X63800Y71150D02*
D03*
X56400Y82600D02*
D03*
D19*
X58400Y52400D02*
D03*
X58050Y55400D02*
D03*
X56650Y74850D02*
D03*
X61850Y83000D02*
D03*
X62200Y36400D02*
D03*
D20*
X56600Y50550D02*
D03*
D21*
Y48550D02*
D03*
D22*
X57800Y71800D02*
D03*
X57370Y54580D02*
D03*
Y52460D02*
D03*
X56710Y53800D02*
D03*
X58850Y66640D02*
D03*
X59850Y68180D02*
D03*
X62700Y51160D02*
D03*
Y47560D02*
D03*
X61500Y78550D02*
D03*
X61679Y60290D02*
D03*
X61120Y53350D02*
D03*
X63348Y46750D02*
D03*
X62240Y52250D02*
D03*
X59710Y53360D02*
D03*
X57550Y42400D02*
D03*
%TF.MD5,1E5C6F6EAC823F30615E7B818F3A7BB1*%
M02*
