G04 Layer_Color=32768*
%FSLAX24Y24*%
%MOIN*%
%TF.FileFunction,Mechanical*%
%TF.Part,Single*%
G01*
G75*
%TA.AperFunction,NonConductor*%
%ADD40C,0.0039*%
%ADD41C,0.0020*%
D40*
X60103Y65900D02*
X60497D01*
X60300Y65703D02*
Y66097D01*
X56353Y40800D02*
X56747D01*
X56550Y40603D02*
Y40997D01*
X59900Y45703D02*
Y46097D01*
X59703Y45900D02*
X60097D01*
X57053Y43300D02*
X57447D01*
X57250Y43103D02*
Y43497D01*
X56300Y55453D02*
Y55847D01*
X56103Y55650D02*
X56497D01*
X61253Y63100D02*
X61647D01*
X61450Y62903D02*
Y63297D01*
D41*
X59394Y65447D02*
Y66353D01*
X61206Y65447D02*
Y66353D01*
X59394D02*
X61206D01*
X59394Y65447D02*
X61206D01*
X55644Y40347D02*
Y41253D01*
X57456Y40347D02*
Y41253D01*
X55644D02*
X57456D01*
X55644Y40347D02*
X57456D01*
X57565Y42749D02*
Y43851D01*
X56935Y42749D02*
Y43851D01*
X57565D01*
X56935Y42749D02*
X57565D01*
X55847Y54744D02*
X56753D01*
X55847Y56556D02*
X56753D01*
X55847Y54744D02*
Y56556D01*
X56753Y54744D02*
Y56556D01*
X60348Y61958D02*
Y64242D01*
X62552Y61958D02*
Y64242D01*
X60348Y61958D02*
X62552D01*
X60348Y64242D02*
X62552D01*
%TF.MD5,AD0C3DCD85DDC1A2132280E8AD56E9FA*%
M02*
