%FSTAX23Y23*%
%MOIN*%
%SFA1B1*%

%IPPOS*%
%ADD10O,0.098430X0.027560*%
%ADD11C,0.018000*%
%ADD12R,0.059060X0.059060*%
%ADD13C,0.059060*%
%ADD14R,0.059060X0.059060*%
%LNpcb-1*%
%LPD*%
G36*
X01405Y01797D02*
Y01797D01*
X01405*
Y01796*
X01406*
Y01796*
X01406*
Y01796*
Y01795*
X01407*
Y01795*
X01407*
Y01794*
X01408*
Y01794*
X01408*
Y01793*
X01409*
Y01793*
X01409*
Y01793*
X0141*
Y01792*
Y01792*
X0141*
Y01791*
Y01791*
Y0179*
Y0179*
X0141*
Y01789*
Y01789*
X0141*
Y01789*
Y01788*
Y01788*
Y01787*
X0141*
Y01787*
Y01786*
X01409*
Y01787*
X01409*
Y01787*
X01408*
Y01788*
X01408*
Y01788*
X01407*
Y01789*
X01407*
Y01789*
Y01789*
X01406*
Y0179*
X01406*
Y0179*
X01406*
Y01791*
X01405*
Y01791*
X01405*
Y01792*
X01406*
Y01792*
Y01793*
X01405*
Y01792*
X01404*
Y01793*
X01403*
Y01793*
Y01793*
X01404*
Y01794*
Y01794*
Y01795*
Y01795*
Y01796*
Y01796*
X01404*
Y01796*
Y01797*
Y01797*
Y01798*
X01405*
Y01797*
G37*
G36*
X01368Y0179D02*
Y01789D01*
Y01789*
X01368*
Y01789*
X01369*
Y01789*
X01369*
Y01789*
X0137*
Y01788*
X0137*
Y01788*
X01371*
Y01787*
X01372*
Y01787*
X01372*
Y01786*
X01372*
Y01786*
X01373*
Y01785*
Y01785*
X01373*
Y01785*
X01373*
Y01784*
Y01784*
X01374*
Y01784*
Y01785*
X01376*
Y01784*
X01375*
Y01784*
X01374*
Y01783*
X01373*
Y01783*
X01373*
Y01782*
X01372*
Y01782*
X01372*
Y01781*
X01372*
Y01781*
X01371*
Y01781*
Y01782*
X0137*
Y01781*
Y01781*
X01371*
Y01781*
X01371*
Y0178*
X0137*
Y0178*
Y01779*
X0137*
Y01779*
X01369*
Y01778*
X01369*
Y01778*
Y01778*
X01368*
Y01777*
Y01777*
X01367*
Y01776*
X01366*
Y01777*
X01364*
Y01777*
Y01778*
X01364*
Y01778*
X01363*
Y01778*
Y01779*
Y01779*
X01362*
Y0178*
X01362*
Y0178*
Y01781*
X01361*
Y01781*
X01361*
Y01781*
X01361*
Y01782*
Y01782*
X0136*
Y01783*
X0136*
Y01783*
Y01784*
X01359*
Y01784*
X01358*
Y01785*
X01359*
Y01784*
X0136*
Y01784*
X01361*
Y01784*
Y01785*
X0136*
Y01785*
X01361*
Y01785*
Y01786*
X01361*
Y01786*
X01361*
Y01787*
X01362*
Y01787*
X01362*
Y01787*
Y01786*
X01363*
Y01787*
Y01787*
X01363*
Y01788*
X01363*
Y01788*
X01364*
Y01789*
X01364*
Y01789*
X01366*
Y01789*
Y0179*
Y0179*
X01368*
Y0179*
G37*
G36*
X01395Y01785D02*
Y01784D01*
X01395*
Y01785*
Y01785*
X01395*
Y01785*
G37*
G36*
X01387Y0179D02*
X01388D01*
Y01789*
X01388*
Y01789*
X01389*
Y01789*
X0139*
Y01788*
X01391*
Y01788*
X01391*
Y01787*
X01391*
Y01787*
Y01786*
X01393*
Y01786*
X01393*
Y01785*
Y01785*
X01394*
Y01785*
X01393*
Y01784*
X01394*
Y01784*
X01394*
Y01783*
X01394*
Y01783*
X01394*
Y01782*
X01393*
Y01782*
Y01781*
X01393*
Y01781*
X01392*
Y01781*
Y01782*
X01391*
Y01781*
Y01781*
X01392*
Y01781*
Y0178*
X01392*
Y0178*
X01391*
Y01779*
Y01779*
X01391*
Y01778*
X01391*
Y01778*
Y01778*
X0139*
Y01777*
X0139*
Y01777*
X01389*
Y01776*
X01387*
Y01777*
X01386*
Y01777*
X01386*
Y01778*
X01385*
Y01778*
Y01778*
X01385*
Y01779*
X01384*
Y01779*
X01384*
Y0178*
X01383*
Y0178*
X01383*
Y01781*
X01383*
Y01781*
X01382*
Y01781*
Y01782*
X01382*
Y01782*
X01381*
Y01783*
X0138*
Y01783*
X0138*
Y01784*
X01379*
Y01784*
Y01785*
X0138*
Y01784*
X01381*
Y01784*
X01382*
Y01784*
Y01785*
X0138*
Y01785*
X01381*
Y01785*
Y01786*
X01381*
Y01786*
X01382*
Y01787*
X01382*
Y01787*
X01383*
Y01788*
X01383*
Y01788*
X01384*
Y01789*
Y01789*
X01385*
Y01789*
X01385*
Y0179*
X01386*
Y01789*
Y01789*
X01387*
Y01789*
Y0179*
X01386*
Y0179*
X01387*
Y0179*
G37*
G36*
X01394Y01797D02*
Y01797D01*
X01396*
Y01796*
X01396*
Y01796*
X01397*
Y01796*
X01398*
Y01795*
X01398*
Y01795*
Y01794*
X01399*
Y01794*
Y01793*
X014*
Y01793*
X014*
Y01793*
X01401*
Y01793*
Y01793*
X01399*
Y01792*
Y01792*
X014*
Y01791*
Y01791*
X01399*
Y0179*
Y0179*
X01399*
Y01789*
Y01789*
X01398*
Y01789*
Y01788*
X01398*
Y01788*
Y01787*
X01397*
Y01787*
X01397*
Y01786*
X01396*
Y01787*
X01395*
Y01787*
X01394*
Y01788*
X01394*
Y01788*
X01394*
Y01789*
X01393*
Y01789*
X01392*
Y01789*
Y0179*
X01391*
Y0179*
X01391*
Y01791*
X01391*
Y01791*
X0139*
Y01792*
X0139*
Y01792*
Y01793*
X01388*
Y01793*
X01387*
Y01793*
X01389*
Y01793*
X0139*
Y01793*
X01389*
Y01794*
X0139*
Y01794*
Y01795*
X0139*
Y01795*
X01391*
Y01796*
Y01796*
X01391*
Y01796*
X01392*
Y01797*
X01392*
Y01797*
Y01798*
X01394*
Y01797*
G37*
G36*
X01349Y01797D02*
X0135D01*
Y01796*
Y01796*
X0135*
Y01796*
Y01795*
X01349*
Y01795*
Y01794*
X0135*
Y01794*
Y01793*
Y01793*
X0135*
Y01793*
X01351*
Y01793*
X01351*
Y01793*
X0135*
Y01792*
X0135*
Y01793*
X01349*
Y01792*
Y01792*
Y01791*
X01349*
Y01791*
Y0179*
X01348*
Y0179*
Y01789*
X01347*
Y0179*
X01346*
Y01789*
Y01789*
X01347*
Y01789*
X01346*
Y01788*
X01346*
Y01788*
Y01787*
X01345*
Y01787*
X01345*
Y01787*
X01344*
Y01788*
X01343*
Y01788*
X01344*
Y01789*
Y01789*
X01345*
Y01789*
Y0179*
X01344*
Y0179*
X01343*
Y01791*
X01344*
Y01791*
Y01792*
X01345*
Y01792*
Y01793*
Y01793*
Y01793*
X01346*
Y01794*
Y01794*
X01347*
Y01795*
Y01795*
X01347*
Y01796*
X01347*
Y01796*
X01348*
Y01796*
X01348*
Y01797*
X01349*
Y01797*
X01349*
Y01797*
G37*
G36*
X01403Y0179D02*
X01403D01*
Y01789*
X01404*
Y01789*
X01405*
Y01789*
X01405*
Y01788*
X01406*
Y01788*
X01406*
Y01787*
X01406*
Y01787*
X01407*
Y01786*
X01407*
Y01786*
X01408*
Y01785*
Y01785*
X01408*
Y01785*
X01407*
Y01784*
Y01784*
X01408*
Y01784*
X01409*
Y01785*
X01409*
Y01785*
X01409*
Y01785*
Y01784*
Y01784*
X01409*
Y01783*
Y01783*
Y01782*
X01409*
Y01782*
Y01781*
Y01781*
X01408*
Y01781*
Y01782*
X01407*
Y01781*
Y01781*
X01408*
Y01781*
Y0178*
Y0178*
X01408*
Y01779*
X01407*
Y01779*
Y01778*
X01408*
Y01778*
X01407*
Y01778*
Y01777*
X01407*
Y01777*
X01406*
Y01776*
X01406*
Y01777*
X01405*
Y01777*
X01404*
Y01778*
X01404*
Y01778*
Y01778*
X01403*
Y01779*
Y01779*
X01403*
Y0178*
X01402*
Y0178*
X01402*
Y01781*
Y01781*
X01402*
Y01781*
X01401*
Y01782*
X01401*
Y01782*
X014*
Y01783*
X014*
Y01783*
X01399*
Y01784*
X01398*
Y01784*
X01398*
Y01785*
X01398*
Y01784*
X01399*
Y01784*
X014*
Y01784*
Y01785*
X01399*
Y01785*
Y01785*
X014*
Y01786*
Y01786*
X014*
Y01787*
Y01787*
X01401*
Y01788*
Y01788*
X01401*
Y01789*
X01402*
Y01789*
Y01789*
X01402*
Y01789*
X01403*
Y01789*
Y0179*
X01402*
Y0179*
X01403*
Y0179*
G37*
G36*
X01368Y01774D02*
Y01773D01*
X01367*
Y01774*
X01367*
Y01774*
X01368*
Y01774*
G37*
G36*
X01378Y01781D02*
X01378D01*
Y0178*
X01379*
Y0178*
X0138*
Y01779*
X0138*
Y01779*
X0138*
Y01778*
X01381*
Y01778*
X01381*
Y01778*
X01382*
Y01777*
X01383*
Y01777*
X01383*
Y01776*
X01383*
Y01776*
Y01775*
X01384*
Y01775*
Y01774*
X01384*
Y01774*
X01383*
Y01774*
Y01773*
X01384*
Y01774*
X01386*
Y01774*
X01386*
Y01774*
Y01773*
Y01773*
X01386*
Y01772*
X01385*
Y01772*
X01385*
Y01771*
X01383*
Y01771*
Y0177*
Y0177*
X01383*
Y0177*
Y01769*
X01383*
Y01769*
X01382*
Y01768*
X01382*
Y01769*
X01381*
Y01768*
Y01768*
X01381*
Y01767*
Y01767*
X01381*
Y01767*
X0138*
Y01766*
X0138*
Y01766*
Y01765*
X0138*
Y01765*
X01379*
Y01764*
X01378*
Y01764*
X01376*
Y01764*
X01375*
Y01765*
X01375*
Y01765*
X01374*
Y01766*
X01374*
Y01766*
X01373*
Y01767*
Y01767*
X01373*
Y01767*
X01372*
Y01768*
X01372*
Y01768*
X01372*
Y01769*
Y01769*
X01371*
Y0177*
X01371*
Y0177*
Y0177*
X01371*
Y01771*
Y01771*
X0137*
Y01771*
X0137*
Y01771*
X01369*
Y01772*
X01369*
Y01772*
X01368*
Y01773*
X01368*
Y01773*
X01368*
Y01774*
X01369*
Y01774*
X0137*
Y01774*
Y01775*
Y01775*
X0137*
Y01776*
X01371*
Y01776*
Y01777*
Y01777*
X01372*
Y01778*
X01372*
Y01778*
Y01778*
X01374*
Y01779*
Y01779*
X01374*
Y0178*
X01375*
Y0178*
X01375*
Y01781*
X01376*
Y01781*
X01378*
Y01781*
G37*
G36*
X01347Y01769D02*
X01348D01*
Y01769*
X01348*
Y01768*
Y01768*
X01349*
Y01767*
X01349*
Y01767*
Y01767*
X0135*
Y01766*
X01349*
Y01766*
Y01765*
X0135*
Y01765*
X01351*
Y01764*
Y01764*
X01351*
Y01763*
Y01763*
X01352*
Y01763*
Y01762*
Y01762*
Y01761*
Y01761*
Y0176*
Y0176*
X01353*
Y0176*
Y01761*
X01354*
Y01761*
X01354*
Y01761*
X01354*
Y0176*
X01354*
Y0176*
X01353*
Y01759*
X01353*
Y01759*
Y01759*
X01352*
Y01758*
X01352*
Y01758*
Y01757*
X01351*
Y01757*
Y01756*
X01351*
Y01756*
Y01755*
X0135*
Y01755*
Y01755*
X0135*
Y01755*
Y01755*
X01349*
Y01755*
Y01755*
X0135*
Y01754*
Y01754*
X0135*
Y01753*
Y01753*
X01349*
Y01752*
Y01752*
X01349*
Y01752*
X01349*
Y01751*
X01349*
Y01751*
X01348*
Y0175*
Y0175*
X01347*
Y0175*
X01346*
Y0175*
X01346*
Y0175*
Y01751*
X01346*
Y01751*
Y01752*
X01345*
Y01752*
Y01752*
X01345*
Y01753*
Y01753*
X01344*
Y01754*
Y01754*
X01344*
Y01755*
X01345*
Y01755*
Y01755*
X01344*
Y01755*
X01343*
Y01755*
Y01756*
X01343*
Y01756*
Y01757*
X01342*
Y01757*
Y01758*
Y01758*
X01342*
Y01759*
Y01759*
Y01759*
X01342*
Y0176*
X01342*
Y0176*
Y01761*
X01342*
Y01761*
Y01762*
Y01762*
Y01763*
X01343*
Y01763*
Y01763*
Y01764*
Y01764*
X01343*
Y01765*
X01344*
Y01765*
X01345*
Y01766*
Y01766*
Y01767*
X01345*
Y01767*
Y01767*
X01346*
Y01768*
X01346*
Y01768*
Y01769*
X01346*
Y01768*
Y01768*
X01347*
Y01768*
Y01769*
X01346*
Y01769*
X01347*
Y0177*
X01347*
Y01769*
G37*
G36*
X01398Y01781D02*
X01398D01*
Y0178*
X01399*
Y0178*
X01399*
Y01779*
Y01779*
Y01778*
X01401*
Y01778*
X01401*
Y01778*
X01402*
Y01777*
X01402*
Y01777*
Y01776*
Y01776*
X01403*
Y01775*
Y01775*
X01403*
Y01774*
Y01774*
X01404*
Y01774*
X01404*
Y01774*
X01405*
Y01774*
Y01773*
Y01773*
Y01772*
X01404*
Y01772*
X01404*
Y01771*
X01403*
Y01771*
Y0177*
Y0177*
X01403*
Y0177*
Y01769*
X01402*
Y01769*
X01402*
Y01768*
Y01768*
Y01767*
X01402*
Y01767*
Y01767*
X01401*
Y01766*
Y01766*
X01401*
Y01765*
Y01765*
X014*
Y01764*
X01399*
Y01764*
X01398*
Y01764*
X01397*
Y01765*
X01397*
Y01765*
X01396*
Y01766*
Y01766*
X01396*
Y01767*
X01395*
Y01767*
Y01767*
X01395*
Y01768*
Y01768*
Y01769*
X01394*
Y01769*
X01394*
Y0177*
Y0177*
X01393*
Y0177*
X01393*
Y01771*
X01392*
Y01771*
X01392*
Y01772*
X01391*
Y01772*
X01391*
Y01773*
X01391*
Y01773*
X0139*
Y01774*
Y01774*
X0139*
Y01774*
X01391*
Y01773*
X01392*
Y01774*
Y01774*
X01392*
Y01774*
Y01775*
Y01775*
X01392*
Y01776*
Y01776*
X01393*
Y01777*
Y01777*
X01393*
Y01778*
X01394*
Y01778*
X01394*
Y01778*
X01395*
Y01779*
Y01779*
X01395*
Y0178*
Y0178*
X01396*
Y01781*
X01396*
Y01781*
X01398*
Y01781*
G37*
G36*
X01351Y0179D02*
X01352D01*
Y01789*
Y01789*
X01352*
Y01789*
X01353*
Y01788*
Y01788*
X01353*
Y01787*
X01354*
Y01787*
X01354*
Y01786*
Y01786*
X01354*
Y01785*
Y01785*
Y01785*
Y01784*
Y01784*
X01355*
Y01783*
X01354*
Y01783*
X01354*
Y01782*
X01353*
Y01782*
Y01781*
X01353*
Y01782*
X01352*
Y01781*
Y01781*
X01352*
Y01781*
X01352*
Y0178*
Y0178*
X01351*
Y01779*
X01351*
Y01779*
X0135*
Y01778*
Y01778*
X0135*
Y01778*
X0135*
Y01777*
Y01777*
X01349*
Y01776*
X01347*
Y01777*
X01347*
Y01777*
Y01778*
X01346*
Y01778*
Y01778*
X01347*
Y01779*
Y01779*
X01346*
Y01779*
X01346*
Y01779*
Y0178*
Y0178*
X01346*
Y01781*
Y01781*
X01345*
Y01781*
Y01782*
Y01782*
X01345*
Y01783*
Y01783*
Y01784*
Y01784*
Y01785*
X01346*
Y01785*
Y01785*
X01346*
Y01786*
X01346*
Y01786*
X01347*
Y01787*
Y01787*
Y01788*
X01348*
Y01788*
Y01789*
X01349*
Y01789*
X0135*
Y01789*
Y0179*
X0135*
Y0179*
X01351*
Y0179*
G37*
G36*
X01357Y01781D02*
X01358D01*
Y0178*
Y0178*
X01359*
Y01779*
X01358*
Y01779*
X01359*
Y01778*
Y01778*
X0136*
Y01778*
X0136*
Y01777*
X01361*
Y01777*
Y01776*
X01361*
Y01776*
Y01775*
X01362*
Y01775*
Y01774*
Y01774*
X01362*
Y01774*
Y01773*
X01363*
Y01774*
Y01774*
X01365*
Y01774*
X01364*
Y01773*
X01364*
Y01773*
X01363*
Y01772*
X01363*
Y01772*
X01362*
Y01771*
X01362*
Y01771*
X01361*
Y0177*
X01361*
Y0177*
X01361*
Y0177*
Y01769*
X0136*
Y01769*
X0136*
Y01768*
X01359*
Y01768*
Y01767*
X01359*
Y01767*
X01358*
Y01767*
Y01766*
X01357*
Y01766*
Y01765*
X01357*
Y01765*
X01357*
Y01764*
X01356*
Y01764*
X01355*
Y01764*
X01354*
Y01765*
X01354*
Y01765*
X01353*
Y01766*
Y01766*
X01353*
Y01767*
Y01767*
X01352*
Y01767*
Y01768*
X01353*
Y01768*
Y01769*
X01351*
Y01769*
Y0177*
X01351*
Y0177*
Y0177*
X0135*
Y01771*
X0135*
Y01771*
Y01772*
Y01772*
X0135*
Y01773*
X01349*
Y01773*
X01349*
Y01774*
Y01774*
X01349*
Y01774*
Y01773*
X0135*
Y01774*
Y01774*
X0135*
Y01774*
Y01775*
Y01775*
X01351*
Y01776*
Y01776*
X01351*
Y01777*
X01352*
Y01776*
Y01776*
X01353*
Y01776*
Y01777*
X01352*
Y01777*
X01352*
Y01778*
X01353*
Y01778*
X01353*
Y01778*
X01354*
Y01779*
X01354*
Y01779*
X01354*
Y01779*
Y01778*
X01355*
Y01779*
Y01779*
X01354*
Y0178*
X01355*
Y0178*
X01355*
Y01781*
X01356*
Y01781*
X01357*
Y01781*
G37*
G36*
X01343D02*
Y0178D01*
Y0178*
Y01779*
X01344*
Y01779*
Y01778*
X01344*
Y01778*
Y01778*
X01345*
Y01777*
Y01777*
X01344*
Y01776*
Y01776*
X01345*
Y01776*
X01345*
Y01776*
Y01775*
Y01775*
Y01774*
Y01774*
X01346*
Y01774*
X01346*
Y01773*
Y01773*
X01346*
Y01772*
X01345*
Y01772*
X01345*
Y01771*
X01344*
Y01771*
Y0177*
X01344*
Y0177*
Y0177*
X01344*
Y01769*
Y01769*
X01343*
Y01768*
Y01768*
X01343*
Y01767*
Y01767*
X01342*
Y01767*
Y01766*
X01341*
Y01766*
Y01765*
X01342*
Y01765*
Y01764*
X01341*
Y01764*
X0134*
Y01764*
X0134*
Y01765*
Y01765*
X01339*
Y01766*
Y01766*
Y01767*
Y01767*
Y01767*
X01339*
Y01768*
X01339*
Y01768*
Y01769*
X01339*
Y01769*
Y0177*
Y0177*
Y0177*
X01339*
Y01771*
Y01771*
X01339*
Y01772*
Y01772*
Y01773*
X01338*
Y01773*
Y01774*
Y01774*
Y01774*
X01339*
Y01775*
X01339*
Y01775*
X01339*
Y01776*
Y01776*
Y01777*
X0134*
Y01777*
Y01778*
X0134*
Y01778*
Y01778*
X01341*
Y01779*
Y01779*
X01341*
Y01779*
Y01778*
X01342*
Y01779*
Y01779*
X01341*
Y0178*
X01342*
Y0178*
Y01781*
X01342*
Y01781*
X01343*
Y01781*
G37*
G36*
X01397Y01804D02*
X01397D01*
Y01803*
X01397*
Y01803*
Y01802*
X01398*
Y01803*
Y01803*
X01398*
Y01803*
X01399*
Y01802*
X01399*
Y01802*
X014*
Y01801*
X01401*
Y01801*
X01401*
Y018*
X01402*
Y018*
X01402*
Y018*
X01403*
Y01799*
X01402*
Y01799*
Y01798*
Y01798*
X01402*
Y01797*
Y01797*
X01402*
Y01796*
Y01796*
X01402*
Y01796*
Y01795*
X01401*
Y01795*
X01401*
Y01795*
X014*
Y01796*
X01399*
Y01796*
X01398*
Y01796*
X01398*
Y01797*
X01398*
Y01797*
Y01798*
X01397*
Y01798*
X01396*
Y01799*
X01395*
Y01799*
X01395*
Y018*
Y018*
Y018*
X01394*
Y01801*
X01395*
Y01801*
Y01802*
Y01802*
X01395*
Y01803*
Y01803*
Y01804*
X01396*
Y01804*
X01397*
Y01804*
G37*
G36*
X01341Y01836D02*
X01344D01*
Y01836*
X01346*
Y01835*
X01348*
Y01835*
X01349*
Y01834*
Y01834*
X01351*
Y01833*
X01352*
Y01833*
X01354*
Y01833*
X01354*
Y01832*
Y01832*
Y01831*
X01355*
Y01832*
X01356*
Y01831*
X01357*
Y01831*
X01358*
Y0183*
X01359*
Y0183*
X0136*
Y0183*
Y01829*
Y01829*
X01361*
Y01829*
X01361*
Y01829*
X01362*
Y01828*
X01363*
Y01828*
X01365*
Y01827*
X01365*
Y01827*
X01365*
Y01826*
Y01826*
X01366*
Y01826*
Y01827*
X01366*
Y01826*
X01367*
Y01826*
X01368*
Y01826*
X01368*
Y01825*
X0137*
Y01825*
X0137*
Y01824*
Y01824*
Y01823*
X01372*
Y01823*
Y01822*
Y01822*
X01371*
Y01822*
X0137*
Y01821*
Y01821*
X01371*
Y0182*
Y0182*
X01371*
Y01819*
Y01819*
X0137*
Y01819*
X0137*
Y01819*
X01369*
Y01819*
X01369*
Y0182*
X01368*
Y0182*
X01368*
Y01821*
X01367*
Y01821*
X01366*
Y01822*
X01365*
Y01822*
X01365*
Y01822*
X01363*
Y01823*
X01358*
Y01823*
X01358*
Y01824*
Y01824*
X01357*
Y01825*
X01356*
Y01825*
X01356*
Y01826*
X01355*
Y01826*
Y01826*
Y01827*
X01354*
Y01826*
X01354*
Y01827*
X01353*
Y01827*
X01352*
Y01828*
X01352*
Y01827*
X01351*
Y01828*
Y01828*
X01351*
Y01828*
X0135*
Y01828*
X0135*
Y01829*
Y01829*
Y0183*
X01349*
Y01829*
X01348*
Y0183*
X01347*
Y0183*
X01346*
Y0183*
X01345*
Y01831*
X01343*
Y01831*
X01342*
Y01832*
X01342*
Y01832*
X0134*
Y01833*
X01339*
Y01833*
X01337*
Y01833*
X01335*
Y01834*
X01334*
Y01834*
Y01835*
X01333*
Y01835*
Y01836*
X01333*
Y01836*
X01336*
Y01837*
X01341*
Y01836*
G37*
G36*
X01396Y0182D02*
X01399D01*
Y0182*
X01402*
Y01819*
X01403*
Y01819*
X01405*
Y01819*
Y01818*
X01406*
Y01818*
Y01817*
X01404*
Y01817*
X01402*
Y01816*
X01399*
Y01816*
X01398*
Y01815*
X01398*
Y01816*
Y01816*
X01397*
Y01816*
Y01815*
X01398*
Y01815*
X01397*
Y01815*
X01396*
Y01814*
X01395*
Y01814*
X01394*
Y01813*
Y01813*
X01392*
Y01813*
Y01814*
X01391*
Y01813*
Y01813*
X0139*
Y01813*
Y01814*
X01389*
Y01813*
Y01813*
X01388*
Y01812*
X01384*
Y01812*
X01382*
Y01811*
X01381*
Y01812*
X01381*
Y01812*
Y01813*
X01382*
Y01813*
Y01814*
Y01814*
X01382*
Y01815*
X01383*
Y01815*
X01383*
Y01815*
X01384*
Y01816*
Y01816*
Y01817*
X01385*
Y01817*
X01386*
Y01818*
X01387*
Y01818*
X01387*
Y01819*
X01388*
Y01819*
X01389*
Y01819*
Y01818*
X0139*
Y01819*
Y01819*
X01389*
Y01819*
X0139*
Y0182*
X01391*
Y0182*
X01394*
Y01821*
X01396*
Y0182*
G37*
G36*
X01372Y01816D02*
X01372D01*
Y01815*
X01373*
Y01815*
X01373*
Y01815*
X01374*
Y01814*
X01375*
Y01814*
X01376*
Y01813*
Y01813*
X01376*
Y01813*
X01377*
Y01813*
X01378*
Y01812*
X01378*
Y01812*
X01379*
Y01811*
X0138*
Y01811*
Y01811*
X0138*
Y0181*
X01383*
Y01811*
X01383*
Y0181*
X01384*
Y01811*
X01385*
Y01811*
X01386*
Y01811*
Y0181*
X01387*
Y01811*
Y01811*
X01388*
Y01811*
X01398*
Y01811*
X01399*
Y01811*
Y0181*
X014*
Y01811*
X01402*
Y0181*
X01403*
Y0181*
X01404*
Y01809*
X01406*
Y01809*
X01406*
Y01808*
X01407*
Y01808*
X01406*
Y01807*
X01406*
Y01808*
X01406*
Y01808*
X01404*
Y01808*
X01401*
Y01808*
X01398*
Y01808*
X01396*
Y01808*
X01395*
Y01808*
X01395*
Y01808*
X01394*
Y01808*
X01394*
Y01807*
X01392*
Y01808*
Y01808*
X01391*
Y01808*
Y01807*
X01392*
Y01807*
X01392*
Y01807*
X01392*
Y01806*
X01393*
Y01806*
X01394*
Y01805*
X01394*
Y01805*
Y01804*
Y01804*
X01394*
Y01804*
Y01803*
Y01803*
X01393*
Y01802*
X01393*
Y01802*
X01391*
Y01802*
X0139*
Y01803*
Y01803*
X01388*
Y01804*
X01388*
Y01804*
X01387*
Y01804*
X01387*
Y01805*
X01387*
Y01805*
Y01806*
X01386*
Y01805*
Y01805*
X01386*
Y01805*
X01384*
Y01806*
X01383*
Y01805*
X01383*
Y01805*
X01382*
Y01805*
Y01806*
X01381*
Y01805*
Y01805*
X01381*
Y01804*
X01381*
Y01804*
X0138*
Y01804*
X0138*
Y01803*
X0138*
Y01803*
X01379*
Y01803*
X01378*
Y01803*
Y01802*
X01379*
Y01802*
X01377*
Y01801*
X01376*
Y01802*
X01376*
Y01802*
X01375*
Y01803*
X01374*
Y01803*
X01374*
Y01804*
X01373*
Y01804*
X01373*
Y01804*
X01372*
Y01805*
X01371*
Y01805*
Y01806*
X0137*
Y01805*
Y01805*
X01368*
Y01805*
Y01806*
X01368*
Y01805*
Y01805*
X01367*
Y01804*
X01366*
Y01804*
X01366*
Y01804*
X01365*
Y01803*
X01365*
Y01803*
X01364*
Y01802*
X01364*
Y01802*
X01361*
Y01802*
X01361*
Y01803*
Y01803*
X0136*
Y01804*
Y01804*
X0136*
Y01804*
Y01805*
X01359*
Y01805*
X0136*
Y01805*
X01361*
Y01805*
Y01806*
Y01806*
X01361*
Y01807*
X01361*
Y01807*
X01361*
Y01807*
X01361*
Y01808*
Y01808*
X0136*
Y01808*
X01359*
Y01808*
X01357*
Y01809*
X01355*
Y01809*
X01352*
Y0181*
X0135*
Y0181*
Y01811*
X01352*
Y0181*
X01353*
Y01811*
Y01811*
X01354*
Y01811*
Y0181*
X01355*
Y01811*
Y01811*
X01357*
Y01811*
Y0181*
X01358*
Y01811*
Y01811*
X0136*
Y01811*
Y0181*
X01361*
Y01811*
Y01811*
X0136*
Y01811*
X01363*
Y01811*
X01362*
Y01811*
Y0181*
X01363*
Y01811*
Y01811*
X01365*
Y01811*
Y0181*
X01366*
Y01811*
Y01811*
X01367*
Y01811*
X01368*
Y0181*
X01369*
Y01811*
X0137*
Y01811*
Y01811*
Y01812*
Y01812*
Y01813*
Y01813*
Y01814*
Y01814*
X01369*
Y01815*
X0137*
Y01815*
Y01815*
Y01816*
X0137*
Y01815*
X01371*
Y01816*
Y01816*
X01372*
Y01816*
G37*
G36*
X01334Y01852D02*
X01335D01*
Y01852*
X01337*
Y01851*
X01338*
Y01851*
X01339*
Y0185*
Y0185*
X01339*
Y0185*
X01341*
Y0185*
X01342*
Y01849*
X01343*
Y01849*
X01345*
Y01848*
X01346*
Y01848*
X01346*
Y01848*
Y01847*
X01347*
Y01848*
X01349*
Y01847*
X0135*
Y01847*
X01351*
Y01846*
X01352*
Y01846*
X01353*
Y01845*
X01354*
Y01845*
X01354*
Y01845*
X01356*
Y01844*
X01357*
Y01844*
X01357*
Y01843*
X01358*
Y01843*
X01359*
Y01842*
X01359*
Y01842*
X01361*
Y01841*
X01361*
Y01841*
X01362*
Y01841*
X01362*
Y0184*
Y0184*
Y01839*
X01363*
Y0184*
X01364*
Y01839*
X01365*
Y01839*
X01365*
Y01838*
X01366*
Y01838*
X01366*
Y01837*
X01367*
Y01837*
X01367*
Y01837*
X01368*
Y01836*
X01368*
Y01836*
X01368*
Y01835*
X01369*
Y01835*
Y01834*
X01369*
Y01834*
X0137*
Y01833*
X0137*
Y01833*
Y01833*
X01371*
Y01832*
X0137*
Y01832*
Y01831*
X01371*
Y01832*
X01372*
Y01831*
Y01831*
X01372*
Y0183*
X01372*
Y0183*
X01373*
Y0183*
Y01829*
Y01829*
X01374*
Y01828*
X01375*
Y01828*
Y01827*
X01374*
Y01827*
Y01826*
X01374*
Y01827*
X01373*
Y01826*
Y01826*
X01373*
Y01826*
X01372*
Y01825*
X01372*
Y01826*
X01371*
Y01826*
X01371*
Y01826*
Y01827*
X0137*
Y01826*
X01369*
Y01827*
X01368*
Y01827*
Y01828*
X01366*
Y01828*
X01366*
Y01829*
Y01829*
Y0183*
X01365*
Y01829*
X01364*
Y0183*
X01363*
Y0183*
X01362*
Y0183*
X01361*
Y01831*
X0136*
Y01831*
X01361*
Y01832*
Y01832*
X0136*
Y01832*
Y01831*
X01359*
Y01832*
X01358*
Y01832*
X01357*
Y01833*
X01357*
Y01833*
X01355*
Y01833*
X01354*
Y01834*
X01354*
Y01834*
X01353*
Y01835*
X01352*
Y01835*
X01351*
Y01836*
X0135*
Y01836*
X0135*
Y01837*
X0135*
Y01837*
Y01837*
X01349*
Y01837*
X01349*
Y01837*
X01348*
Y01838*
X01347*
Y01838*
X01347*
Y01839*
X01346*
Y01839*
X01346*
Y0184*
Y0184*
X01346*
Y01841*
X01345*
Y01841*
X01345*
Y01841*
X01344*
Y01842*
X01345*
Y01842*
Y01843*
X01344*
Y01842*
X01343*
Y01843*
X01343*
Y01843*
X01342*
Y01844*
X01342*
Y01844*
X01341*
Y01845*
X01341*
Y01845*
X0134*
Y01845*
X0134*
Y01846*
X01339*
Y01846*
X01339*
Y01847*
X01339*
Y01847*
X01338*
Y01848*
X01337*
Y01848*
X01337*
Y01848*
X01336*
Y01849*
X01335*
Y01849*
X01335*
Y0185*
X01335*
Y0185*
X01334*
Y01851*
X01334*
Y01851*
X01333*
Y01852*
Y01852*
X01334*
Y01852*
X01334*
Y01852*
G37*
G36*
X01371Y01878D02*
X01372D01*
Y01878*
Y01877*
Y01877*
Y01876*
Y01876*
X01372*
Y01875*
Y01875*
X01372*
Y01874*
Y01874*
Y01874*
X01373*
Y01873*
Y01873*
X01373*
Y01872*
Y01872*
X01373*
Y01871*
Y01871*
X01374*
Y01871*
X01374*
Y0187*
Y0187*
X01375*
Y01869*
Y01869*
X01375*
Y01868*
Y01868*
X01376*
Y01867*
Y01867*
Y01867*
Y01866*
Y01866*
X01376*
Y01865*
X01376*
Y01865*
Y01864*
X01377*
Y01864*
Y01863*
X01377*
Y01863*
Y01863*
X01378*
Y01862*
Y01862*
X01378*
Y01861*
Y01861*
Y0186*
X01379*
Y0186*
X01379*
Y01859*
Y01859*
X0138*
Y01859*
Y01858*
X0138*
Y01858*
Y01857*
X0138*
Y01857*
Y01856*
X01381*
Y01856*
Y01856*
Y01855*
X01381*
Y01855*
Y01854*
Y01854*
Y01853*
X01381*
Y01853*
Y01852*
X0138*
Y01852*
X0138*
Y01852*
X01379*
Y01851*
X01379*
Y01851*
X01378*
Y0185*
X01378*
Y0185*
X01377*
Y01849*
X01377*
Y01849*
X01376*
Y01848*
Y01848*
X01376*
Y01848*
Y01847*
X01375*
Y01847*
Y01846*
X01375*
Y01846*
X01374*
Y01846*
X01373*
Y01847*
X01373*
Y01847*
X01372*
Y01848*
X01372*
Y01848*
X01372*
Y01848*
Y01849*
X01371*
Y01849*
X01371*
Y0185*
X01371*
Y0185*
Y01851*
X0137*
Y0185*
X0137*
Y01851*
X01369*
Y01851*
Y01852*
X01368*
Y01852*
Y01852*
Y01853*
Y01853*
X01368*
Y01854*
Y01854*
Y01855*
Y01855*
X01368*
Y01856*
Y01856*
X01368*
Y01856*
Y01857*
Y01857*
Y01858*
X01368*
Y01858*
Y01859*
X01368*
Y01859*
Y01859*
X01368*
Y0186*
X01368*
Y0186*
X01368*
Y01861*
Y01861*
X01368*
Y01862*
Y01862*
X01368*
Y01863*
X01368*
Y01863*
Y01863*
X01368*
Y01864*
Y01864*
Y01865*
Y01865*
Y01866*
Y01866*
Y01867*
Y01867*
Y01867*
X01369*
Y01868*
Y01868*
Y01869*
Y01869*
Y0187*
Y0187*
Y01871*
Y01871*
Y01871*
Y01872*
Y01872*
Y01873*
Y01873*
Y01874*
Y01874*
Y01874*
X01369*
Y01875*
Y01875*
Y01876*
Y01876*
Y01877*
Y01877*
Y01878*
Y01878*
X0137*
Y01878*
X01371*
Y01878*
G37*
G36*
X01417Y01838D02*
X0142D01*
Y01837*
X0142*
Y01837*
Y01837*
X01421*
Y01836*
X01421*
Y01836*
X0142*
Y01836*
X01416*
Y01836*
X01414*
Y01835*
X01413*
Y01835*
X01412*
Y01834*
X01411*
Y01835*
X0141*
Y01834*
Y01834*
X01409*
Y01833*
X01409*
Y01833*
X01407*
Y01833*
X01406*
Y01832*
X01405*
Y01832*
Y01831*
X01404*
Y01831*
X01403*
Y0183*
X01402*
Y0183*
X01402*
Y0183*
X01401*
Y01829*
X014*
Y0183*
X01399*
Y01829*
Y01829*
Y01828*
X01398*
Y01828*
X01398*
Y01827*
X01397*
Y01827*
X01396*
Y01826*
X01396*
Y01826*
X01395*
Y01826*
Y01827*
X01394*
Y01826*
Y01826*
X01395*
Y01826*
X01394*
Y01825*
X01394*
Y01825*
X01394*
Y01824*
X01393*
Y01824*
Y01823*
X01392*
Y01824*
Y01824*
X01391*
Y01824*
Y01823*
X01392*
Y01823*
X01392*
Y01822*
X01391*
Y01822*
Y01822*
X01391*
Y01821*
X0139*
Y01822*
X01389*
Y01821*
Y01821*
Y0182*
X01388*
Y0182*
X01387*
Y01819*
X01386*
Y01819*
X01385*
Y01819*
Y0182*
Y0182*
Y01821*
Y01821*
X01385*
Y01822*
Y01822*
Y01822*
X01384*
Y01823*
Y01823*
Y01824*
Y01824*
X01383*
Y01825*
X01383*
Y01825*
Y01826*
Y01826*
X01383*
Y01826*
X01383*
Y01826*
X01384*
Y01826*
Y01827*
X01384*
Y01827*
X01384*
Y01828*
X01385*
Y01828*
X01386*
Y01829*
X01387*
Y01829*
Y0183*
X01387*
Y0183*
X01388*
Y0183*
X01389*
Y01831*
X0139*
Y01831*
X01391*
Y01832*
X01391*
Y01832*
X01391*
Y01832*
Y01831*
X01392*
Y01832*
Y01832*
X01392*
Y01833*
X01393*
Y01833*
X01394*
Y01833*
X01394*
Y01834*
X01396*
Y01834*
X01397*
Y01834*
X01398*
Y01834*
Y01835*
X01398*
Y01835*
X01399*
Y01836*
X01401*
Y01836*
X01403*
Y01837*
X01406*
Y01837*
X01407*
Y01837*
X01408*
Y01837*
Y01837*
X0141*
Y01837*
Y01837*
X01411*
Y01837*
Y01837*
X0141*
Y01838*
X01415*
Y01838*
X01417*
Y01838*
G37*
G36*
X01349Y0186D02*
X0135D01*
Y0186*
X01351*
Y01859*
X01353*
Y01859*
X01354*
Y01859*
X01354*
Y01858*
Y01858*
X01355*
Y01858*
X01356*
Y01858*
X01357*
Y01857*
X01357*
Y01857*
X01358*
Y01856*
X0136*
Y01856*
Y01856*
Y01855*
X01361*
Y01856*
X01361*
Y01855*
X01362*
Y01855*
X01363*
Y01854*
X01364*
Y01854*
X01365*
Y01853*
X01365*
Y01853*
Y01852*
X01366*
Y01852*
X01367*
Y01852*
X01367*
Y01851*
X01368*
Y01851*
X01368*
Y0185*
Y0185*
X01369*
Y01849*
X01369*
Y01849*
X0137*
Y01848*
X0137*
Y01848*
Y01848*
Y01847*
X01371*
Y01847*
X01372*
Y01846*
X01372*
Y01846*
Y01845*
X01372*
Y01845*
X01373*
Y01845*
Y01844*
X01373*
Y01844*
Y01843*
X01374*
Y01843*
X01374*
Y01842*
Y01842*
X01375*
Y01841*
Y01841*
X01375*
Y01841*
Y0184*
X01376*
Y0184*
Y01839*
X01375*
Y01839*
X01376*
Y01838*
Y01838*
Y01837*
Y01837*
Y01837*
Y01836*
Y01836*
Y01835*
Y01835*
Y01834*
X01375*
Y01834*
Y01833*
X01375*
Y01833*
Y01833*
X01374*
Y01832*
X01372*
Y01833*
X01372*
Y01833*
Y01833*
X01372*
Y01834*
X01371*
Y01834*
Y01835*
X01371*
Y01835*
X0137*
Y01836*
X0137*
Y01836*
X01369*
Y01837*
Y01837*
X01369*
Y01837*
X01368*
Y01838*
X01368*
Y01838*
X01367*
Y01839*
X01367*
Y01839*
X01366*
Y0184*
X01366*
Y0184*
X01365*
Y01841*
X01365*
Y01841*
X01364*
Y01841*
X01363*
Y01842*
Y01842*
Y01843*
X01362*
Y01842*
X01361*
Y01843*
X01361*
Y01843*
X0136*
Y01844*
X01359*
Y01844*
X01358*
Y01845*
X01358*
Y01845*
Y01845*
X01357*
Y01846*
X01356*
Y01846*
Y01847*
Y01847*
X01356*
Y01848*
Y01848*
Y01848*
X01355*
Y01849*
Y01849*
X01355*
Y0185*
X01355*
Y0185*
Y01851*
X01354*
Y01851*
Y01852*
X01354*
Y01852*
Y01852*
X01353*
Y01853*
X01353*
Y01853*
Y01854*
X01352*
Y01854*
X01352*
Y01855*
X01351*
Y01855*
Y01856*
X01351*
Y01856*
X0135*
Y01856*
X0135*
Y01857*
X0135*
Y01857*
X01349*
Y01858*
X01349*
Y01858*
X01348*
Y01859*
X01347*
Y01859*
X01347*
Y01859*
X01346*
Y0186*
X01346*
Y0186*
X01347*
Y01861*
X01349*
Y0186*
G37*
G36*
X01378Y01797D02*
Y01797D01*
X01379*
Y01796*
X0138*
Y01796*
X0138*
Y01796*
X01381*
Y01795*
X01381*
Y01795*
Y01794*
X01382*
Y01795*
X01382*
Y01794*
X01383*
Y01794*
X01383*
Y01793*
Y01793*
X01384*
Y01793*
X01385*
Y01793*
X01385*
Y01793*
X01383*
Y01792*
X01383*
Y01792*
X01383*
Y01791*
X01383*
Y01792*
X01383*
Y01791*
Y01791*
X01382*
Y0179*
X01382*
Y0179*
X01381*
Y01789*
Y01789*
X0138*
Y01789*
X0138*
Y01788*
X0138*
Y01788*
X01379*
Y01787*
X01378*
Y01787*
X01376*
Y01787*
X01376*
Y01787*
X01375*
Y01787*
X01375*
Y01788*
X01374*
Y01788*
X01374*
Y01789*
X01373*
Y01789*
X01374*
Y01789*
Y0179*
X01373*
Y01789*
X01372*
Y0179*
X01372*
Y0179*
X01372*
Y01791*
X01371*
Y01791*
X01371*
Y01792*
X01371*
Y01792*
Y01793*
X0137*
Y01792*
X0137*
Y01793*
X01369*
Y01793*
X01368*
Y01793*
X01369*
Y01793*
X0137*
Y01793*
X01371*
Y01794*
X01371*
Y01794*
X01372*
Y01795*
X01372*
Y01795*
X01372*
Y01796*
X01373*
Y01796*
X01374*
Y01796*
X01374*
Y01797*
X01375*
Y01797*
X01376*
Y01797*
X01376*
Y01797*
Y01798*
X01378*
Y01797*
G37*
G36*
X01361Y01798D02*
X01361D01*
Y01797*
X01361*
Y01797*
X01362*
Y01796*
X01362*
Y01796*
X01363*
Y01796*
X01363*
Y01795*
X01364*
Y01795*
X01364*
Y01794*
Y01794*
X01365*
Y01793*
Y01793*
X01365*
Y01793*
X01366*
Y01793*
X01366*
Y01793*
X01365*
Y01792*
X01365*
Y01792*
X01364*
Y01791*
X01363*
Y01791*
X01363*
Y0179*
X01362*
Y0179*
X01362*
Y01789*
X01361*
Y01789*
X01361*
Y01789*
X01361*
Y01788*
X0136*
Y01788*
X0136*
Y01787*
X01359*
Y01787*
X01358*
Y01787*
X01357*
Y01787*
Y01786*
X01357*
Y01787*
X01356*
Y01787*
Y01788*
X01356*
Y01788*
X01355*
Y01789*
Y01789*
Y01789*
Y0179*
X01354*
Y0179*
Y01791*
X01354*
Y01791*
Y01792*
X01354*
Y01792*
Y01793*
X01353*
Y01793*
Y01793*
X01354*
Y01794*
X01355*
Y01794*
X01355*
Y01795*
Y01795*
X01356*
Y01796*
X01357*
Y01796*
X01357*
Y01796*
X01358*
Y01797*
X01358*
Y01797*
X01359*
Y01798*
X0136*
Y01797*
Y01797*
X01361*
Y01797*
Y01798*
X0136*
Y01798*
X01361*
Y01798*
G37*
G36*
X01385Y01804D02*
X01386D01*
Y01803*
X01386*
Y01803*
Y01802*
X01387*
Y01802*
X01388*
Y01801*
X01389*
Y01801*
X01389*
Y018*
X01389*
Y018*
Y018*
X0139*
Y018*
X01391*
Y018*
X01391*
Y01799*
X0139*
Y01799*
X0139*
Y01798*
Y01798*
X01389*
Y01797*
Y01797*
Y01796*
X01388*
Y01796*
Y01796*
X01387*
Y01795*
X01384*
Y01796*
X01384*
Y01796*
X01383*
Y01796*
X01383*
Y01797*
Y01797*
X01382*
Y01798*
X01381*
Y01798*
X01381*
Y01799*
X0138*
Y01799*
X0138*
Y018*
X01379*
Y018*
X0138*
Y018*
X0138*
Y01801*
Y01801*
X0138*
Y01802*
X01381*
Y01802*
X01382*
Y01803*
X01382*
Y01803*
X01383*
Y01804*
X01383*
Y01804*
X01385*
Y01804*
G37*
G36*
X01358D02*
Y01803D01*
X01357*
Y01803*
Y01802*
X01358*
Y01803*
X01358*
Y01802*
Y01802*
X01359*
Y01801*
Y01801*
Y018*
X0136*
Y018*
Y018*
X01359*
Y01799*
X01358*
Y01799*
X01358*
Y01798*
X01357*
Y01798*
X01357*
Y01797*
X01356*
Y01797*
X01356*
Y01796*
X01355*
Y01796*
X01355*
Y01796*
X01354*
Y01795*
X01353*
Y01795*
X01353*
Y01795*
X01352*
Y01796*
Y01796*
Y01796*
X01351*
Y01797*
Y01797*
Y01798*
Y01798*
Y01799*
Y01799*
X01351*
Y018*
X01351*
Y018*
X01352*
Y018*
X01353*
Y018*
Y018*
X01352*
Y01801*
X01353*
Y01801*
X01353*
Y01802*
X01354*
Y01802*
X01355*
Y01803*
Y01803*
X01356*
Y01804*
X01357*
Y01804*
X01358*
Y01804*
G37*
G36*
X01378Y01827D02*
X01379D01*
Y01827*
X01378*
Y01826*
Y01826*
X01379*
Y01826*
X0138*
Y01826*
X0138*
Y01826*
X0138*
Y01825*
X01381*
Y01825*
X01381*
Y01824*
X01381*
Y01824*
Y01823*
X01382*
Y01823*
X01383*
Y01822*
Y01822*
X01383*
Y01822*
X01383*
Y01821*
Y01821*
Y0182*
Y0182*
X01384*
Y01819*
Y01819*
X01383*
Y01819*
Y01818*
Y01818*
Y01817*
X01383*
Y01817*
X01383*
Y01816*
X01381*
Y01816*
Y01815*
Y01815*
Y01815*
X0138*
Y01814*
X0138*
Y01814*
X0138*
Y01813*
X01379*
Y01814*
X01379*
Y01814*
X01378*
Y01815*
X01377*
Y01815*
X01376*
Y01815*
X01376*
Y01816*
Y01816*
X01376*
Y01816*
Y01815*
X01375*
Y01816*
X01374*
Y01816*
X01373*
Y01817*
X01373*
Y01817*
X01372*
Y01818*
Y01818*
X01372*
Y01819*
Y01819*
Y01819*
Y0182*
X01372*
Y0182*
Y01821*
Y01821*
Y01822*
Y01822*
X01373*
Y01822*
Y01823*
X01373*
Y01823*
X01374*
Y01824*
Y01824*
X01374*
Y01825*
X01375*
Y01825*
Y01826*
X01375*
Y01826*
X01376*
Y01826*
Y01827*
Y01827*
X01377*
Y01828*
X01378*
Y01827*
G37*
G36*
X0135Y01824D02*
X01349D01*
Y01823*
X0135*
Y01824*
X01351*
Y01823*
X01353*
Y01823*
X01354*
Y01822*
X01356*
Y01822*
X01359*
Y01822*
X0136*
Y01821*
Y01821*
X01361*
Y01821*
Y01822*
X01362*
Y01821*
Y01821*
X01363*
Y01821*
X01364*
Y01821*
X01365*
Y0182*
X01366*
Y0182*
X01366*
Y01819*
X01367*
Y01819*
X01368*
Y01819*
Y01818*
X01368*
Y01818*
X01369*
Y01817*
Y01817*
Y01816*
X01368*
Y01816*
Y01815*
X01368*
Y01815*
X01368*
Y01815*
Y01814*
Y01814*
X01368*
Y01813*
Y01813*
X01368*
Y01812*
Y01812*
X01367*
Y01812*
X01365*
Y01813*
X01363*
Y01813*
Y01814*
X01362*
Y01813*
Y01813*
X01361*
Y01813*
Y01814*
X0136*
Y01813*
Y01813*
X01359*
Y01813*
X01359*
Y01814*
X01358*
Y01814*
X01358*
Y01815*
X01357*
Y01815*
X01357*
Y01815*
X01357*
Y01816*
Y01816*
X01356*
Y01817*
X01356*
Y01817*
X01355*
Y01818*
X01354*
Y01818*
X01354*
Y01819*
X01354*
Y01819*
X01353*
Y01819*
X01352*
Y0182*
X01352*
Y0182*
X01351*
Y01821*
X0135*
Y01821*
X0135*
Y01822*
X01349*
Y01822*
X01348*
Y01822*
X01348*
Y01823*
X01347*
Y01823*
X01347*
Y01824*
Y01824*
X0135*
Y01824*
G37*
G36*
X0137Y01803D02*
Y01803D01*
Y01802*
X01371*
Y01803*
X01372*
Y01802*
X01372*
Y01802*
X01373*
Y01801*
X01373*
Y01801*
X01374*
Y018*
X01374*
Y018*
X01375*
Y018*
X01374*
Y01799*
X01373*
Y01799*
X01373*
Y01798*
X01372*
Y01798*
X01372*
Y01797*
X01372*
Y01797*
X01371*
Y01797*
Y01798*
X0137*
Y01797*
Y01797*
X01371*
Y01796*
X0137*
Y01796*
X0137*
Y01796*
X01369*
Y01795*
X01368*
Y01795*
X01367*
Y01795*
X01366*
Y01796*
X01365*
Y01796*
Y01796*
Y01797*
X01366*
Y01797*
Y01798*
X01365*
Y01797*
X01365*
Y01798*
Y01798*
X01364*
Y01799*
X01364*
Y01799*
X01363*
Y018*
Y018*
X01364*
Y018*
X01365*
Y01801*
X01365*
Y01801*
X01365*
Y01802*
X01366*
Y01802*
X01367*
Y01803*
X01368*
Y01802*
X01368*
Y01803*
Y01803*
X01368*
Y01804*
X0137*
Y01803*
G37*
G36*
X01412Y01781D02*
Y0178D01*
X01412*
Y0178*
X01413*
Y01779*
Y01779*
Y01778*
X01413*
Y01778*
Y01778*
X01414*
Y01777*
Y01777*
X01415*
Y01776*
X01415*
Y01776*
X01416*
Y01775*
Y01775*
Y01774*
Y01774*
X01415*
Y01774*
Y01773*
X01416*
Y01773*
Y01772*
Y01772*
X01415*
Y01771*
Y01771*
Y0177*
Y0177*
Y0177*
X01415*
Y01769*
Y01769*
Y01768*
Y01768*
Y01767*
Y01767*
X01414*
Y01767*
Y01766*
Y01766*
Y01765*
Y01765*
X01414*
Y01764*
X01413*
Y01765*
X01412*
Y01765*
Y01766*
Y01766*
X01412*
Y01767*
Y01767*
X01411*
Y01767*
Y01768*
Y01768*
X01411*
Y01769*
X0141*
Y01769*
Y0177*
X0141*
Y0177*
Y0177*
X01409*
Y01771*
X01409*
Y01771*
Y01772*
X01409*
Y01772*
X01408*
Y01773*
X01408*
Y01773*
X01408*
Y01774*
Y01774*
X01409*
Y01774*
Y01775*
Y01775*
Y01776*
Y01776*
X01409*
Y01777*
Y01777*
Y01778*
X01409*
Y01778*
Y01778*
X01411*
Y01779*
Y01779*
X0141*
Y0178*
Y0178*
X01411*
Y01781*
Y01781*
X01412*
Y01781*
G37*
G36*
X01339Y01741D02*
Y01741D01*
X01339*
Y01741*
X01339*
Y0174*
X01339*
Y0174*
X01339*
Y01739*
Y01739*
X01339*
Y01738*
X0134*
Y01738*
Y01737*
X0134*
Y01737*
X01341*
Y01737*
Y01736*
X01341*
Y01736*
Y01735*
X01342*
Y01735*
X01342*
Y01734*
X01341*
Y01734*
Y01733*
X01342*
Y01733*
Y01733*
Y01732*
Y01732*
X01341*
Y01731*
Y01731*
X01342*
Y0173*
X01342*
Y0173*
Y01729*
Y01729*
Y01729*
Y01728*
Y01728*
X01342*
Y01728*
Y01729*
Y01729*
X01341*
Y01729*
X01341*
Y0173*
X0134*
Y0173*
X0134*
Y01731*
X01339*
Y01731*
Y01732*
X01339*
Y01732*
Y01733*
X01339*
Y01733*
Y01733*
X01339*
Y01734*
Y01734*
X01339*
Y01735*
Y01735*
Y01736*
Y01736*
X01339*
Y01737*
Y01737*
X01339*
Y01737*
Y01738*
X01338*
Y01738*
Y01739*
Y01739*
Y0174*
Y0174*
Y01741*
Y01741*
Y01741*
Y01742*
X01339*
Y01741*
G37*
G36*
X01397Y01731D02*
Y01731D01*
X01398*
Y0173*
X01398*
Y0173*
X01398*
Y01729*
Y01729*
X01399*
Y01729*
X01399*
Y01728*
X014*
Y01728*
Y01727*
Y01727*
Y01726*
X01399*
Y01726*
Y01726*
X01401*
Y01725*
X014*
Y01725*
X014*
Y01724*
X01399*
Y01724*
X01399*
Y01723*
X01398*
Y01723*
X01398*
Y01723*
Y01724*
X01397*
Y01723*
Y01723*
X01398*
Y01722*
X01397*
Y01722*
X01397*
Y01722*
X01396*
Y01721*
X01395*
Y01721*
X01395*
Y01721*
X01394*
Y01721*
Y0172*
Y0172*
X01393*
Y0172*
X01392*
Y01721*
Y01721*
X01391*
Y01722*
Y01722*
X01391*
Y01722*
X01391*
Y01723*
Y01723*
X0139*
Y01724*
X0139*
Y01724*
X01389*
Y01725*
X01389*
Y01725*
X01388*
Y01726*
X01388*
Y01726*
X01388*
Y01726*
X0139*
Y01726*
X0139*
Y01726*
X01391*
Y01727*
Y01727*
X01391*
Y01728*
X01391*
Y01728*
X01392*
Y01729*
X01393*
Y01729*
X01393*
Y01729*
X01394*
Y0173*
X01394*
Y0173*
X01394*
Y01731*
X01395*
Y01731*
X01396*
Y01732*
X01397*
Y01731*
G37*
G36*
X01345Y0173D02*
X01346D01*
Y0173*
X01346*
Y01729*
X01346*
Y01729*
Y01729*
Y01728*
X01348*
Y01728*
X01348*
Y01727*
X01349*
Y01727*
X01349*
Y01726*
Y01726*
Y01726*
X01351*
Y01725*
X0135*
Y01725*
Y01724*
Y01724*
Y01723*
Y01723*
Y01722*
Y01722*
Y01722*
Y01721*
Y01721*
Y0172*
X0135*
Y01721*
Y01721*
X01349*
Y01721*
X01349*
Y01721*
X01348*
Y01722*
Y01722*
X01347*
Y01722*
X01346*
Y01723*
X01346*
Y01723*
Y01724*
X01346*
Y01724*
X01345*
Y01725*
X01345*
Y01725*
X01344*
Y01726*
X01345*
Y01726*
Y01726*
Y01727*
Y01727*
Y01728*
X01344*
Y01728*
X01345*
Y01729*
Y01729*
X01344*
Y01729*
Y0173*
Y0173*
X01344*
Y01731*
X01345*
Y0173*
G37*
G36*
X01348Y01742D02*
X01349D01*
Y01742*
Y01741*
X01349*
Y01741*
X0135*
Y01741*
X0135*
Y0174*
Y0174*
X01351*
Y01739*
X01351*
Y01739*
X01352*
Y01738*
X01352*
Y01738*
X01353*
Y01737*
X01353*
Y01737*
Y01737*
X01354*
Y01736*
Y01736*
X01354*
Y01735*
X01355*
Y01736*
X01356*
Y01735*
X01356*
Y01735*
X01355*
Y01734*
X01354*
Y01734*
Y01733*
Y01733*
X01354*
Y01733*
Y01732*
X01354*
Y01732*
Y01731*
X01353*
Y01731*
Y0173*
Y0173*
X01353*
Y01729*
Y01729*
X01352*
Y01729*
Y01728*
Y01728*
X0135*
Y01728*
Y01729*
Y01729*
X01349*
Y01729*
X01348*
Y0173*
X01349*
Y0173*
X01348*
Y01731*
X01347*
Y01731*
Y01732*
X01347*
Y01732*
X01346*
Y01733*
Y01733*
X01346*
Y01733*
X01346*
Y01734*
X01345*
Y01734*
X01345*
Y01735*
Y01735*
X01345*
Y01736*
Y01736*
Y01737*
Y01737*
Y01737*
Y01738*
Y01738*
X01346*
Y01739*
Y01739*
X01346*
Y0174*
Y0174*
X01346*
Y01741*
Y01741*
Y01741*
X01347*
Y01742*
Y01742*
Y01743*
X01348*
Y01742*
G37*
G36*
X01378Y01731D02*
X01378D01*
Y01731*
X01379*
Y0173*
X0138*
Y0173*
X0138*
Y01729*
X0138*
Y01729*
X01381*
Y01729*
Y01728*
X01382*
Y01728*
X01382*
Y01727*
X01383*
Y01727*
X01383*
Y01726*
Y01726*
X01383*
Y01726*
X01385*
Y01726*
X01385*
Y01726*
Y01725*
X01384*
Y01725*
Y01724*
X01383*
Y01724*
X01383*
Y01723*
X01382*
Y01724*
X01381*
Y01723*
Y01723*
X01381*
Y01722*
X01381*
Y01722*
X0138*
Y01722*
X0138*
Y01721*
X01378*
Y01721*
Y0172*
Y0172*
X01376*
Y0172*
X01376*
Y01721*
Y01721*
X01376*
Y01721*
X01375*
Y01721*
X01375*
Y01722*
X01374*
Y01722*
X01374*
Y01722*
X01373*
Y01723*
X01374*
Y01723*
Y01724*
X01373*
Y01723*
Y01723*
X01372*
Y01723*
X01372*
Y01724*
X01372*
Y01724*
X0137*
Y01725*
X0137*
Y01725*
X01369*
Y01726*
X01371*
Y01726*
Y01726*
Y01727*
Y01727*
X01372*
Y01728*
X01372*
Y01728*
X01372*
Y01729*
X01373*
Y01728*
X01374*
Y01729*
Y01729*
X01373*
Y01729*
X01374*
Y0173*
X01375*
Y0173*
X01375*
Y01731*
Y01731*
X01376*
Y01731*
X01376*
Y01731*
Y01732*
X01378*
Y01731*
G37*
G36*
X01358D02*
X01359D01*
Y01731*
X01359*
Y0173*
X0136*
Y0173*
X0136*
Y01729*
X01361*
Y01729*
X01361*
Y01729*
X01362*
Y01728*
X01363*
Y01728*
X01363*
Y01727*
X01364*
Y01727*
Y01726*
X01364*
Y01726*
X01365*
Y01726*
X01365*
Y01725*
X01365*
Y01725*
X01365*
Y01724*
X01365*
Y01725*
X01365*
Y01724*
Y01724*
Y01723*
X01364*
Y01723*
X01364*
Y01722*
X01363*
Y01722*
Y01722*
X01363*
Y01721*
X01362*
Y01721*
Y0172*
X01361*
Y01721*
Y01721*
X0136*
Y01721*
X01359*
Y01721*
X01358*
Y01722*
X01358*
Y01722*
X01357*
Y01722*
X01357*
Y01723*
X01357*
Y01723*
X01356*
Y01724*
X01355*
Y01724*
X01355*
Y01725*
X01354*
Y01725*
X01354*
Y01726*
X01354*
Y01726*
Y01726*
X01354*
Y01726*
Y01726*
X01355*
Y01726*
Y01726*
X01354*
Y01727*
Y01727*
Y01728*
Y01728*
X01355*
Y01729*
Y01729*
Y01729*
X01356*
Y0173*
X01356*
Y0173*
Y01731*
X01357*
Y01731*
X01357*
Y01731*
X01358*
Y01731*
Y01732*
X01358*
Y01731*
G37*
G36*
X01409Y01731D02*
X0141D01*
Y0173*
Y0173*
Y01729*
Y01729*
Y01729*
Y01728*
Y01728*
Y01727*
Y01727*
Y01726*
Y01726*
Y01726*
Y01725*
X01409*
Y01725*
X01409*
Y01724*
X01409*
Y01724*
Y01723*
X01408*
Y01724*
X01407*
Y01723*
Y01723*
Y01722*
Y01722*
X01407*
Y01722*
X01406*
Y01721*
X01406*
Y01721*
X01406*
Y01721*
X01405*
Y01721*
Y0172*
X01404*
Y01721*
Y01721*
Y01722*
X01404*
Y01722*
Y01722*
Y01723*
Y01723*
Y01724*
X01404*
Y01724*
Y01725*
Y01725*
X01403*
Y01726*
Y01726*
X01404*
Y01726*
X01404*
Y01726*
X01405*
Y01726*
X01406*
Y01726*
Y01726*
X01405*
Y01727*
X01406*
Y01727*
Y01728*
X01406*
Y01728*
X01406*
Y01729*
X01407*
Y01729*
X01407*
Y01729*
Y01728*
X01408*
Y01729*
Y01729*
X01407*
Y01729*
X01408*
Y0173*
X01408*
Y0173*
X01409*
Y01731*
X01409*
Y01731*
X01409*
Y01731*
G37*
G36*
X01368Y01722D02*
X01369D01*
Y01722*
X0137*
Y01722*
X01371*
Y01721*
X0137*
Y01721*
Y0172*
X01371*
Y01721*
Y01721*
X01372*
Y01721*
X01372*
Y0172*
X01373*
Y0172*
X01373*
Y01719*
X01374*
Y01719*
Y01718*
X01376*
Y01718*
X01375*
Y01718*
X01375*
Y01717*
X01374*
Y01717*
X01374*
Y01716*
X01373*
Y01716*
Y01715*
X01372*
Y01715*
X01372*
Y01715*
X01372*
Y01714*
X01371*
Y01714*
X01369*
Y01714*
X01368*
Y01715*
X01368*
Y01715*
X01367*
Y01715*
X01367*
Y01716*
X01366*
Y01716*
X01365*
Y01717*
X01365*
Y01717*
X01364*
Y01718*
X01364*
Y01718*
X01363*
Y01718*
X01364*
Y01719*
Y01719*
Y0172*
X01365*
Y0172*
X01366*
Y01721*
Y01721*
Y01722*
X01366*
Y01722*
X01367*
Y01722*
X01367*
Y01723*
X01368*
Y01722*
G37*
G36*
X01353Y01723D02*
X01354D01*
Y01722*
X01354*
Y01722*
X01355*
Y01722*
X01356*
Y01721*
X01356*
Y01721*
X01357*
Y0172*
X01357*
Y0172*
Y01719*
X01358*
Y01719*
X01358*
Y01718*
X01359*
Y01718*
X0136*
Y01718*
X0136*
Y01717*
X0136*
Y01717*
Y01716*
Y01716*
X01359*
Y01715*
Y01715*
Y01715*
Y01714*
Y01714*
X01358*
Y01714*
X01357*
Y01715*
X01357*
Y01715*
X01356*
Y01715*
X01355*
Y01716*
X01355*
Y01716*
X01354*
Y01717*
X01354*
Y01717*
X01353*
Y01718*
X01353*
Y01718*
Y01718*
X01352*
Y01719*
Y01719*
Y0172*
Y0172*
X01353*
Y01721*
Y01721*
X01352*
Y01722*
Y01722*
X01353*
Y01722*
Y01723*
Y01723*
X01353*
Y01723*
G37*
G36*
X01392Y01716D02*
X01391D01*
Y01715*
Y01715*
X01392*
Y01715*
X01393*
Y01715*
Y01715*
X01393*
Y01714*
Y01714*
X01394*
Y01713*
X01393*
Y01713*
X01392*
Y01713*
X01391*
Y01713*
Y01712*
X01391*
Y01712*
X0139*
Y01711*
X01387*
Y01711*
X01386*
Y01711*
X01385*
Y01712*
Y01712*
X01386*
Y01713*
X01386*
Y01712*
X01387*
Y01713*
Y01713*
Y01714*
X01387*
Y01714*
X01388*
Y01715*
X01389*
Y01715*
X0139*
Y01715*
X0139*
Y01716*
X01391*
Y01716*
X01392*
Y01716*
G37*
G36*
X01364Y01715D02*
X01365D01*
Y01715*
X01365*
Y01715*
X01366*
Y01714*
X01366*
Y01714*
X01367*
Y01713*
X01368*
Y01713*
Y01712*
X01369*
Y01712*
Y01711*
X01368*
Y01711*
X01367*
Y01711*
X01365*
Y01712*
X01363*
Y01712*
Y01713*
Y01713*
X01362*
Y01713*
Y01712*
X01362*
Y01713*
X01361*
Y01713*
Y01714*
Y01714*
Y01715*
X01361*
Y01715*
Y01715*
X01362*
Y01716*
X01362*
Y01715*
Y01715*
X01363*
Y01715*
Y01716*
X01364*
Y01715*
G37*
G36*
X01401Y01723D02*
X01402D01*
Y01722*
Y01722*
X01402*
Y01722*
Y01721*
Y01721*
Y0172*
X01402*
Y0172*
Y01719*
Y01719*
Y01718*
X01402*
Y01718*
Y01718*
X01402*
Y01717*
X01401*
Y01717*
X014*
Y01716*
X014*
Y01716*
X01399*
Y01715*
X01398*
Y01715*
X01398*
Y01715*
Y01716*
X01397*
Y01715*
Y01715*
X01398*
Y01715*
X01397*
Y01714*
X01396*
Y01714*
X01395*
Y01714*
X01395*
Y01715*
Y01715*
Y01715*
Y01716*
Y01716*
X01394*
Y01717*
Y01717*
Y01718*
X01395*
Y01718*
Y01718*
Y01719*
X01396*
Y01719*
X01396*
Y0172*
Y0172*
X01398*
Y01721*
Y01721*
X01398*
Y01722*
X01399*
Y01722*
X01399*
Y01722*
X014*
Y01723*
X01401*
Y01723*
X01401*
Y01723*
G37*
G36*
X01387Y01722D02*
Y01722D01*
X01388*
Y01722*
X01388*
Y01721*
X01389*
Y01721*
Y0172*
X0139*
Y0172*
X0139*
Y01719*
Y01719*
Y01718*
X01391*
Y01718*
X01391*
Y01718*
X0139*
Y01717*
X01389*
Y01717*
X01389*
Y01716*
X01388*
Y01716*
X01388*
Y01715*
X01387*
Y01715*
X01387*
Y01715*
Y01716*
X01386*
Y01715*
Y01715*
X01387*
Y01715*
X01386*
Y01714*
X01385*
Y01714*
X01383*
Y01714*
X01383*
Y01715*
X01382*
Y01715*
Y01715*
X01382*
Y01716*
X01381*
Y01716*
X01381*
Y01717*
X0138*
Y01717*
X0138*
Y01718*
X01379*
Y01718*
Y01718*
X0138*
Y01719*
X0138*
Y01719*
X01381*
Y0172*
X01381*
Y0172*
X01382*
Y01721*
X01382*
Y01721*
X01383*
Y01722*
X01384*
Y01722*
X01385*
Y01722*
X01385*
Y01723*
X01387*
Y01722*
G37*
G36*
X01378Y01716D02*
X01378D01*
Y01715*
Y01715*
X0138*
Y01715*
X0138*
Y01714*
X0138*
Y01714*
X01381*
Y01713*
Y01713*
Y01712*
X01382*
Y01712*
X01381*
Y01711*
X01381*
Y01711*
X0138*
Y01711*
X01374*
Y01711*
X01374*
Y01711*
X01373*
Y01712*
X01372*
Y01712*
Y01713*
X01373*
Y01712*
X01374*
Y01713*
Y01713*
X01373*
Y01714*
X01373*
Y01714*
X01374*
Y01715*
X01375*
Y01715*
Y01715*
X01376*
Y01715*
X01376*
Y01715*
Y01716*
Y01716*
X01378*
Y01716*
G37*
G36*
X01416Y01741D02*
Y01741D01*
Y01741*
Y0174*
Y0174*
X01415*
Y01739*
Y01739*
X01416*
Y01738*
X01416*
Y01738*
Y01737*
Y01737*
X01415*
Y01737*
Y01736*
X01416*
Y01736*
Y01735*
Y01735*
Y01734*
X01415*
Y01734*
Y01733*
X01416*
Y01733*
X01415*
Y01733*
X01415*
Y01732*
X01414*
Y01732*
X01414*
Y01731*
X01413*
Y01732*
X01413*
Y01731*
Y01731*
X01413*
Y0173*
X01413*
Y0173*
Y01729*
X01413*
Y01729*
X01412*
Y01729*
Y01728*
X01412*
Y01729*
Y01729*
Y01729*
Y0173*
Y0173*
X01412*
Y01731*
Y01731*
Y01732*
Y01732*
Y01733*
Y01733*
Y01733*
Y01734*
Y01734*
X01412*
Y01735*
Y01735*
X01413*
Y01736*
Y01736*
X01413*
Y01737*
Y01737*
X01414*
Y01737*
Y01738*
Y01738*
X01414*
Y01739*
X01415*
Y01739*
Y0174*
Y0174*
X01415*
Y01741*
Y01741*
X01416*
Y01741*
Y01742*
X01416*
Y01741*
G37*
G36*
X01389Y01769D02*
X01389D01*
Y01769*
X01389*
Y01768*
Y01768*
X0139*
Y01768*
X0139*
Y01768*
X01391*
Y01767*
X01391*
Y01767*
X01391*
Y01767*
X01392*
Y01766*
X01391*
Y01766*
Y01765*
X01392*
Y01766*
X01393*
Y01765*
X01393*
Y01765*
X01394*
Y01764*
Y01764*
X01394*
Y01763*
X01394*
Y01763*
Y01763*
X01394*
Y01762*
X01395*
Y01762*
Y01761*
Y01761*
X01394*
Y0176*
Y0176*
X01395*
Y0176*
X01395*
Y01761*
X01397*
Y0176*
Y0176*
Y01759*
X01396*
Y01759*
X01396*
Y01759*
X01395*
Y01758*
X01394*
Y01758*
Y01757*
X01394*
Y01757*
Y01756*
X01394*
Y01756*
X01394*
Y01755*
Y01755*
X01393*
Y01755*
Y01754*
X01393*
Y01754*
X01392*
Y01753*
Y01753*
X01391*
Y01752*
Y01752*
Y01752*
X01391*
Y01751*
X01391*
Y01751*
X0139*
Y0175*
X01389*
Y0175*
X01387*
Y0175*
X01387*
Y01751*
X01386*
Y01751*
X01386*
Y01752*
Y01752*
Y01752*
X01385*
Y01753*
Y01753*
Y01754*
X01384*
Y01754*
X01384*
Y01755*
X01384*
Y01755*
Y01755*
X01383*
Y01756*
X01383*
Y01756*
Y01757*
X01382*
Y01757*
X01382*
Y01758*
Y01758*
X01381*
Y01759*
X01381*
Y01759*
X0138*
Y01759*
X0138*
Y0176*
X01379*
Y0176*
Y01761*
X01378*
Y01761*
X01379*
Y01761*
X01381*
Y0176*
Y0176*
X01382*
Y0176*
Y01761*
X01381*
Y01761*
X01381*
Y01762*
Y01762*
X01382*
Y01763*
Y01763*
Y01763*
X01382*
Y01764*
Y01764*
X01383*
Y01765*
X01383*
Y01765*
X01384*
Y01766*
Y01766*
Y01767*
X01385*
Y01767*
X01385*
Y01767*
X01386*
Y01768*
X01387*
Y01768*
Y01769*
Y01769*
X01387*
Y0177*
X01389*
Y01769*
G37*
G36*
X01356Y01755D02*
X01356D01*
Y01755*
X01357*
Y01755*
X01357*
Y01754*
Y01754*
X01357*
Y01753*
X01358*
Y01753*
X01357*
Y01752*
Y01752*
X01358*
Y01752*
X01358*
Y01752*
X01359*
Y01752*
X01359*
Y01751*
X0136*
Y01751*
Y0175*
Y0175*
Y01749*
X01361*
Y01749*
X01361*
Y01748*
Y01748*
X01362*
Y01748*
Y01747*
Y01747*
X01363*
Y01747*
X01365*
Y01747*
X01364*
Y01746*
X01364*
Y01746*
X01363*
Y01745*
X01363*
Y01745*
X01362*
Y01744*
X01362*
Y01744*
Y01744*
X01361*
Y01743*
X01361*
Y01743*
X01361*
Y01742*
X0136*
Y01742*
Y01741*
Y01741*
Y01741*
X01359*
Y0174*
X01359*
Y0174*
Y01739*
Y01739*
X01358*
Y01738*
X01358*
Y01738*
X01355*
Y01738*
X01355*
Y01739*
X01355*
Y01739*
Y0174*
X01354*
Y01739*
X01354*
Y0174*
Y0174*
X01354*
Y01741*
X01353*
Y01741*
Y01741*
X01353*
Y01742*
Y01742*
X01352*
Y01743*
X01351*
Y01743*
X01351*
Y01744*
Y01744*
X0135*
Y01744*
X0135*
Y01745*
Y01745*
X01349*
Y01746*
Y01746*
Y01747*
X0135*
Y01747*
Y01748*
Y01748*
Y01748*
Y01749*
X0135*
Y01749*
Y0175*
X01351*
Y0175*
Y01751*
X01351*
Y01751*
X01352*
Y01752*
Y01752*
X01353*
Y01752*
Y01753*
X01353*
Y01753*
Y01754*
X01354*
Y01754*
X01354*
Y01755*
Y01755*
X01354*
Y01755*
X01355*
Y01755*
Y01755*
X01355*
Y01756*
X01356*
Y01755*
G37*
G36*
X01338Y01766D02*
X01338D01*
Y01765*
Y01765*
X01339*
Y01764*
X01338*
Y01764*
X01339*
Y01763*
Y01763*
Y01763*
Y01762*
Y01762*
Y01761*
X01339*
Y01761*
X01339*
Y0176*
Y0176*
X01339*
Y01759*
Y01759*
Y01759*
X01339*
Y01758*
Y01758*
Y01757*
Y01757*
X01338*
Y01756*
Y01756*
Y01755*
X01338*
Y01755*
X01338*
Y01755*
Y01754*
X01338*
Y01754*
Y01753*
Y01753*
Y01752*
Y01752*
Y01752*
X01337*
Y01751*
Y01751*
Y0175*
X01337*
Y0175*
X01336*
Y0175*
Y01751*
Y01751*
Y01752*
Y01752*
X01337*
Y01752*
Y01753*
X01336*
Y01753*
X01336*
Y01754*
Y01754*
Y01755*
X01337*
Y01755*
Y01755*
X01336*
Y01755*
X01335*
Y01755*
Y01756*
Y01756*
Y01757*
X01335*
Y01757*
Y01758*
Y01758*
Y01759*
X01335*
Y01759*
X01335*
Y01759*
Y0176*
X01335*
Y0176*
Y01761*
Y01761*
X01336*
Y01762*
Y01762*
Y01763*
X01337*
Y01763*
Y01763*
X01336*
Y01764*
X01337*
Y01764*
Y01765*
X01337*
Y01765*
Y01766*
Y01766*
X01338*
Y01766*
G37*
G36*
X01407Y01769D02*
X01407D01*
Y01769*
Y01768*
Y01768*
X01408*
Y01767*
X01409*
Y01767*
Y01767*
X01409*
Y01766*
X01409*
Y01766*
X0141*
Y01765*
X0141*
Y01765*
Y01764*
X01411*
Y01764*
Y01763*
X0141*
Y01763*
Y01763*
X01411*
Y01763*
X01411*
Y01763*
Y01762*
Y01762*
Y01761*
X01412*
Y01761*
X01412*
Y01761*
X01413*
Y01761*
Y0176*
Y0176*
X01412*
Y01759*
Y01759*
Y01759*
X01412*
Y01758*
Y01758*
X01411*
Y01757*
Y01757*
X01411*
Y01756*
Y01756*
Y01755*
X0141*
Y01755*
Y01755*
Y01754*
Y01754*
X01409*
Y01753*
Y01753*
X01409*
Y01752*
Y01752*
Y01752*
X01409*
Y01751*
Y01751*
X01408*
Y0175*
X01407*
Y0175*
X01406*
Y0175*
X01406*
Y01751*
Y01751*
X01405*
Y01752*
Y01752*
X01406*
Y01752*
Y01753*
X01405*
Y01753*
Y01754*
X01404*
Y01754*
Y01755*
X01404*
Y01755*
Y01755*
X01403*
Y01756*
Y01756*
X01403*
Y01757*
Y01757*
Y01758*
Y01758*
X01402*
Y01759*
X01402*
Y01759*
X01401*
Y01759*
Y0176*
X014*
Y0176*
Y01761*
X014*
Y01761*
X014*
Y01761*
X01402*
Y0176*
Y0176*
X01403*
Y0176*
Y01761*
X01402*
Y01761*
Y01762*
Y01762*
Y01763*
X01403*
Y01763*
Y01763*
X01402*
Y01764*
X01403*
Y01764*
Y01765*
X01403*
Y01765*
X01404*
Y01766*
Y01766*
X01404*
Y01767*
X01405*
Y01767*
X01405*
Y01767*
Y01768*
X01406*
Y01768*
Y01769*
X01406*
Y01769*
Y0177*
X01407*
Y01769*
G37*
G36*
X01366D02*
X01367D01*
Y01769*
X01367*
Y01768*
X01368*
Y01768*
X01368*
Y01767*
X01368*
Y01767*
X01369*
Y01767*
X01369*
Y01766*
X0137*
Y01766*
Y01765*
X01371*
Y01765*
X01371*
Y01764*
X01372*
Y01764*
Y01763*
X01372*
Y01763*
Y01763*
X01372*
Y01762*
Y01762*
X01373*
Y01761*
Y01761*
Y0176*
Y0176*
X01374*
Y0176*
Y01761*
X01375*
Y01761*
X01376*
Y01761*
Y0176*
X01375*
Y0176*
X01375*
Y01759*
X01374*
Y01759*
X01373*
Y01759*
X01373*
Y01758*
Y01758*
X01372*
Y01757*
X01372*
Y01757*
X01372*
Y01756*
Y01756*
X01371*
Y01755*
X0137*
Y01755*
Y01755*
Y01754*
X0137*
Y01754*
X01369*
Y01753*
Y01753*
X01369*
Y01752*
X01368*
Y01753*
X01368*
Y01752*
Y01752*
X01368*
Y01752*
X01368*
Y01751*
Y01751*
X01368*
Y0175*
X01367*
Y0175*
X01366*
Y0175*
X01365*
Y0175*
X01365*
Y0175*
X01364*
Y01751*
X01363*
Y01751*
Y01752*
X01363*
Y01752*
X01363*
Y01752*
Y01753*
X01362*
Y01753*
X01361*
Y01754*
Y01754*
X01361*
Y01755*
X01361*
Y01755*
Y01755*
X0136*
Y01756*
X0136*
Y01756*
Y01757*
X01359*
Y01757*
Y01758*
X01359*
Y01758*
X01358*
Y01759*
Y01759*
X01358*
Y01759*
X01357*
Y0176*
X01358*
Y0176*
Y01761*
X01358*
Y01761*
X01359*
Y01762*
Y01762*
X01359*
Y01763*
Y01763*
Y01763*
X0136*
Y01763*
Y01763*
X01361*
Y01763*
Y01763*
X0136*
Y01764*
X0136*
Y01764*
Y01765*
X01361*
Y01765*
X01361*
Y01766*
X01361*
Y01766*
X01362*
Y01767*
X01362*
Y01767*
X01363*
Y01767*
X01363*
Y01768*
X01364*
Y01768*
X01364*
Y01769*
X01365*
Y01769*
X01365*
Y0177*
X01366*
Y01769*
G37*
G36*
X01357Y01761D02*
X01357D01*
Y0176*
X01357*
Y01761*
Y01761*
X01357*
Y01761*
G37*
G36*
X01417Y01765D02*
Y01764D01*
Y01764*
Y01763*
Y01763*
X01417*
Y01763*
Y01762*
Y01762*
Y01761*
X01417*
Y01761*
X01418*
Y0176*
Y0176*
X01419*
Y01759*
Y01759*
Y01759*
Y01758*
X01418*
Y01758*
Y01757*
X01419*
Y01757*
Y01756*
X01418*
Y01756*
Y01755*
X01418*
Y01755*
Y01755*
Y01754*
Y01754*
Y01753*
X01417*
Y01753*
Y01752*
Y01752*
Y01752*
X01417*
Y01751*
Y01751*
Y0175*
X01417*
Y01751*
Y01751*
Y01752*
X01416*
Y01752*
Y01752*
Y01753*
Y01753*
Y01754*
Y01754*
Y01755*
Y01755*
Y01755*
X01416*
Y01756*
Y01756*
Y01757*
Y01757*
X01416*
Y01758*
Y01758*
X01415*
Y01759*
X01415*
Y01759*
Y01759*
Y0176*
Y0176*
X01414*
Y01761*
X01415*
Y0176*
Y0176*
X01416*
Y0176*
Y01761*
X01416*
Y01761*
Y01762*
Y01762*
Y01763*
X01416*
Y01763*
Y01763*
X01416*
Y01764*
Y01764*
Y01765*
Y01765*
X01417*
Y01765*
G37*
G36*
X01414Y01755D02*
Y01755D01*
Y01755*
Y01754*
Y01754*
X01414*
Y01753*
Y01753*
Y01752*
Y01752*
Y01752*
X01415*
Y01751*
Y01751*
Y0175*
Y0175*
X01415*
Y01749*
Y01749*
Y01748*
Y01748*
X01416*
Y01748*
X01415*
Y01747*
Y01747*
X01416*
Y01746*
X01416*
Y01746*
Y01745*
Y01745*
X01415*
Y01744*
Y01744*
X01415*
Y01744*
Y01743*
Y01743*
X01414*
Y01742*
Y01742*
X01414*
Y01741*
Y01741*
X01413*
Y01741*
Y0174*
Y0174*
X01413*
Y01739*
Y01739*
Y01738*
X01412*
Y01738*
X01411*
Y01738*
X01411*
Y01739*
Y01739*
Y0174*
X0141*
Y0174*
Y01741*
Y01741*
Y01741*
X01411*
Y01742*
Y01742*
X0141*
Y01743*
X01409*
Y01743*
Y01744*
Y01744*
X01409*
Y01744*
Y01745*
Y01745*
X01409*
Y01746*
Y01746*
X01408*
Y01747*
X01409*
Y01747*
X01409*
Y01748*
Y01748*
Y01748*
X0141*
Y01749*
Y01749*
X01411*
Y0175*
Y0175*
X0141*
Y01751*
X01411*
Y01751*
Y01752*
X01411*
Y01752*
X01412*
Y01752*
Y01753*
X01412*
Y01753*
Y01754*
X01413*
Y01754*
Y01755*
X01413*
Y01755*
Y01755*
Y01756*
X01414*
Y01755*
G37*
G36*
X01389Y01742D02*
Y01742D01*
Y01741*
X0139*
Y01741*
X01391*
Y01741*
X01391*
Y0174*
X01391*
Y0174*
Y01739*
Y01739*
X01393*
Y01738*
Y01738*
X01393*
Y01737*
X01394*
Y01737*
Y01737*
X01394*
Y01736*
Y01736*
X01394*
Y01735*
X01395*
Y01736*
X01396*
Y01735*
X01396*
Y01735*
X01395*
Y01734*
X01394*
Y01734*
Y01733*
X01394*
Y01733*
X01393*
Y01733*
X01393*
Y01732*
X01392*
Y01732*
X01391*
Y01731*
Y01731*
X01391*
Y0173*
X01391*
Y0173*
X0139*
Y01729*
X0139*
Y01729*
X01389*
Y01729*
Y01728*
X01388*
Y01728*
X01386*
Y01728*
X01385*
Y01729*
X01385*
Y01729*
X01384*
Y01729*
X01384*
Y0173*
Y0173*
X01383*
Y01731*
X01383*
Y01731*
X01383*
Y01732*
X01382*
Y01732*
Y01733*
X01382*
Y01733*
X01381*
Y01733*
X0138*
Y01734*
X0138*
Y01734*
X0138*
Y01735*
X01379*
Y01735*
Y01736*
X0138*
Y01735*
X01381*
Y01736*
X01381*
Y01736*
X01382*
Y01737*
Y01737*
Y01737*
X01382*
Y01738*
X01383*
Y01738*
X01383*
Y01739*
X01384*
Y01739*
Y0174*
Y0174*
X01385*
Y01741*
X01386*
Y01741*
Y01741*
X01387*
Y01742*
Y01742*
Y01743*
X01389*
Y01742*
G37*
G36*
X01407D02*
Y01742D01*
X01407*
Y01741*
Y01741*
X01408*
Y01741*
Y0174*
X01408*
Y0174*
X01407*
Y01739*
Y01739*
X01408*
Y01739*
X01409*
Y01739*
Y01738*
Y01738*
X01409*
Y01737*
Y01737*
Y01737*
Y01736*
Y01736*
Y01735*
X0141*
Y01735*
X01409*
Y01734*
X01409*
Y01734*
X01409*
Y01733*
X01408*
Y01734*
Y01734*
X01407*
Y01734*
Y01733*
X01408*
Y01733*
Y01733*
X01408*
Y01732*
X01407*
Y01732*
X01407*
Y01731*
X01406*
Y01731*
Y0173*
X01406*
Y0173*
X01406*
Y01729*
X01405*
Y01729*
X01405*
Y01729*
Y01728*
X01404*
Y01728*
X01402*
Y01728*
X01403*
Y01729*
Y01729*
X01402*
Y01729*
Y0173*
X01401*
Y0173*
Y01731*
Y01731*
X01401*
Y01732*
Y01732*
X014*
Y01733*
Y01733*
X014*
Y01733*
X014*
Y01734*
Y01734*
X01399*
Y01735*
X01398*
Y01735*
X014*
Y01736*
Y01736*
X01401*
Y01737*
Y01737*
X01401*
Y01737*
Y01738*
X01402*
Y01738*
X01402*
Y01739*
X01403*
Y01739*
Y0174*
X01403*
Y0174*
X01404*
Y01741*
X01404*
Y01741*
X01405*
Y01741*
X01406*
Y01742*
Y01742*
Y01743*
X01407*
Y01742*
G37*
G36*
X01366D02*
X01367D01*
Y01742*
X01367*
Y01741*
X01368*
Y01741*
X01368*
Y01741*
X01369*
Y0174*
X01369*
Y0174*
X0137*
Y01739*
Y01739*
X01371*
Y01738*
X01372*
Y01738*
X01372*
Y01737*
X01372*
Y01737*
Y01737*
X01373*
Y01736*
Y01736*
Y01735*
Y01735*
X01373*
Y01735*
X01375*
Y01736*
X01376*
Y01735*
X01375*
Y01735*
Y01734*
X01374*
Y01734*
X01374*
Y01734*
X01373*
Y01734*
Y01733*
X01373*
Y01733*
X01373*
Y01733*
X01372*
Y01732*
X01372*
Y01732*
X01372*
Y01731*
X01371*
Y01732*
X0137*
Y01731*
Y01731*
X01371*
Y0173*
Y0173*
X0137*
Y01729*
X0137*
Y01729*
X01369*
Y01729*
X01369*
Y01728*
X01368*
Y01729*
Y01729*
X01368*
Y01729*
Y01728*
X01368*
Y01728*
X01366*
Y01728*
Y01729*
Y01729*
X01365*
Y01729*
X01364*
Y0173*
X01364*
Y0173*
X01363*
Y01731*
Y01731*
Y01732*
X01362*
Y01732*
X01361*
Y01733*
X01361*
Y01733*
X01361*
Y01733*
Y01734*
Y01734*
X0136*
Y01734*
X01359*
Y01734*
X01359*
Y01735*
X01358*
Y01735*
X01358*
Y01736*
X01359*
Y01735*
X0136*
Y01736*
Y01736*
X01361*
Y01737*
Y01737*
Y01737*
Y01738*
X01361*
Y01738*
X01361*
Y01739*
X01362*
Y01739*
X01362*
Y01739*
X01363*
Y01739*
Y0174*
X01363*
Y0174*
X01363*
Y01741*
X01364*
Y01741*
X01364*
Y01741*
Y01742*
X01365*
Y01742*
X01365*
Y01742*
Y01741*
X01366*
Y01742*
Y01742*
X01365*
Y01743*
X01366*
Y01742*
G37*
G36*
X01399Y01755D02*
X01399D01*
Y01755*
Y01755*
X014*
Y01754*
Y01754*
X01401*
Y01753*
X01401*
Y01753*
Y01752*
X01402*
Y01752*
X01402*
Y01752*
X01402*
Y01751*
Y01751*
X01403*
Y0175*
X01403*
Y0175*
Y01749*
X01404*
Y01749*
Y01748*
Y01748*
Y01748*
X01404*
Y01747*
X01404*
Y01747*
X01406*
Y01746*
X01405*
Y01746*
X01405*
Y01745*
X01404*
Y01745*
Y01744*
X01404*
Y01744*
X01403*
Y01744*
X01403*
Y01743*
Y01743*
X01402*
Y01742*
X01402*
Y01742*
X01402*
Y01741*
Y01741*
X01401*
Y01741*
X01401*
Y0174*
X014*
Y0174*
X01399*
Y01739*
Y01739*
Y01738*
X01398*
Y01738*
X01396*
Y01738*
X01396*
Y01739*
X01395*
Y01739*
Y0174*
Y0174*
X01395*
Y01741*
X01394*
Y01741*
Y01741*
X01395*
Y01742*
Y01742*
X01394*
Y01743*
X01393*
Y01743*
X01393*
Y01744*
Y01744*
X01392*
Y01744*
Y01745*
X01391*
Y01745*
X01391*
Y01746*
X01391*
Y01746*
X0139*
Y01747*
X0139*
Y01747*
X01391*
Y01747*
X01392*
Y01747*
Y01748*
Y01748*
Y01748*
X01393*
Y01749*
Y01749*
X01393*
Y0175*
X01394*
Y0175*
Y01751*
X01394*
Y01751*
X01394*
Y01752*
X01395*
Y01752*
Y01752*
X01395*
Y01753*
X01396*
Y01753*
X01396*
Y01754*
X01397*
Y01754*
X01397*
Y01755*
X01398*
Y01755*
Y01755*
X01398*
Y01756*
X01399*
Y01755*
G37*
G36*
X01378D02*
Y01755D01*
X01378*
Y01755*
X01379*
Y01754*
X01379*
Y01754*
X0138*
Y01753*
X0138*
Y01753*
Y01752*
X0138*
Y01752*
X01381*
Y01752*
X01382*
Y01751*
X01382*
Y01751*
X01383*
Y0175*
X01383*
Y0175*
X01383*
Y01749*
Y01749*
X01384*
Y01748*
Y01748*
X01384*
Y01748*
X01383*
Y01747*
Y01747*
X01387*
Y01746*
X01386*
Y01746*
X01385*
Y01745*
X01385*
Y01745*
X01383*
Y01744*
Y01744*
Y01744*
Y01743*
X01383*
Y01743*
X01383*
Y01742*
X01382*
Y01742*
X01382*
Y01742*
X01381*
Y01742*
Y01741*
X01381*
Y01741*
Y01741*
X01381*
Y0174*
X0138*
Y0174*
X0138*
Y01739*
X0138*
Y01739*
X01379*
Y01739*
Y0174*
X01378*
Y01739*
Y01739*
X01379*
Y01738*
Y01738*
X01376*
Y01738*
X01375*
Y01739*
X01375*
Y01739*
X01374*
Y0174*
X01374*
Y0174*
X01373*
Y01741*
Y01741*
X01373*
Y01741*
X01372*
Y01742*
X01372*
Y01742*
X01372*
Y01743*
X01371*
Y01743*
Y01744*
X01371*
Y01744*
X01371*
Y01744*
Y01745*
X0137*
Y01744*
Y01744*
X0137*
Y01744*
Y01745*
X01369*
Y01744*
X01369*
Y01745*
Y01745*
X01368*
Y01746*
X01368*
Y01746*
Y01747*
X01367*
Y01747*
X01368*
Y01747*
X01369*
Y01747*
X0137*
Y01748*
Y01748*
Y01748*
X0137*
Y01749*
Y01749*
X01371*
Y0175*
Y0175*
Y01751*
X01372*
Y01751*
X01372*
Y01752*
X01372*
Y01752*
X01374*
Y01752*
Y01753*
Y01753*
X01375*
Y01754*
Y01754*
X01375*
Y01755*
X01376*
Y01755*
Y01755*
Y01756*
X01378*
Y01755*
G37*
G36*
X01341Y01755D02*
X01341D01*
Y01755*
Y01754*
X01342*
Y01754*
Y01753*
X01342*
Y01753*
X01341*
Y01752*
Y01752*
X01342*
Y01752*
X01342*
Y01752*
Y01752*
X01343*
Y01751*
Y01751*
X01343*
Y0175*
Y0175*
X01344*
Y01749*
X01344*
Y01749*
Y01748*
Y01748*
X01345*
Y01748*
X01344*
Y01747*
Y01747*
X01346*
Y01747*
X01346*
Y01747*
Y01746*
X01346*
Y01746*
X01346*
Y01745*
Y01745*
Y01744*
X01345*
Y01744*
Y01744*
X01345*
Y01743*
Y01743*
Y01742*
X01344*
Y01742*
Y01741*
X01344*
Y01741*
X01344*
Y01741*
Y0174*
Y0174*
Y01739*
X01343*
Y01739*
Y01738*
X01343*
Y01738*
X01342*
Y01738*
X01342*
Y01739*
X01342*
Y01739*
Y0174*
X01341*
Y0174*
Y01741*
X0134*
Y01741*
Y01741*
X0134*
Y01742*
Y01742*
Y01743*
X01339*
Y01743*
Y01744*
X01339*
Y01744*
X01339*
Y01744*
Y01745*
X01339*
Y01745*
Y01746*
X01338*
Y01746*
Y01747*
Y01747*
Y01748*
X01339*
Y01747*
Y01747*
X01339*
Y01747*
Y01748*
X01339*
Y01748*
Y01748*
Y01749*
Y01749*
X01339*
Y0175*
Y0175*
X01339*
Y01751*
X01339*
Y01751*
Y01752*
Y01752*
X01339*
Y01752*
Y01753*
Y01753*
Y01754*
Y01754*
Y01755*
X0134*
Y01755*
Y01755*
X01341*
Y01755*
G37*
G36*
X0136Y01867D02*
X01361D01*
Y01867*
X01361*
Y01866*
X01361*
Y01866*
X01362*
Y01865*
X01363*
Y01865*
X01363*
Y01864*
X01364*
Y01864*
Y01863*
X01365*
Y01863*
Y01863*
X01365*
Y01862*
X01366*
Y01862*
X01366*
Y01861*
X01367*
Y01861*
Y0186*
Y0186*
Y01859*
Y01859*
Y01859*
X01366*
Y01858*
Y01858*
Y01857*
Y01857*
Y01856*
Y01856*
X01367*
Y01856*
Y01855*
X01366*
Y01855*
Y01854*
X01366*
Y01855*
X01365*
Y01855*
X01364*
Y01856*
X01363*
Y01856*
X01362*
Y01856*
X01361*
Y01857*
X01361*
Y01857*
X0136*
Y01858*
X01361*
Y01858*
Y01859*
X0136*
Y01859*
Y01859*
Y0186*
Y0186*
X01361*
Y01861*
Y01861*
X0136*
Y01862*
X01359*
Y01862*
Y01863*
Y01863*
Y01863*
X01359*
Y01864*
Y01864*
Y01865*
Y01865*
Y01866*
X01358*
Y01866*
Y01867*
Y01867*
Y01867*
X0136*
Y01867*
G37*
G36*
X01404Y01864D02*
Y01864D01*
X01403*
Y01863*
X01403*
Y01864*
X01402*
Y01863*
Y01863*
X01402*
Y01863*
X01402*
Y01862*
X01402*
Y01862*
X01401*
Y01861*
X01401*
Y01861*
Y0186*
X014*
Y01861*
Y01861*
X01399*
Y01861*
Y0186*
X014*
Y0186*
X014*
Y01859*
X01399*
Y01859*
X01399*
Y01859*
X01398*
Y01858*
X01398*
Y01858*
X01398*
Y01858*
Y01859*
X01397*
Y01858*
Y01858*
X01398*
Y01857*
X01397*
Y01857*
Y01856*
X01397*
Y01856*
X01396*
Y01856*
X01396*
Y01855*
Y01855*
X01395*
Y01854*
X01395*
Y01854*
Y01853*
X01394*
Y01853*
Y01852*
X01394*
Y01852*
Y01852*
X01393*
Y01851*
X01393*
Y01851*
Y0185*
X01392*
Y01851*
X01391*
Y0185*
Y0185*
X01392*
Y01849*
Y01849*
X01391*
Y01848*
Y01848*
Y01848*
X01391*
Y01847*
Y01847*
X01391*
Y01846*
X0139*
Y01846*
Y01845*
X01389*
Y01845*
Y01845*
Y01844*
X01388*
Y01844*
X01387*
Y01843*
X01387*
Y01843*
X01386*
Y01842*
X01386*
Y01842*
X01385*
Y01841*
X01384*
Y01841*
X01384*
Y01841*
X01383*
Y0184*
X01383*
Y0184*
X01382*
Y0184*
X01381*
Y0184*
Y01839*
X01381*
Y01839*
X01381*
Y01838*
X0138*
Y01838*
X0138*
Y01837*
X01378*
Y01837*
Y01837*
Y01836*
X01377*
Y01836*
X01377*
Y01836*
Y01837*
Y01837*
Y01837*
Y01838*
Y01838*
Y01839*
Y01839*
Y0184*
Y0184*
Y01841*
Y01841*
X01376*
Y01841*
Y01842*
Y01842*
Y01843*
X01376*
Y01843*
Y01844*
X01375*
Y01844*
Y01845*
X01376*
Y01845*
Y01845*
X01376*
Y01846*
X01376*
Y01846*
X01377*
Y01847*
Y01847*
X01377*
Y01848*
X01378*
Y01848*
X01378*
Y01848*
Y01847*
X01379*
Y01848*
Y01848*
X01378*
Y01848*
Y01849*
X01379*
Y01849*
X01379*
Y0185*
X0138*
Y0185*
X0138*
Y01851*
X0138*
Y01851*
X01381*
Y01852*
X01382*
Y01852*
X01382*
Y01852*
X01383*
Y01853*
X01383*
Y01853*
X01383*
Y01853*
Y01852*
X01384*
Y01853*
Y01853*
X01383*
Y01854*
X01384*
Y01854*
X01384*
Y01855*
X01385*
Y01855*
X01386*
Y01856*
X01386*
Y01855*
X01387*
Y01856*
Y01856*
Y01856*
X01387*
Y01857*
X01388*
Y01857*
X01389*
Y01858*
X0139*
Y01858*
X0139*
Y01859*
X01391*
Y01859*
X01392*
Y01859*
X01393*
Y0186*
X01394*
Y0186*
X01395*
Y01861*
Y01861*
X01396*
Y01862*
X01397*
Y01862*
X01398*
Y01863*
X01398*
Y01863*
X014*
Y01863*
Y01864*
X01401*
Y01864*
X01402*
Y01865*
X01404*
Y01864*
G37*
G36*
X01388Y01867D02*
X01388D01*
Y01867*
Y01867*
Y01866*
Y01866*
Y01865*
Y01865*
Y01864*
Y01864*
Y01863*
Y01863*
Y01863*
Y01862*
Y01862*
Y01861*
Y01861*
X01388*
Y0186*
Y0186*
Y01859*
Y01859*
X01388*
Y01859*
Y01858*
X01387*
Y01858*
X01387*
Y01858*
Y01859*
X01386*
Y01858*
Y01858*
X01387*
Y01857*
X01386*
Y01857*
X01385*
Y01856*
X01385*
Y01856*
X01383*
Y01856*
Y01855*
X01383*
Y01855*
X01383*
Y01855*
Y01856*
X01382*
Y01856*
Y01856*
X01382*
Y01857*
Y01857*
X01381*
Y01858*
X01382*
Y01858*
Y01859*
X01381*
Y01859*
Y01859*
X0138*
Y0186*
X01381*
Y0186*
X01382*
Y01861*
Y01861*
Y01862*
Y01862*
X01382*
Y01863*
X01383*
Y01863*
Y01863*
X01383*
Y01864*
X01383*
Y01863*
Y01863*
X01384*
Y01863*
Y01864*
X01383*
Y01864*
X01384*
Y01865*
X01384*
Y01865*
X01385*
Y01866*
Y01866*
X01385*
Y01867*
X01386*
Y01867*
X01387*
Y01867*
X01387*
Y01868*
X01388*
Y01867*
G37*
G36*
X01422Y01857D02*
X01421D01*
Y01856*
X0142*
Y01856*
X01418*
Y01856*
X01417*
Y01855*
X01417*
Y01855*
X01416*
Y01854*
X01416*
Y01854*
X01415*
Y01853*
X01415*
Y01853*
X01414*
Y01852*
X01413*
Y01853*
Y01853*
X01413*
Y01853*
Y01852*
X01413*
Y01852*
X01413*
Y01852*
Y01851*
X01412*
Y01851*
X01412*
Y0185*
X01411*
Y0185*
X01411*
Y0185*
Y01851*
X0141*
Y0185*
Y0185*
X01411*
Y01849*
X0141*
Y01849*
X0141*
Y01848*
X01409*
Y01848*
X01409*
Y01848*
X01408*
Y01848*
X01407*
Y01848*
Y01847*
X01408*
Y01847*
X01407*
Y01846*
X01407*
Y01846*
X01406*
Y01845*
X01406*
Y01845*
X01406*
Y01845*
X01405*
Y01845*
Y01845*
X01405*
Y01844*
X01405*
Y01844*
X01404*
Y01843*
X01404*
Y01843*
X01403*
Y01842*
X01403*
Y01843*
X01402*
Y01842*
Y01842*
X01402*
Y01841*
X01402*
Y01841*
X01401*
Y01841*
Y0184*
X01399*
Y0184*
Y01839*
Y01839*
X01399*
Y01838*
X01398*
Y01838*
X01398*
Y01837*
X01397*
Y01837*
Y01837*
X01396*
Y01836*
X01395*
Y01836*
Y01835*
X01394*
Y01835*
X01394*
Y01834*
X01393*
Y01834*
X01392*
Y01834*
Y01835*
X01391*
Y01834*
Y01834*
Y01833*
X01391*
Y01833*
X0139*
Y01833*
X01389*
Y01832*
X01388*
Y01832*
X01388*
Y01831*
X01387*
Y01832*
Y01832*
X01386*
Y01832*
Y01831*
X01387*
Y01831*
X01386*
Y0183*
Y0183*
X01385*
Y0183*
X01385*
Y01829*
X01384*
Y0183*
X01383*
Y01829*
Y01829*
Y01828*
X01383*
Y01828*
X01383*
Y01827*
X01382*
Y01827*
X0138*
Y01827*
X0138*
Y01828*
X0138*
Y01828*
Y01829*
X01379*
Y01829*
Y0183*
X01378*
Y01829*
X01376*
Y0183*
X01375*
Y0183*
Y0183*
X01375*
Y01831*
X01375*
Y01831*
Y01832*
Y01832*
X01376*
Y01832*
Y01831*
X01376*
Y01832*
Y01832*
X01376*
Y01833*
X01376*
Y01833*
X01376*
Y01833*
X01377*
Y01834*
Y01834*
X01378*
Y01835*
X01378*
Y01834*
Y01834*
X01379*
Y01834*
Y01835*
X01378*
Y01835*
X01379*
Y01836*
X0138*
Y01836*
X0138*
Y01837*
X0138*
Y01837*
X01381*
Y01837*
X01382*
Y01837*
Y01837*
Y01838*
X01382*
Y01838*
X01383*
Y01839*
X01383*
Y01839*
X01384*
Y0184*
X01385*
Y0184*
X01385*
Y01841*
X01386*
Y01841*
X01387*
Y01841*
X01387*
Y01842*
X01388*
Y01842*
X01388*
Y01843*
X01389*
Y01842*
Y01842*
X0139*
Y01842*
Y01843*
X01389*
Y01843*
X0139*
Y01844*
X01391*
Y01844*
X01391*
Y01845*
X01392*
Y01845*
Y01845*
X01393*
Y01846*
X01394*
Y01846*
X01394*
Y01847*
X01395*
Y01847*
X01396*
Y01848*
X01396*
Y01848*
X01397*
Y01848*
Y01847*
X01398*
Y01848*
Y01848*
X01397*
Y01848*
X01398*
Y01849*
X01398*
Y01849*
X01399*
Y0185*
X014*
Y0185*
X01401*
Y01851*
X01402*
Y01851*
X01402*
Y01852*
X01403*
Y01852*
X01404*
Y01852*
X01406*
Y01853*
Y01853*
X01406*
Y01854*
X01407*
Y01854*
X01409*
Y01855*
X01409*
Y01855*
X01411*
Y01856*
X01411*
Y01856*
X01413*
Y01856*
Y01855*
X01413*
Y01856*
Y01856*
X01413*
Y01856*
X01413*
Y01857*
X01415*
Y01857*
X01422*
Y01857*
G37*
%LNpcb-2*%
%LPC*%
G36*
X01361Y01761D02*
X0136D01*
Y0176*
Y0176*
X01361*
Y0176*
Y01761*
G37*
G36*
X01363D02*
X01362D01*
Y0176*
Y0176*
X01363*
Y0176*
Y01761*
G37*
G36*
X01366D02*
X01365D01*
Y0176*
Y0176*
X01366*
Y0176*
Y01761*
G37*
G36*
X01363Y01861D02*
X01362D01*
Y01861*
Y0186*
X01363*
Y01861*
Y01861*
G37*
G36*
X01384Y01761D02*
X01383D01*
Y0176*
Y0176*
X01384*
Y0176*
Y01761*
G37*
G36*
X01368D02*
X01368D01*
Y0176*
Y0176*
X01368*
Y0176*
Y01761*
G37*
G36*
X01371D02*
X0137D01*
Y0176*
Y0176*
X01371*
Y0176*
Y01761*
G37*
G36*
X01392Y01758D02*
X01391D01*
Y01758*
Y01757*
X01392*
Y01758*
Y01758*
G37*
G36*
X01406D02*
X01405D01*
Y01758*
Y01757*
X01406*
Y01758*
Y01758*
G37*
G36*
X0139D02*
X01389D01*
Y01758*
Y01757*
X0139*
Y01758*
Y01758*
G37*
G36*
X01384D02*
X01383D01*
Y01758*
Y01757*
X01384*
Y01758*
Y01758*
G37*
G36*
X01387D02*
X01386D01*
Y01758*
Y01757*
X01387*
Y01758*
Y01758*
G37*
G36*
X01408D02*
X01407D01*
Y01758*
Y01757*
X01408*
Y01758*
Y01758*
G37*
G36*
X01347Y01761D02*
X01346D01*
Y0176*
Y0176*
X01347*
Y0176*
Y01761*
G37*
G36*
X0135D02*
X01349D01*
Y0176*
Y0176*
X0135*
Y0176*
Y01761*
G37*
G36*
X01345D02*
X01344D01*
Y0176*
Y0176*
X01345*
Y0176*
Y01761*
G37*
G36*
X01411Y01758D02*
X0141D01*
Y01758*
Y01757*
X01411*
Y01758*
Y01758*
G37*
G36*
X01337Y01761D02*
X01336D01*
Y0176*
Y0176*
X01337*
Y0176*
Y01761*
G37*
G36*
X01387D02*
X01386D01*
Y0176*
Y0176*
X01387*
Y0176*
Y01761*
G37*
G36*
X01366Y01763D02*
X01365D01*
Y01763*
Y01763*
X01366*
Y01763*
Y01763*
G37*
G36*
X01368D02*
X01368D01*
Y01763*
Y01763*
X01368*
Y01763*
Y01763*
G37*
G36*
X01363D02*
X01362D01*
Y01763*
Y01763*
X01363*
Y01763*
Y01763*
G37*
G36*
X0135D02*
X01349D01*
Y01763*
Y01763*
X0135*
Y01763*
Y01763*
G37*
G36*
X01379Y01859D02*
X01378D01*
Y01858*
Y01858*
X01379*
Y01858*
Y01859*
G37*
G36*
X0139Y01763D02*
X01389D01*
Y01763*
Y01763*
X0139*
Y01763*
Y01763*
G37*
G36*
X01392D02*
X01391D01*
Y01763*
Y01763*
X01392*
Y01763*
Y01763*
G37*
G36*
X01387D02*
X01386D01*
Y01763*
Y01763*
X01387*
Y01763*
Y01763*
G37*
G36*
X01371D02*
X0137D01*
Y01763*
Y01763*
X01371*
Y01763*
Y01763*
G37*
G36*
X01384D02*
X01383D01*
Y01763*
Y01763*
X01384*
Y01763*
Y01763*
G37*
G36*
X01406Y01761D02*
X01405D01*
Y0176*
Y0176*
X01406*
Y0176*
Y01761*
G37*
G36*
X01408D02*
X01407D01*
Y0176*
Y0176*
X01408*
Y0176*
Y01761*
G37*
G36*
X01395Y01859D02*
X01394D01*
Y01858*
Y01858*
X01395*
Y01858*
Y01859*
G37*
G36*
X0139Y01761D02*
X01389D01*
Y0176*
Y0176*
X0139*
Y0176*
Y01761*
G37*
G36*
X01392D02*
X01391D01*
Y0176*
Y0176*
X01392*
Y0176*
Y01761*
G37*
G36*
X01345Y01763D02*
X01344D01*
Y01763*
Y01763*
X01345*
Y01763*
Y01763*
G37*
G36*
X01347D02*
X01346D01*
Y01763*
Y01763*
X01347*
Y01763*
Y01763*
G37*
G36*
X01384Y01859D02*
X01383D01*
Y01858*
Y01858*
X01384*
Y01858*
Y01859*
G37*
G36*
X01411Y01761D02*
X0141D01*
Y0176*
Y0176*
X01411*
Y0176*
Y01761*
G37*
G36*
X01392Y01859D02*
X01391D01*
Y01858*
Y01858*
X01392*
Y01858*
Y01859*
G37*
G36*
X01366Y01753D02*
X01365D01*
Y01752*
Y01752*
X01366*
Y01752*
Y01753*
G37*
G36*
X01376D02*
X01376D01*
Y01752*
Y01752*
X01376*
Y01752*
Y01753*
G37*
G36*
X01355D02*
X01354D01*
Y01752*
Y01752*
X01355*
Y01752*
Y01753*
G37*
G36*
X01371Y01861D02*
X0137D01*
Y01861*
Y0186*
X01371*
Y01861*
Y01861*
G37*
G36*
X01347Y01753D02*
X01346D01*
Y01752*
Y01752*
X01347*
Y01752*
Y01753*
G37*
G36*
X01398D02*
X01397D01*
Y01752*
Y01752*
X01398*
Y01752*
Y01753*
G37*
G36*
X014D02*
X01399D01*
Y01752*
Y01752*
X014*
Y01752*
Y01753*
G37*
G36*
X0139D02*
X01389D01*
Y01752*
Y01752*
X0139*
Y01752*
Y01753*
G37*
G36*
X01379D02*
X01378D01*
Y01752*
Y01752*
X01379*
Y01752*
Y01753*
G37*
G36*
X01387D02*
X01386D01*
Y01752*
Y01752*
X01387*
Y01752*
Y01753*
G37*
G36*
X01413Y0175D02*
X01413D01*
Y0175*
Y01749*
X01413*
Y0175*
Y0175*
G37*
G36*
X01376D02*
X01376D01*
Y0175*
Y01749*
X01376*
Y0175*
Y0175*
G37*
G36*
X01379D02*
X01378D01*
Y0175*
Y01749*
X01379*
Y0175*
Y0175*
G37*
G36*
X01374D02*
X01373D01*
Y0175*
Y01749*
X01374*
Y0175*
Y0175*
G37*
G36*
X01355D02*
X01354D01*
Y0175*
Y01749*
X01355*
Y0175*
Y0175*
G37*
G36*
X01358D02*
X01357D01*
Y0175*
Y01749*
X01358*
Y0175*
Y0175*
G37*
G36*
X014D02*
X01399D01*
Y0175*
Y01749*
X014*
Y0175*
Y0175*
G37*
G36*
X01403D02*
X01402D01*
Y0175*
Y01749*
X01403*
Y0175*
Y0175*
G37*
G36*
X01398D02*
X01397D01*
Y0175*
Y01749*
X01398*
Y0175*
Y0175*
G37*
G36*
X01382D02*
X01381D01*
Y0175*
Y01749*
X01382*
Y0175*
Y0175*
G37*
G36*
X01395D02*
X01394D01*
Y0175*
Y01749*
X01395*
Y0175*
Y0175*
G37*
G36*
X01347Y01758D02*
X01346D01*
Y01758*
Y01757*
X01347*
Y01758*
Y01758*
G37*
G36*
X0135D02*
X01349D01*
Y01758*
Y01757*
X0135*
Y01758*
Y01758*
G37*
G36*
X01345D02*
X01344D01*
Y01758*
Y01757*
X01345*
Y01758*
Y01758*
G37*
G36*
X01408Y01755D02*
X01407D01*
Y01755*
Y01755*
X01408*
Y01755*
Y01755*
G37*
G36*
X01337Y01758D02*
X01336D01*
Y01758*
Y01757*
X01337*
Y01758*
Y01758*
G37*
G36*
X01368D02*
X01368D01*
Y01758*
Y01757*
X01368*
Y01758*
Y01758*
G37*
G36*
X01371D02*
X0137D01*
Y01758*
Y01757*
X01371*
Y01758*
Y01758*
G37*
G36*
X01366D02*
X01365D01*
Y01758*
Y01757*
X01366*
Y01758*
Y01758*
G37*
G36*
X01361D02*
X0136D01*
Y01758*
Y01757*
X01361*
Y01758*
Y01758*
G37*
G36*
X01363D02*
X01362D01*
Y01758*
Y01757*
X01363*
Y01758*
Y01758*
G37*
G36*
X01406Y01755D02*
X01405D01*
Y01755*
Y01755*
X01406*
Y01755*
Y01755*
G37*
G36*
X01366Y01861D02*
X01365D01*
Y01861*
Y0186*
X01366*
Y01861*
Y01861*
G37*
G36*
X01363Y01755D02*
X01362D01*
Y01755*
Y01755*
X01363*
Y01755*
Y01755*
G37*
G36*
X01347D02*
X01346D01*
Y01755*
Y01755*
X01347*
Y01755*
Y01755*
G37*
G36*
X01408Y01753D02*
X01407D01*
Y01752*
Y01752*
X01408*
Y01752*
Y01753*
G37*
G36*
X01413D02*
X01413D01*
Y01752*
Y01752*
X01413*
Y01752*
Y01753*
G37*
G36*
X0139Y01755D02*
X01389D01*
Y01755*
Y01755*
X0139*
Y01755*
Y01755*
G37*
G36*
X01392D02*
X01391D01*
Y01755*
Y01755*
X01392*
Y01755*
Y01755*
G37*
G36*
X01387D02*
X01386D01*
Y01755*
Y01755*
X01387*
Y01755*
Y01755*
G37*
G36*
X01366D02*
X01365D01*
Y01755*
Y01755*
X01366*
Y01755*
Y01755*
G37*
G36*
X01368D02*
X01368D01*
Y01755*
Y01755*
X01368*
Y01755*
Y01755*
G37*
G36*
X01376Y01774D02*
X01376D01*
Y01774*
Y01773*
X01376*
Y01774*
Y01774*
G37*
G36*
X01379D02*
X01378D01*
Y01774*
Y01773*
X01379*
Y01774*
Y01774*
G37*
G36*
X01374D02*
X01373D01*
Y01774*
Y01773*
X01374*
Y01774*
Y01774*
G37*
G36*
X01366Y01859D02*
X01365D01*
Y01858*
Y01858*
X01366*
Y01858*
Y01859*
G37*
G36*
X01371Y01774D02*
X0137D01*
Y01774*
Y01773*
X01371*
Y01774*
Y01774*
G37*
G36*
X01398D02*
X01397D01*
Y01774*
Y01773*
X01398*
Y01774*
Y01774*
G37*
G36*
X014D02*
X01399D01*
Y01774*
Y01773*
X014*
Y01774*
Y01774*
G37*
G36*
X01395D02*
X01394D01*
Y01774*
Y01773*
X01395*
Y01774*
Y01774*
G37*
G36*
X01382D02*
X01381D01*
Y01774*
Y01773*
X01382*
Y01774*
Y01774*
G37*
G36*
X01363Y01859D02*
X01362D01*
Y01858*
Y01858*
X01363*
Y01858*
Y01859*
G37*
G36*
X01339Y01774D02*
X01339D01*
Y01774*
Y01773*
X01339*
Y01774*
Y01774*
G37*
G36*
X01342D02*
X01341D01*
Y01774*
Y01773*
X01342*
Y01774*
Y01774*
G37*
G36*
X01413Y01771D02*
X01413D01*
Y01771*
Y0177*
X01413*
Y01771*
Y01771*
G37*
G36*
X01403D02*
X01402D01*
Y01771*
Y0177*
X01403*
Y01771*
Y01771*
G37*
G36*
X01411D02*
X0141D01*
Y01771*
Y0177*
X01411*
Y01771*
Y01771*
G37*
G36*
X01358Y01774D02*
X01357D01*
Y01774*
Y01773*
X01358*
Y01774*
Y01774*
G37*
G36*
X01361D02*
X0136D01*
Y01774*
Y01773*
X01361*
Y01774*
Y01774*
G37*
G36*
X01355D02*
X01354D01*
Y01774*
Y01773*
X01355*
Y01774*
Y01774*
G37*
G36*
X01345D02*
X01344D01*
Y01774*
Y01773*
X01345*
Y01774*
Y01774*
G37*
G36*
X01353D02*
X01352D01*
Y01774*
Y01773*
X01353*
Y01774*
Y01774*
G37*
G36*
X01403D02*
X01402D01*
Y01774*
Y01773*
X01403*
Y01774*
Y01774*
G37*
G36*
X01411Y01777D02*
X0141D01*
Y01776*
Y01776*
X01411*
Y01776*
Y01777*
G37*
G36*
X01413D02*
X01413D01*
Y01776*
Y01776*
X01413*
Y01776*
Y01777*
G37*
G36*
X014D02*
X01399D01*
Y01776*
Y01776*
X014*
Y01776*
Y01777*
G37*
G36*
X01395D02*
X01394D01*
Y01776*
Y01776*
X01395*
Y01776*
Y01777*
G37*
G36*
X01398D02*
X01397D01*
Y01776*
Y01776*
X01398*
Y01776*
Y01777*
G37*
G36*
X01358Y01779D02*
X01357D01*
Y01779*
Y01778*
X01358*
Y01779*
Y01779*
G37*
G36*
X01366D02*
X01365D01*
Y01779*
Y01778*
X01366*
Y01779*
Y01779*
G37*
G36*
X0135Y01859D02*
X01349D01*
Y01858*
Y01858*
X0135*
Y01858*
Y01859*
G37*
G36*
X01353D02*
X01352D01*
Y01858*
Y01858*
X01353*
Y01858*
Y01859*
G37*
G36*
X0135Y01779D02*
X01349D01*
Y01779*
Y01778*
X0135*
Y01779*
Y01779*
G37*
G36*
X01355Y01777D02*
X01354D01*
Y01776*
Y01776*
X01355*
Y01776*
Y01777*
G37*
G36*
X01358D02*
X01357D01*
Y01776*
Y01776*
X01358*
Y01776*
Y01777*
G37*
G36*
X01342D02*
X01341D01*
Y01776*
Y01776*
X01342*
Y01776*
Y01777*
G37*
G36*
X01411Y01774D02*
X0141D01*
Y01774*
Y01773*
X01411*
Y01774*
Y01774*
G37*
G36*
X01413D02*
X01413D01*
Y01774*
Y01773*
X01413*
Y01774*
Y01774*
G37*
G36*
X01379Y01777D02*
X01378D01*
Y01776*
Y01776*
X01379*
Y01776*
Y01777*
G37*
G36*
X01382D02*
X01381D01*
Y01776*
Y01776*
X01382*
Y01776*
Y01777*
G37*
G36*
X01376D02*
X01376D01*
Y01776*
Y01776*
X01376*
Y01776*
Y01777*
G37*
G36*
X01361D02*
X0136D01*
Y01776*
Y01776*
X01361*
Y01776*
Y01777*
G37*
G36*
X01374D02*
X01373D01*
Y01776*
Y01776*
X01374*
Y01776*
Y01777*
G37*
G36*
X014Y01766D02*
X01399D01*
Y01766*
Y01765*
X014*
Y01766*
Y01766*
G37*
G36*
X01406D02*
X01405D01*
Y01766*
Y01765*
X01406*
Y01766*
Y01766*
G37*
G36*
X01398D02*
X01397D01*
Y01766*
Y01765*
X01398*
Y01766*
Y01766*
G37*
G36*
X01387D02*
X01386D01*
Y01766*
Y01765*
X01387*
Y01766*
Y01766*
G37*
G36*
X0139D02*
X01389D01*
Y01766*
Y01765*
X0139*
Y01766*
Y01766*
G37*
G36*
X01374Y01859D02*
X01373D01*
Y01858*
Y01858*
X01374*
Y01858*
Y01859*
G37*
G36*
X01355Y01769D02*
X01354D01*
Y01768*
Y01768*
X01355*
Y01768*
Y01769*
G37*
G36*
X01342D02*
X01341D01*
Y01768*
Y01768*
X01342*
Y01768*
Y01769*
G37*
G36*
X01408Y01766D02*
X01407D01*
Y01766*
Y01765*
X01408*
Y01766*
Y01766*
G37*
G36*
X01413D02*
X01413D01*
Y01766*
Y01765*
X01413*
Y01766*
Y01766*
G37*
G36*
X01347D02*
X01346D01*
Y01766*
Y01765*
X01347*
Y01766*
Y01766*
G37*
G36*
X01355D02*
X01354D01*
Y01766*
Y01765*
X01355*
Y01766*
Y01766*
G37*
G36*
X01376Y01859D02*
X01376D01*
Y01858*
Y01858*
X01376*
Y01858*
Y01859*
G37*
G36*
X01406Y01763D02*
X01405D01*
Y01763*
Y01763*
X01406*
Y01763*
Y01763*
G37*
G36*
X01408D02*
X01407D01*
Y01763*
Y01763*
X01408*
Y01763*
Y01763*
G37*
G36*
X01376Y01766D02*
X01376D01*
Y01766*
Y01765*
X01376*
Y01766*
Y01766*
G37*
G36*
X01379D02*
X01378D01*
Y01766*
Y01765*
X01379*
Y01766*
Y01766*
G37*
G36*
X01368D02*
X01368D01*
Y01766*
Y01765*
X01368*
Y01766*
Y01766*
G37*
G36*
X01363D02*
X01362D01*
Y01766*
Y01765*
X01363*
Y01766*
Y01766*
G37*
G36*
X01366D02*
X01365D01*
Y01766*
Y01765*
X01366*
Y01766*
Y01766*
G37*
G36*
X01358Y01769D02*
X01357D01*
Y01768*
Y01768*
X01358*
Y01768*
Y01769*
G37*
G36*
X01374Y01771D02*
X01373D01*
Y01771*
Y0177*
X01374*
Y01771*
Y01771*
G37*
G36*
X01376D02*
X01376D01*
Y01771*
Y0177*
X01376*
Y01771*
Y01771*
G37*
G36*
X01361D02*
X0136D01*
Y01771*
Y0177*
X01361*
Y01771*
Y01771*
G37*
G36*
X01355D02*
X01354D01*
Y01771*
Y0177*
X01355*
Y01771*
Y01771*
G37*
G36*
X01358D02*
X01357D01*
Y01771*
Y0177*
X01358*
Y01771*
Y01771*
G37*
G36*
X01398D02*
X01397D01*
Y01771*
Y0177*
X01398*
Y01771*
Y01771*
G37*
G36*
X014D02*
X01399D01*
Y01771*
Y0177*
X014*
Y01771*
Y01771*
G37*
G36*
X01395D02*
X01394D01*
Y01771*
Y0177*
X01395*
Y01771*
Y01771*
G37*
G36*
X01379D02*
X01378D01*
Y01771*
Y0177*
X01379*
Y01771*
Y01771*
G37*
G36*
X01382D02*
X01381D01*
Y01771*
Y0177*
X01382*
Y01771*
Y01771*
G37*
G36*
X01379Y01769D02*
X01378D01*
Y01768*
Y01768*
X01379*
Y01768*
Y01769*
G37*
G36*
X01398D02*
X01397D01*
Y01768*
Y01768*
X01398*
Y01768*
Y01769*
G37*
G36*
X01376D02*
X01376D01*
Y01768*
Y01768*
X01376*
Y01768*
Y01769*
G37*
G36*
X01366D02*
X01365D01*
Y01768*
Y01768*
X01366*
Y01768*
Y01769*
G37*
G36*
X01374D02*
X01373D01*
Y01768*
Y01768*
X01374*
Y01768*
Y01769*
G37*
G36*
X01342Y01771D02*
X01341D01*
Y01771*
Y0177*
X01342*
Y01771*
Y01771*
G37*
G36*
X01353D02*
X01352D01*
Y01771*
Y0177*
X01353*
Y01771*
Y01771*
G37*
G36*
X01371Y01859D02*
X0137D01*
Y01858*
Y01858*
X01371*
Y01858*
Y01859*
G37*
G36*
X014Y01769D02*
X01399D01*
Y01768*
Y01768*
X014*
Y01768*
Y01769*
G37*
G36*
X01413D02*
X01413D01*
Y01768*
Y01768*
X01413*
Y01768*
Y01769*
G37*
G36*
X01353Y0175D02*
X01352D01*
Y0175*
Y01749*
X01353*
Y0175*
Y0175*
G37*
G36*
X01398Y01726D02*
X01397D01*
Y01726*
Y01726*
X01398*
Y01726*
Y01726*
G37*
G36*
X01408D02*
X01407D01*
Y01726*
Y01726*
X01408*
Y01726*
Y01726*
G37*
G36*
X01395D02*
X01394D01*
Y01726*
Y01726*
X01395*
Y01726*
Y01726*
G37*
G36*
X01361Y01867D02*
X0136D01*
Y01866*
Y01866*
X01361*
Y01866*
Y01867*
G37*
G36*
X01392Y01726D02*
X01391D01*
Y01726*
Y01726*
X01392*
Y01726*
Y01726*
G37*
G36*
X01376Y01729D02*
X01376D01*
Y01729*
Y01728*
X01376*
Y01729*
Y01729*
G37*
G36*
X01379D02*
X01378D01*
Y01729*
Y01728*
X01379*
Y01729*
Y01729*
G37*
G36*
X01361D02*
X0136D01*
Y01729*
Y01728*
X01361*
Y01729*
Y01729*
G37*
G36*
X01387Y01864D02*
X01386D01*
Y01863*
Y01863*
X01387*
Y01863*
Y01864*
G37*
G36*
X01358Y01729D02*
X01357D01*
Y01729*
Y01728*
X01358*
Y01729*
Y01729*
G37*
G36*
Y01726D02*
X01357D01*
Y01726*
Y01726*
X01358*
Y01726*
Y01726*
G37*
G36*
X01361D02*
X0136D01*
Y01726*
Y01726*
X01361*
Y01726*
Y01726*
G37*
G36*
X01347D02*
X01346D01*
Y01726*
Y01726*
X01347*
Y01726*
Y01726*
G37*
G36*
X01395Y01724D02*
X01394D01*
Y01723*
Y01723*
X01395*
Y01723*
Y01724*
G37*
G36*
X01406D02*
X01405D01*
Y01723*
Y01723*
X01406*
Y01723*
Y01724*
G37*
G36*
X01379Y01726D02*
X01378D01*
Y01726*
Y01726*
X01379*
Y01726*
Y01726*
G37*
G36*
X01382D02*
X01381D01*
Y01726*
Y01726*
X01382*
Y01726*
Y01726*
G37*
G36*
X01376D02*
X01376D01*
Y01726*
Y01726*
X01376*
Y01726*
Y01726*
G37*
G36*
X01363D02*
X01362D01*
Y01726*
Y01726*
X01363*
Y01726*
Y01726*
G37*
G36*
X01374D02*
X01373D01*
Y01726*
Y01726*
X01374*
Y01726*
Y01726*
G37*
G36*
X01387Y01729D02*
X01386D01*
Y01729*
Y01728*
X01387*
Y01729*
Y01729*
G37*
G36*
X01371Y01864D02*
X0137D01*
Y01863*
Y01863*
X01371*
Y01863*
Y01864*
G37*
G36*
X01347Y01734D02*
X01346D01*
Y01734*
Y01733*
X01347*
Y01734*
Y01734*
G37*
G36*
X01406Y01732D02*
X01405D01*
Y01731*
Y01731*
X01406*
Y01731*
Y01732*
G37*
G36*
X0139D02*
X01389D01*
Y01731*
Y01731*
X0139*
Y01731*
Y01732*
G37*
G36*
X01403D02*
X01402D01*
Y01731*
Y01731*
X01403*
Y01731*
Y01732*
G37*
G36*
X01366Y01734D02*
X01365D01*
Y01734*
Y01733*
X01366*
Y01734*
Y01734*
G37*
G36*
X01368D02*
X01368D01*
Y01734*
Y01733*
X01368*
Y01734*
Y01734*
G37*
G36*
X01363D02*
X01362D01*
Y01734*
Y01733*
X01363*
Y01734*
Y01734*
G37*
G36*
X0135D02*
X01349D01*
Y01734*
Y01733*
X0135*
Y01734*
Y01734*
G37*
G36*
X01353D02*
X01352D01*
Y01734*
Y01733*
X01353*
Y01734*
Y01734*
G37*
G36*
Y01732D02*
X01352D01*
Y01731*
Y01731*
X01353*
Y01731*
Y01732*
G37*
G36*
X01376Y01864D02*
X01376D01*
Y01863*
Y01863*
X01376*
Y01863*
Y01864*
G37*
G36*
X0135Y01732D02*
X01349D01*
Y01731*
Y01731*
X0135*
Y01731*
Y01732*
G37*
G36*
X01395Y01729D02*
X01394D01*
Y01729*
Y01728*
X01395*
Y01729*
Y01729*
G37*
G36*
X01398D02*
X01397D01*
Y01729*
Y01728*
X01398*
Y01729*
Y01729*
G37*
G36*
X01384Y01732D02*
X01383D01*
Y01731*
Y01731*
X01384*
Y01731*
Y01732*
G37*
G36*
X01387D02*
X01386D01*
Y01731*
Y01731*
X01387*
Y01731*
Y01732*
G37*
G36*
X01374Y01864D02*
X01373D01*
Y01863*
Y01863*
X01374*
Y01863*
Y01864*
G37*
G36*
X01366Y01732D02*
X01365D01*
Y01731*
Y01731*
X01366*
Y01731*
Y01732*
G37*
G36*
X01368D02*
X01368D01*
Y01731*
Y01731*
X01368*
Y01731*
Y01732*
G37*
G36*
X01387Y01867D02*
X01386D01*
Y01866*
Y01866*
X01387*
Y01866*
Y01867*
G37*
G36*
X01374D02*
X01373D01*
Y01866*
Y01866*
X01374*
Y01866*
Y01867*
G37*
G36*
X01384Y01716D02*
X01383D01*
Y01715*
Y01715*
X01384*
Y01715*
Y01716*
G37*
G36*
X01371D02*
X0137D01*
Y01715*
Y01715*
X01371*
Y01715*
Y01716*
G37*
G36*
Y01869D02*
X0137D01*
Y01869*
Y01868*
X01371*
Y01869*
Y01869*
G37*
G36*
X01368Y01718D02*
X01368D01*
Y01718*
Y01718*
X01368*
Y01718*
Y01718*
G37*
G36*
X01371D02*
X0137D01*
Y01718*
Y01718*
X01371*
Y01718*
Y01718*
G37*
G36*
X01366D02*
X01365D01*
Y01718*
Y01718*
X01366*
Y01718*
Y01718*
G37*
G36*
X01355D02*
X01354D01*
Y01718*
Y01718*
X01355*
Y01718*
Y01718*
G37*
G36*
X01358D02*
X01357D01*
Y01718*
Y01718*
X01358*
Y01718*
Y01718*
G37*
G36*
X0139Y01713D02*
X01389D01*
Y01713*
Y01712*
X0139*
Y01713*
Y01713*
G37*
G36*
X01371Y01877D02*
X0137D01*
Y01877*
Y01876*
X01371*
Y01877*
Y01877*
G37*
G36*
X01379Y01713D02*
X01378D01*
Y01713*
Y01712*
X01379*
Y01713*
Y01713*
G37*
G36*
X01366D02*
X01365D01*
Y01713*
Y01712*
X01366*
Y01713*
Y01713*
G37*
G36*
X01376D02*
X01376D01*
Y01713*
Y01712*
X01376*
Y01713*
Y01713*
G37*
G36*
X01374Y01869D02*
X01373D01*
Y01869*
Y01868*
X01374*
Y01869*
Y01869*
G37*
G36*
X01368Y01716D02*
X01368D01*
Y01715*
Y01715*
X01368*
Y01715*
Y01716*
G37*
G36*
X01358D02*
X01357D01*
Y01715*
Y01715*
X01358*
Y01715*
Y01716*
G37*
G36*
X01371Y01874D02*
X0137D01*
Y01874*
Y01874*
X01371*
Y01874*
Y01874*
G37*
G36*
Y01872D02*
X0137D01*
Y01871*
Y01871*
X01371*
Y01871*
Y01872*
G37*
G36*
X01374Y01718D02*
X01373D01*
Y01718*
Y01718*
X01374*
Y01718*
Y01718*
G37*
G36*
X0135Y01724D02*
X01349D01*
Y01723*
Y01723*
X0135*
Y01723*
Y01724*
G37*
G36*
X01358D02*
X01357D01*
Y01723*
Y01723*
X01358*
Y01723*
Y01724*
G37*
G36*
X01347D02*
X01346D01*
Y01723*
Y01723*
X01347*
Y01723*
Y01724*
G37*
G36*
X01387Y01721D02*
X01386D01*
Y01721*
Y0172*
X01387*
Y01721*
Y01721*
G37*
G36*
X014D02*
X01399D01*
Y01721*
Y0172*
X014*
Y01721*
Y01721*
G37*
G36*
X01379Y01724D02*
X01378D01*
Y01723*
Y01723*
X01379*
Y01723*
Y01724*
G37*
G36*
X01392D02*
X01391D01*
Y01723*
Y01723*
X01392*
Y01723*
Y01724*
G37*
G36*
X01376D02*
X01376D01*
Y01723*
Y01723*
X01376*
Y01723*
Y01724*
G37*
G36*
X01361D02*
X0136D01*
Y01723*
Y01723*
X01361*
Y01723*
Y01724*
G37*
G36*
X01363D02*
X01362D01*
Y01723*
Y01723*
X01363*
Y01723*
Y01724*
G37*
G36*
X0139Y01718D02*
X01389D01*
Y01718*
Y01718*
X0139*
Y01718*
Y01718*
G37*
G36*
X01398D02*
X01397D01*
Y01718*
Y01718*
X01398*
Y01718*
Y01718*
G37*
G36*
X01387D02*
X01386D01*
Y01718*
Y01718*
X01387*
Y01718*
Y01718*
G37*
G36*
X01382D02*
X01381D01*
Y01718*
Y01718*
X01382*
Y01718*
Y01718*
G37*
G36*
X01384D02*
X01383D01*
Y01718*
Y01718*
X01384*
Y01718*
Y01718*
G37*
G36*
X01368Y01721D02*
X01368D01*
Y01721*
Y0172*
X01368*
Y01721*
Y01721*
G37*
G36*
X01384D02*
X01383D01*
Y01721*
Y0172*
X01384*
Y01721*
Y01721*
G37*
G36*
X01355D02*
X01354D01*
Y01721*
Y0172*
X01355*
Y01721*
Y01721*
G37*
G36*
X014Y01718D02*
X01399D01*
Y01718*
Y01718*
X014*
Y01718*
Y01718*
G37*
G36*
X01371Y01867D02*
X0137D01*
Y01866*
Y01866*
X01371*
Y01866*
Y01867*
G37*
G36*
Y01734D02*
X0137D01*
Y01734*
Y01733*
X01371*
Y01734*
Y01734*
G37*
G36*
X01379Y01745D02*
X01378D01*
Y01744*
Y01744*
X01379*
Y01744*
Y01745*
G37*
G36*
X01382D02*
X01381D01*
Y01744*
Y01744*
X01382*
Y01744*
Y01745*
G37*
G36*
X01376D02*
X01376D01*
Y01744*
Y01744*
X01376*
Y01744*
Y01745*
G37*
G36*
X01361D02*
X0136D01*
Y01744*
Y01744*
X01361*
Y01744*
Y01745*
G37*
G36*
X01374D02*
X01373D01*
Y01744*
Y01744*
X01374*
Y01744*
Y01745*
G37*
G36*
X01403D02*
X01402D01*
Y01744*
Y01744*
X01403*
Y01744*
Y01745*
G37*
G36*
X01411D02*
X0141D01*
Y01744*
Y01744*
X01411*
Y01744*
Y01745*
G37*
G36*
X014D02*
X01399D01*
Y01744*
Y01744*
X014*
Y01744*
Y01745*
G37*
G36*
X01395D02*
X01394D01*
Y01744*
Y01744*
X01395*
Y01744*
Y01745*
G37*
G36*
X01398D02*
X01397D01*
Y01744*
Y01744*
X01398*
Y01744*
Y01745*
G37*
G36*
X014Y01742D02*
X01399D01*
Y01742*
Y01741*
X014*
Y01742*
Y01742*
G37*
G36*
X01413D02*
X01413D01*
Y01742*
Y01741*
X01413*
Y01742*
Y01742*
G37*
G36*
X01398D02*
X01397D01*
Y01742*
Y01741*
X01398*
Y01742*
Y01742*
G37*
G36*
X01376D02*
X01376D01*
Y01742*
Y01741*
X01376*
Y01742*
Y01742*
G37*
G36*
X01379D02*
X01378D01*
Y01742*
Y01741*
X01379*
Y01742*
Y01742*
G37*
G36*
X01355Y01745D02*
X01354D01*
Y01744*
Y01744*
X01355*
Y01744*
Y01745*
G37*
G36*
X01358D02*
X01357D01*
Y01744*
Y01744*
X01358*
Y01744*
Y01745*
G37*
G36*
X01353D02*
X01352D01*
Y01744*
Y01744*
X01353*
Y01744*
Y01745*
G37*
G36*
X01342D02*
X01341D01*
Y01744*
Y01744*
X01342*
Y01744*
Y01745*
G37*
G36*
X01345D02*
X01344D01*
Y01744*
Y01744*
X01345*
Y01744*
Y01745*
G37*
G36*
X01413D02*
X01413D01*
Y01744*
Y01744*
X01413*
Y01744*
Y01745*
G37*
G36*
X01395Y01748D02*
X01394D01*
Y01747*
Y01747*
X01395*
Y01747*
Y01748*
G37*
G36*
X01398D02*
X01397D01*
Y01747*
Y01747*
X01398*
Y01747*
Y01748*
G37*
G36*
X01374Y01861D02*
X01373D01*
Y01861*
Y0186*
X01374*
Y01861*
Y01861*
G37*
G36*
X01379Y01748D02*
X01378D01*
Y01747*
Y01747*
X01379*
Y01747*
Y01748*
G37*
G36*
X01382D02*
X01381D01*
Y01747*
Y01747*
X01382*
Y01747*
Y01748*
G37*
G36*
X01413D02*
X01413D01*
Y01747*
Y01747*
X01413*
Y01747*
Y01748*
G37*
G36*
X01342Y0175D02*
X01341D01*
Y0175*
Y01749*
X01342*
Y0175*
Y0175*
G37*
G36*
X01411Y01748D02*
X0141D01*
Y01747*
Y01747*
X01411*
Y01747*
Y01748*
G37*
G36*
X014D02*
X01399D01*
Y01747*
Y01747*
X014*
Y01747*
Y01748*
G37*
G36*
X01403D02*
X01402D01*
Y01747*
Y01747*
X01403*
Y01747*
Y01748*
G37*
G36*
X01355D02*
X01354D01*
Y01747*
Y01747*
X01355*
Y01747*
Y01748*
G37*
G36*
X01358D02*
X01357D01*
Y01747*
Y01747*
X01358*
Y01747*
Y01748*
G37*
G36*
X01353D02*
X01352D01*
Y01747*
Y01747*
X01353*
Y01747*
Y01748*
G37*
G36*
X01384Y01861D02*
X01383D01*
Y01861*
Y0186*
X01384*
Y01861*
Y01861*
G37*
G36*
X01342Y01748D02*
X01341D01*
Y01747*
Y01747*
X01342*
Y01747*
Y01748*
G37*
G36*
X01374D02*
X01373D01*
Y01747*
Y01747*
X01374*
Y01747*
Y01748*
G37*
G36*
X01376D02*
X01376D01*
Y01747*
Y01747*
X01376*
Y01747*
Y01748*
G37*
G36*
X01371D02*
X0137D01*
Y01747*
Y01747*
X01371*
Y01747*
Y01748*
G37*
G36*
X01361D02*
X0136D01*
Y01747*
Y01747*
X01361*
Y01747*
Y01748*
G37*
G36*
X01376Y01861D02*
X01376D01*
Y01861*
Y0186*
X01376*
Y01861*
Y01861*
G37*
G36*
X01353Y01737D02*
X01352D01*
Y01737*
Y01736*
X01353*
Y01737*
Y01737*
G37*
G36*
X01363D02*
X01362D01*
Y01737*
Y01736*
X01363*
Y01737*
Y01737*
G37*
G36*
X0135D02*
X01349D01*
Y01737*
Y01736*
X0135*
Y01737*
Y01737*
G37*
G36*
X01361Y01864D02*
X0136D01*
Y01863*
Y01863*
X01361*
Y01863*
Y01864*
G37*
G36*
X01347Y01737D02*
X01346D01*
Y01737*
Y01736*
X01347*
Y01737*
Y01737*
G37*
G36*
X01384D02*
X01383D01*
Y01737*
Y01736*
X01384*
Y01737*
Y01737*
G37*
G36*
X01387D02*
X01386D01*
Y01737*
Y01736*
X01387*
Y01737*
Y01737*
G37*
G36*
X01371D02*
X0137D01*
Y01737*
Y01736*
X01371*
Y01737*
Y01737*
G37*
G36*
X01366D02*
X01365D01*
Y01737*
Y01736*
X01366*
Y01737*
Y01737*
G37*
G36*
X01368D02*
X01368D01*
Y01737*
Y01736*
X01368*
Y01737*
Y01737*
G37*
G36*
X0139Y01734D02*
X01389D01*
Y01734*
Y01733*
X0139*
Y01734*
Y01734*
G37*
G36*
X01392D02*
X01391D01*
Y01734*
Y01733*
X01392*
Y01734*
Y01734*
G37*
G36*
X01387D02*
X01386D01*
Y01734*
Y01733*
X01387*
Y01734*
Y01734*
G37*
G36*
X01382D02*
X01381D01*
Y01734*
Y01733*
X01382*
Y01734*
Y01734*
G37*
G36*
X01384D02*
X01383D01*
Y01734*
Y01733*
X01384*
Y01734*
Y01734*
G37*
G36*
X01413D02*
X01413D01*
Y01734*
Y01733*
X01413*
Y01734*
Y01734*
G37*
G36*
X01354Y01735D02*
X01354D01*
Y01735*
X01354*
Y01735*
G37*
G36*
X01363Y01864D02*
X01362D01*
Y01863*
Y01863*
X01363*
Y01863*
Y01864*
G37*
G36*
X01403Y01734D02*
X01402D01*
Y01734*
Y01733*
X01403*
Y01734*
Y01734*
G37*
G36*
X01406D02*
X01405D01*
Y01734*
Y01733*
X01406*
Y01734*
Y01734*
G37*
G36*
X0139Y01737D02*
X01389D01*
Y01737*
Y01736*
X0139*
Y01737*
Y01737*
G37*
G36*
X01398Y0174D02*
X01397D01*
Y01739*
Y01739*
X01398*
Y01739*
Y0174*
G37*
G36*
X01406D02*
X01405D01*
Y01739*
Y01739*
X01406*
Y01739*
Y0174*
G37*
G36*
X0139D02*
X01389D01*
Y01739*
Y01739*
X0139*
Y01739*
Y0174*
G37*
G36*
X01376D02*
X01376D01*
Y01739*
Y01739*
X01376*
Y01739*
Y0174*
G37*
G36*
X01387D02*
X01386D01*
Y01739*
Y01739*
X01387*
Y01739*
Y0174*
G37*
G36*
Y01861D02*
X01386D01*
Y01861*
Y0186*
X01387*
Y01861*
Y01861*
G37*
G36*
X01374Y01742D02*
X01373D01*
Y01742*
Y01741*
X01374*
Y01742*
Y01742*
G37*
G36*
X01358D02*
X01357D01*
Y01742*
Y01741*
X01358*
Y01742*
Y01742*
G37*
G36*
X01342D02*
X01341D01*
Y01742*
Y01741*
X01342*
Y01742*
Y01742*
G37*
G36*
X01355D02*
X01354D01*
Y01742*
Y01741*
X01355*
Y01742*
Y01742*
G37*
G36*
X01408Y01737D02*
X01407D01*
Y01737*
Y01736*
X01408*
Y01737*
Y01737*
G37*
G36*
X01398Y01861D02*
X01397D01*
Y01861*
Y0186*
X01398*
Y01861*
Y01861*
G37*
G36*
X01406Y01737D02*
X01405D01*
Y01737*
Y01736*
X01406*
Y01737*
Y01737*
G37*
G36*
X01392D02*
X01391D01*
Y01737*
Y01736*
X01392*
Y01737*
Y01737*
G37*
G36*
X01403D02*
X01402D01*
Y01737*
Y01736*
X01403*
Y01737*
Y01737*
G37*
G36*
X01366Y0174D02*
X01365D01*
Y01739*
Y01739*
X01366*
Y01739*
Y0174*
G37*
G36*
X01368D02*
X01368D01*
Y01739*
Y01739*
X01368*
Y01739*
Y0174*
G37*
G36*
X01358D02*
X01357D01*
Y01739*
Y01739*
X01358*
Y01739*
Y0174*
G37*
G36*
X01347D02*
X01346D01*
Y01739*
Y01739*
X01347*
Y01739*
Y0174*
G37*
G36*
X0135D02*
X01349D01*
Y01739*
Y01739*
X0135*
Y01739*
Y0174*
G37*
G36*
X01368Y01779D02*
X01368D01*
Y01779*
Y01778*
X01368*
Y01779*
Y01779*
G37*
G36*
Y01835D02*
X01368D01*
Y01834*
Y01834*
X01368*
Y01834*
Y01835*
G37*
G36*
X01374D02*
X01373D01*
Y01834*
Y01834*
X01374*
Y01834*
Y01835*
G37*
G36*
X01366D02*
X01365D01*
Y01834*
Y01834*
X01366*
Y01834*
Y01835*
G37*
G36*
X01361D02*
X0136D01*
Y01834*
Y01834*
X01361*
Y01834*
Y01835*
G37*
G36*
X01363D02*
X01362D01*
Y01834*
Y01834*
X01363*
Y01834*
Y01835*
G37*
G36*
X0139D02*
X01389D01*
Y01834*
Y01834*
X0139*
Y01834*
Y01835*
G37*
G36*
X014D02*
X01399D01*
Y01834*
Y01834*
X014*
Y01834*
Y01835*
G37*
G36*
X01387D02*
X01386D01*
Y01834*
Y01834*
X01387*
Y01834*
Y01835*
G37*
G36*
X01382D02*
X01381D01*
Y01834*
Y01834*
X01382*
Y01834*
Y01835*
G37*
G36*
X01384D02*
X01383D01*
Y01834*
Y01834*
X01384*
Y01834*
Y01835*
G37*
G36*
X01337D02*
X01336D01*
Y01834*
Y01834*
X01337*
Y01834*
Y01835*
G37*
G36*
X01339D02*
X01339D01*
Y01834*
Y01834*
X01339*
Y01834*
Y01835*
G37*
G36*
X01376Y01853D02*
X01376D01*
Y01853*
Y01852*
X01376*
Y01853*
Y01853*
G37*
G36*
X014Y01832D02*
X01399D01*
Y01832*
Y01831*
X014*
Y01832*
Y01832*
G37*
G36*
X01403D02*
X01402D01*
Y01832*
Y01831*
X01403*
Y01832*
Y01832*
G37*
G36*
X01355Y01835D02*
X01354D01*
Y01834*
Y01834*
X01355*
Y01834*
Y01835*
G37*
G36*
X01358D02*
X01357D01*
Y01834*
Y01834*
X01358*
Y01834*
Y01835*
G37*
G36*
X01347D02*
X01346D01*
Y01834*
Y01834*
X01347*
Y01834*
Y01835*
G37*
G36*
X01342D02*
X01341D01*
Y01834*
Y01834*
X01342*
Y01834*
Y01835*
G37*
G36*
X01345D02*
X01344D01*
Y01834*
Y01834*
X01345*
Y01834*
Y01835*
G37*
G36*
X01403D02*
X01402D01*
Y01834*
Y01834*
X01403*
Y01834*
Y01835*
G37*
G36*
X01392Y01837D02*
X01391D01*
Y01837*
Y01837*
X01392*
Y01837*
Y01837*
G37*
G36*
X01395D02*
X01394D01*
Y01837*
Y01837*
X01395*
Y01837*
Y01837*
G37*
G36*
X0139D02*
X01389D01*
Y01837*
Y01837*
X0139*
Y01837*
Y01837*
G37*
G36*
X01384D02*
X01383D01*
Y01837*
Y01837*
X01384*
Y01837*
Y01837*
G37*
G36*
X01387D02*
X01386D01*
Y01837*
Y01837*
X01387*
Y01837*
Y01837*
G37*
G36*
X01419D02*
X01418D01*
Y01837*
Y01837*
X01419*
Y01837*
Y01837*
G37*
G36*
X01347Y0184D02*
X01346D01*
Y0184*
Y01839*
X01347*
Y0184*
Y0184*
G37*
G36*
X01416Y01837D02*
X01415D01*
Y01837*
Y01837*
X01416*
Y01837*
Y01837*
G37*
G36*
X01374Y01853D02*
X01373D01*
Y01853*
Y01852*
X01374*
Y01853*
Y01853*
G37*
G36*
X01413Y01837D02*
X01413D01*
Y01837*
Y01837*
X01413*
Y01837*
Y01837*
G37*
G36*
X01355D02*
X01354D01*
Y01837*
Y01837*
X01355*
Y01837*
Y01837*
G37*
G36*
X01358D02*
X01357D01*
Y01837*
Y01837*
X01358*
Y01837*
Y01837*
G37*
G36*
X01353D02*
X01352D01*
Y01837*
Y01837*
X01353*
Y01837*
Y01837*
G37*
G36*
X01406Y01835D02*
X01405D01*
Y01834*
Y01834*
X01406*
Y01834*
Y01835*
G37*
G36*
X01408D02*
X01407D01*
Y01834*
Y01834*
X01408*
Y01834*
Y01835*
G37*
G36*
X01371Y01837D02*
X0137D01*
Y01837*
Y01837*
X01371*
Y01837*
Y01837*
G37*
G36*
X01374D02*
X01373D01*
Y01837*
Y01837*
X01374*
Y01837*
Y01837*
G37*
G36*
X01366D02*
X01365D01*
Y01837*
Y01837*
X01366*
Y01837*
Y01837*
G37*
G36*
X01361D02*
X0136D01*
Y01837*
Y01837*
X01361*
Y01837*
Y01837*
G37*
G36*
X01363D02*
X01362D01*
Y01837*
Y01837*
X01363*
Y01837*
Y01837*
G37*
G36*
X01361Y01827D02*
X0136D01*
Y01826*
Y01826*
X01361*
Y01826*
Y01827*
G37*
G36*
X01363D02*
X01362D01*
Y01826*
Y01826*
X01363*
Y01826*
Y01827*
G37*
G36*
X01358D02*
X01357D01*
Y01826*
Y01826*
X01358*
Y01826*
Y01827*
G37*
G36*
X01387Y01824D02*
X01386D01*
Y01824*
Y01823*
X01387*
Y01824*
Y01824*
G37*
G36*
X0139D02*
X01389D01*
Y01824*
Y01823*
X0139*
Y01824*
Y01824*
G37*
G36*
X01379Y01853D02*
X01378D01*
Y01853*
Y01852*
X01379*
Y01853*
Y01853*
G37*
G36*
X01353Y0183D02*
X01352D01*
Y01829*
Y01829*
X01353*
Y01829*
Y0183*
G37*
G36*
X01392Y01827D02*
X01391D01*
Y01826*
Y01826*
X01392*
Y01826*
Y01827*
G37*
G36*
X01387D02*
X01386D01*
Y01826*
Y01826*
X01387*
Y01826*
Y01827*
G37*
G36*
X0139D02*
X01389D01*
Y01826*
Y01826*
X0139*
Y01826*
Y01827*
G37*
G36*
X01387Y01822D02*
X01386D01*
Y01821*
Y01821*
X01387*
Y01821*
Y01822*
G37*
G36*
X01361Y01824D02*
X0136D01*
Y01824*
Y01823*
X01361*
Y01824*
Y01824*
G37*
G36*
X01382Y01822D02*
X01381D01*
Y01821*
Y01821*
X01382*
Y01821*
Y01822*
G37*
G36*
X01376D02*
X01376D01*
Y01821*
Y01821*
X01376*
Y01821*
Y01822*
G37*
G36*
X01379D02*
X01378D01*
Y01821*
Y01821*
X01379*
Y01821*
Y01822*
G37*
G36*
X01376Y01824D02*
X01376D01*
Y01824*
Y01823*
X01376*
Y01824*
Y01824*
G37*
G36*
X01379D02*
X01378D01*
Y01824*
Y01823*
X01379*
Y01824*
Y01824*
G37*
G36*
X01368D02*
X01368D01*
Y01824*
Y01823*
X01368*
Y01824*
Y01824*
G37*
G36*
X01363D02*
X01362D01*
Y01824*
Y01823*
X01363*
Y01824*
Y01824*
G37*
G36*
X01366D02*
X01365D01*
Y01824*
Y01823*
X01366*
Y01824*
Y01824*
G37*
G36*
X01355Y0183D02*
X01354D01*
Y01829*
Y01829*
X01355*
Y01829*
Y0183*
G37*
G36*
X01366Y01832D02*
X01365D01*
Y01832*
Y01831*
X01366*
Y01832*
Y01832*
G37*
G36*
X01368D02*
X01368D01*
Y01832*
Y01831*
X01368*
Y01832*
Y01832*
G37*
G36*
X01363D02*
X01362D01*
Y01832*
Y01831*
X01363*
Y01832*
Y01832*
G37*
G36*
X0135D02*
X01349D01*
Y01832*
Y01831*
X0135*
Y01832*
Y01832*
G37*
G36*
X01353D02*
X01352D01*
Y01832*
Y01831*
X01353*
Y01832*
Y01832*
G37*
G36*
X01395D02*
X01394D01*
Y01832*
Y01831*
X01395*
Y01832*
Y01832*
G37*
G36*
X01398D02*
X01397D01*
Y01832*
Y01831*
X01398*
Y01832*
Y01832*
G37*
G36*
X01384D02*
X01383D01*
Y01832*
Y01831*
X01384*
Y01832*
Y01832*
G37*
G36*
X01379D02*
X01378D01*
Y01832*
Y01831*
X01379*
Y01832*
Y01832*
G37*
G36*
X01382D02*
X01381D01*
Y01832*
Y01831*
X01382*
Y01832*
Y01832*
G37*
G36*
Y0183D02*
X01381D01*
Y01829*
Y01829*
X01382*
Y01829*
Y0183*
G37*
G36*
X0139D02*
X01389D01*
Y01829*
Y01829*
X0139*
Y01829*
Y0183*
G37*
G36*
X01371D02*
X0137D01*
Y01829*
Y01829*
X01371*
Y01829*
Y0183*
G37*
G36*
X01358D02*
X01357D01*
Y01829*
Y01829*
X01358*
Y01829*
Y0183*
G37*
G36*
X01368D02*
X01368D01*
Y01829*
Y01829*
X01368*
Y01829*
Y0183*
G37*
G36*
X01345Y01832D02*
X01344D01*
Y01832*
Y01831*
X01345*
Y01832*
Y01832*
G37*
G36*
X01347D02*
X01346D01*
Y01832*
Y01831*
X01347*
Y01832*
Y01832*
G37*
G36*
X01398Y0183D02*
X01397D01*
Y01829*
Y01829*
X01398*
Y01829*
Y0183*
G37*
G36*
X01392D02*
X01391D01*
Y01829*
Y01829*
X01392*
Y01829*
Y0183*
G37*
G36*
X01395D02*
X01394D01*
Y01829*
Y01829*
X01395*
Y01829*
Y0183*
G37*
G36*
X0135Y0184D02*
X01349D01*
Y0184*
Y01839*
X0135*
Y0184*
Y0184*
G37*
G36*
X01366Y01848D02*
X01365D01*
Y01848*
Y01847*
X01366*
Y01848*
Y01848*
G37*
G36*
X01368D02*
X01368D01*
Y01848*
Y01847*
X01368*
Y01848*
Y01848*
G37*
G36*
X01363D02*
X01362D01*
Y01848*
Y01847*
X01363*
Y01848*
Y01848*
G37*
G36*
X01358D02*
X01357D01*
Y01848*
Y01847*
X01358*
Y01848*
Y01848*
G37*
G36*
X01361D02*
X0136D01*
Y01848*
Y01847*
X01361*
Y01848*
Y01848*
G37*
G36*
X01387D02*
X01386D01*
Y01848*
Y01847*
X01387*
Y01848*
Y01848*
G37*
G36*
X0139D02*
X01389D01*
Y01848*
Y01847*
X0139*
Y01848*
Y01848*
G37*
G36*
X01384D02*
X01383D01*
Y01848*
Y01847*
X01384*
Y01848*
Y01848*
G37*
G36*
X01374D02*
X01373D01*
Y01848*
Y01847*
X01374*
Y01848*
Y01848*
G37*
G36*
X01382D02*
X01381D01*
Y01848*
Y01847*
X01382*
Y01848*
Y01848*
G37*
G36*
X01398Y01845D02*
X01397D01*
Y01845*
Y01845*
X01398*
Y01845*
Y01845*
G37*
G36*
X014D02*
X01399D01*
Y01845*
Y01845*
X014*
Y01845*
Y01845*
G37*
G36*
X01395D02*
X01394D01*
Y01845*
Y01845*
X01395*
Y01845*
Y01845*
G37*
G36*
X01384D02*
X01383D01*
Y01845*
Y01845*
X01384*
Y01845*
Y01845*
G37*
G36*
X01387D02*
X01386D01*
Y01845*
Y01845*
X01387*
Y01845*
Y01845*
G37*
G36*
X01342Y01848D02*
X01341D01*
Y01848*
Y01847*
X01342*
Y01848*
Y01848*
G37*
G36*
X01345D02*
X01344D01*
Y01848*
Y01847*
X01345*
Y01848*
Y01848*
G37*
G36*
X01339D02*
X01339D01*
Y01848*
Y01847*
X01339*
Y01848*
Y01848*
G37*
G36*
X01403Y01845D02*
X01402D01*
Y01845*
Y01845*
X01403*
Y01845*
Y01845*
G37*
G36*
X01371Y01853D02*
X0137D01*
Y01853*
Y01852*
X01371*
Y01853*
Y01853*
G37*
G36*
X014Y01848D02*
X01399D01*
Y01848*
Y01847*
X014*
Y01848*
Y01848*
G37*
G36*
X01403Y01851D02*
X01402D01*
Y0185*
Y0185*
X01403*
Y0185*
Y01851*
G37*
G36*
X01406D02*
X01405D01*
Y0185*
Y0185*
X01406*
Y0185*
Y01851*
G37*
G36*
X0139D02*
X01389D01*
Y0185*
Y0185*
X0139*
Y0185*
Y01851*
G37*
G36*
X01384D02*
X01383D01*
Y0185*
Y0185*
X01384*
Y0185*
Y01851*
G37*
G36*
X01387D02*
X01386D01*
Y0185*
Y0185*
X01387*
Y0185*
Y01851*
G37*
G36*
X01361Y01853D02*
X0136D01*
Y01853*
Y01852*
X01361*
Y01853*
Y01853*
G37*
G36*
X01363D02*
X01362D01*
Y01853*
Y01852*
X01363*
Y01853*
Y01853*
G37*
G36*
X01358D02*
X01357D01*
Y01853*
Y01852*
X01358*
Y01853*
Y01853*
G37*
G36*
X01408Y01851D02*
X01407D01*
Y0185*
Y0185*
X01408*
Y0185*
Y01851*
G37*
G36*
X01355Y01853D02*
X01354D01*
Y01853*
Y01852*
X01355*
Y01853*
Y01853*
G37*
G36*
X01358Y01851D02*
X01357D01*
Y0185*
Y0185*
X01358*
Y0185*
Y01851*
G37*
G36*
X01361D02*
X0136D01*
Y0185*
Y0185*
X01361*
Y0185*
Y01851*
G37*
G36*
X01337D02*
X01336D01*
Y0185*
Y0185*
X01337*
Y0185*
Y01851*
G37*
G36*
X01403Y01848D02*
X01402D01*
Y01848*
Y01847*
X01403*
Y01848*
Y01848*
G37*
G36*
X01406D02*
X01405D01*
Y01848*
Y01847*
X01406*
Y01848*
Y01848*
G37*
G36*
X01376Y01851D02*
X01376D01*
Y0185*
Y0185*
X01376*
Y0185*
Y01851*
G37*
G36*
X01382D02*
X01381D01*
Y0185*
Y0185*
X01382*
Y0185*
Y01851*
G37*
G36*
X01374D02*
X01373D01*
Y0185*
Y0185*
X01374*
Y0185*
Y01851*
G37*
G36*
X01363D02*
X01362D01*
Y0185*
Y0185*
X01363*
Y0185*
Y01851*
G37*
G36*
X01366D02*
X01365D01*
Y0185*
Y0185*
X01366*
Y0185*
Y01851*
G37*
G36*
X01347Y01843D02*
X01346D01*
Y01842*
Y01842*
X01347*
Y01842*
Y01843*
G37*
G36*
X0135D02*
X01349D01*
Y01842*
Y01842*
X0135*
Y01842*
Y01843*
G37*
G36*
X01398Y0184D02*
X01397D01*
Y0184*
Y01839*
X01398*
Y0184*
Y0184*
G37*
G36*
X01392D02*
X01391D01*
Y0184*
Y01839*
X01392*
Y0184*
Y0184*
G37*
G36*
X01395D02*
X01394D01*
Y0184*
Y01839*
X01395*
Y0184*
Y0184*
G37*
G36*
X01366Y01843D02*
X01365D01*
Y01842*
Y01842*
X01366*
Y01842*
Y01843*
G37*
G36*
X01368D02*
X01368D01*
Y01842*
Y01842*
X01368*
Y01842*
Y01843*
G37*
G36*
X01358D02*
X01357D01*
Y01842*
Y01842*
X01358*
Y01842*
Y01843*
G37*
G36*
X01353D02*
X01352D01*
Y01842*
Y01842*
X01353*
Y01842*
Y01843*
G37*
G36*
X01355D02*
X01354D01*
Y01842*
Y01842*
X01355*
Y01842*
Y01843*
G37*
G36*
X01361Y0184D02*
X0136D01*
Y0184*
Y01839*
X01361*
Y0184*
Y0184*
G37*
G36*
X01368D02*
X01368D01*
Y0184*
Y01839*
X01368*
Y0184*
Y0184*
G37*
G36*
X01358D02*
X01357D01*
Y0184*
Y01839*
X01358*
Y0184*
Y0184*
G37*
G36*
X01353D02*
X01352D01*
Y0184*
Y01839*
X01353*
Y0184*
Y0184*
G37*
G36*
X01355D02*
X01354D01*
Y0184*
Y01839*
X01355*
Y0184*
Y0184*
G37*
G36*
X01387D02*
X01386D01*
Y0184*
Y01839*
X01387*
Y0184*
Y0184*
G37*
G36*
X0139D02*
X01389D01*
Y0184*
Y01839*
X0139*
Y0184*
Y0184*
G37*
G36*
X01379D02*
X01378D01*
Y0184*
Y01839*
X01379*
Y0184*
Y0184*
G37*
G36*
X01371D02*
X0137D01*
Y0184*
Y01839*
X01371*
Y0184*
Y0184*
G37*
G36*
X01374D02*
X01373D01*
Y0184*
Y01839*
X01374*
Y0184*
Y0184*
G37*
G36*
X01371Y01843D02*
X0137D01*
Y01842*
Y01842*
X01371*
Y01842*
Y01843*
G37*
G36*
X01361Y01845D02*
X0136D01*
Y01845*
Y01845*
X01361*
Y01845*
Y01845*
G37*
G36*
X01363D02*
X01362D01*
Y01845*
Y01845*
X01363*
Y01845*
Y01845*
G37*
G36*
X01353D02*
X01352D01*
Y01845*
Y01845*
X01353*
Y01845*
Y01845*
G37*
G36*
X01347D02*
X01346D01*
Y01845*
Y01845*
X01347*
Y01845*
Y01845*
G37*
G36*
X0135D02*
X01349D01*
Y01845*
Y01845*
X0135*
Y01845*
Y01845*
G37*
G36*
X01379D02*
X01378D01*
Y01845*
Y01845*
X01379*
Y01845*
Y01845*
G37*
G36*
X01382D02*
X01381D01*
Y01845*
Y01845*
X01382*
Y01845*
Y01845*
G37*
G36*
X01371D02*
X0137D01*
Y01845*
Y01845*
X01371*
Y01845*
Y01845*
G37*
G36*
X01366D02*
X01365D01*
Y01845*
Y01845*
X01366*
Y01845*
Y01845*
G37*
G36*
X01368D02*
X01368D01*
Y01845*
Y01845*
X01368*
Y01845*
Y01845*
G37*
G36*
X01384Y01843D02*
X01383D01*
Y01842*
Y01842*
X01384*
Y01842*
Y01843*
G37*
G36*
X01392D02*
X01391D01*
Y01842*
Y01842*
X01392*
Y01842*
Y01843*
G37*
G36*
X01382D02*
X01381D01*
Y01842*
Y01842*
X01382*
Y01842*
Y01843*
G37*
G36*
X01374D02*
X01373D01*
Y01842*
Y01842*
X01374*
Y01842*
Y01843*
G37*
G36*
X01379D02*
X01378D01*
Y01842*
Y01842*
X01379*
Y01842*
Y01843*
G37*
G36*
X01342Y01845D02*
X01341D01*
Y01845*
Y01845*
X01342*
Y01845*
Y01845*
G37*
G36*
X01345D02*
X01344D01*
Y01845*
Y01845*
X01345*
Y01845*
Y01845*
G37*
G36*
X014Y01843D02*
X01399D01*
Y01842*
Y01842*
X014*
Y01842*
Y01843*
G37*
G36*
X01395D02*
X01394D01*
Y01842*
Y01842*
X01395*
Y01842*
Y01843*
G37*
G36*
X01398D02*
X01397D01*
Y01842*
Y01842*
X01398*
Y01842*
Y01843*
G37*
G36*
X01374Y01822D02*
X01373D01*
Y01821*
Y01821*
X01374*
Y01821*
Y01822*
G37*
G36*
X01361Y01793D02*
X0136D01*
Y01792*
Y01792*
X01361*
Y01792*
Y01793*
G37*
G36*
X01363D02*
X01362D01*
Y01792*
Y01792*
X01363*
Y01792*
Y01793*
G37*
G36*
X01358D02*
X01357D01*
Y01792*
Y01792*
X01358*
Y01792*
Y01793*
G37*
G36*
X01347D02*
X01346D01*
Y01792*
Y01792*
X01347*
Y01792*
Y01793*
G37*
G36*
X01355D02*
X01354D01*
Y01792*
Y01792*
X01355*
Y01792*
Y01793*
G37*
G36*
X01382D02*
X01381D01*
Y01792*
Y01792*
X01382*
Y01792*
Y01793*
G37*
G36*
X01392D02*
X01391D01*
Y01792*
Y01792*
X01392*
Y01792*
Y01793*
G37*
G36*
X01379D02*
X01378D01*
Y01792*
Y01792*
X01379*
Y01792*
Y01793*
G37*
G36*
X01374D02*
X01373D01*
Y01792*
Y01792*
X01374*
Y01792*
Y01793*
G37*
G36*
X01376D02*
X01376D01*
Y01792*
Y01792*
X01376*
Y01792*
Y01793*
G37*
G36*
Y0179D02*
X01376D01*
Y01789*
Y01789*
X01376*
Y01789*
Y0179*
G37*
G36*
X01379D02*
X01378D01*
Y01789*
Y01789*
X01379*
Y01789*
Y0179*
G37*
G36*
X01361D02*
X0136D01*
Y01789*
Y01789*
X01361*
Y01789*
Y0179*
G37*
G36*
X01392Y01856D02*
X01391D01*
Y01856*
Y01855*
X01392*
Y01856*
Y01856*
G37*
G36*
X01358Y0179D02*
X01357D01*
Y01789*
Y01789*
X01358*
Y01789*
Y0179*
G37*
G36*
X01379Y01856D02*
X01378D01*
Y01856*
Y01855*
X01379*
Y01856*
Y01856*
G37*
G36*
X01408Y0179D02*
X01407D01*
Y01789*
Y01789*
X01408*
Y01789*
Y0179*
G37*
G36*
X01398D02*
X01397D01*
Y01789*
Y01789*
X01398*
Y01789*
Y0179*
G37*
G36*
X0139Y01856D02*
X01389D01*
Y01856*
Y01855*
X0139*
Y01856*
Y01856*
G37*
G36*
X01395Y0179D02*
X01394D01*
Y01789*
Y01789*
X01395*
Y01789*
Y0179*
G37*
G36*
Y01793D02*
X01394D01*
Y01792*
Y01792*
X01395*
Y01792*
Y01793*
G37*
G36*
X01406Y01795D02*
X01405D01*
Y01795*
Y01794*
X01406*
Y01795*
Y01795*
G37*
G36*
X01371Y01856D02*
X0137D01*
Y01856*
Y01855*
X01371*
Y01856*
Y01856*
G37*
G36*
X01398Y01795D02*
X01397D01*
Y01795*
Y01794*
X01398*
Y01795*
Y01795*
G37*
G36*
X01392D02*
X01391D01*
Y01795*
Y01794*
X01392*
Y01795*
Y01795*
G37*
G36*
X01395D02*
X01394D01*
Y01795*
Y01794*
X01395*
Y01795*
Y01795*
G37*
G36*
X01358Y01856D02*
X01357D01*
Y01856*
Y01855*
X01358*
Y01856*
Y01856*
G37*
G36*
X01368Y01798D02*
X01368D01*
Y01797*
Y01797*
X01368*
Y01797*
Y01798*
G37*
G36*
X01355D02*
X01354D01*
Y01797*
Y01797*
X01355*
Y01797*
Y01798*
G37*
G36*
X01366Y01856D02*
X01365D01*
Y01856*
Y01855*
X01366*
Y01856*
Y01856*
G37*
G36*
X01353Y01798D02*
X01352D01*
Y01797*
Y01797*
X01353*
Y01797*
Y01798*
G37*
G36*
X01374Y01856D02*
X01373D01*
Y01856*
Y01855*
X01374*
Y01856*
Y01856*
G37*
G36*
X01358Y01795D02*
X01357D01*
Y01795*
Y01794*
X01358*
Y01795*
Y01795*
G37*
G36*
X01376Y01856D02*
X01376D01*
Y01856*
Y01855*
X01376*
Y01856*
Y01856*
G37*
G36*
X01398Y01793D02*
X01397D01*
Y01792*
Y01792*
X01398*
Y01792*
Y01793*
G37*
G36*
X01408D02*
X01407D01*
Y01792*
Y01792*
X01408*
Y01792*
Y01793*
G37*
G36*
X01376Y01795D02*
X01376D01*
Y01795*
Y01794*
X01376*
Y01795*
Y01795*
G37*
G36*
X01379D02*
X01378D01*
Y01795*
Y01794*
X01379*
Y01795*
Y01795*
G37*
G36*
X01374D02*
X01373D01*
Y01795*
Y01794*
X01374*
Y01795*
Y01795*
G37*
G36*
X01361D02*
X0136D01*
Y01795*
Y01794*
X01361*
Y01795*
Y01795*
G37*
G36*
X01363D02*
X01362D01*
Y01795*
Y01794*
X01363*
Y01795*
Y01795*
G37*
G36*
X0139Y01782D02*
X01389D01*
Y01781*
Y01781*
X0139*
Y01781*
Y01782*
G37*
G36*
X01403D02*
X01402D01*
Y01781*
Y01781*
X01403*
Y01781*
Y01782*
G37*
G36*
X01387D02*
X01386D01*
Y01781*
Y01781*
X01387*
Y01781*
Y01782*
G37*
G36*
X01368D02*
X01368D01*
Y01781*
Y01781*
X01368*
Y01781*
Y01782*
G37*
G36*
X01384D02*
X01383D01*
Y01781*
Y01781*
X01384*
Y01781*
Y01782*
G37*
G36*
X0135Y01785D02*
X01349D01*
Y01784*
Y01784*
X0135*
Y01784*
Y01785*
G37*
G36*
X01353D02*
X01352D01*
Y01784*
Y01784*
X01353*
Y01784*
Y01785*
G37*
G36*
X01347D02*
X01346D01*
Y01784*
Y01784*
X01347*
Y01784*
Y01785*
G37*
G36*
X01406Y01782D02*
X01405D01*
Y01781*
Y01781*
X01406*
Y01781*
Y01782*
G37*
G36*
X01416Y01856D02*
X01415D01*
Y01856*
Y01855*
X01416*
Y01856*
Y01856*
G37*
G36*
X0139Y01779D02*
X01389D01*
Y01779*
Y01778*
X0139*
Y01779*
Y01779*
G37*
G36*
X01398D02*
X01397D01*
Y01779*
Y01778*
X01398*
Y01779*
Y01779*
G37*
G36*
X01387D02*
X01386D01*
Y01779*
Y01778*
X01387*
Y01779*
Y01779*
G37*
G36*
X01376D02*
X01376D01*
Y01779*
Y01778*
X01376*
Y01779*
Y01779*
G37*
G36*
X01379D02*
X01378D01*
Y01779*
Y01778*
X01379*
Y01779*
Y01779*
G37*
G36*
X01363Y01782D02*
X01362D01*
Y01781*
Y01781*
X01363*
Y01781*
Y01782*
G37*
G36*
X01366D02*
X01365D01*
Y01781*
Y01781*
X01366*
Y01781*
Y01782*
G37*
G36*
X0135D02*
X01349D01*
Y01781*
Y01781*
X0135*
Y01781*
Y01782*
G37*
G36*
X01406Y01779D02*
X01405D01*
Y01779*
Y01778*
X01406*
Y01779*
Y01779*
G37*
G36*
X01347Y01782D02*
X01346D01*
Y01781*
Y01781*
X01347*
Y01781*
Y01782*
G37*
G36*
X01363Y01785D02*
X01362D01*
Y01784*
Y01784*
X01363*
Y01784*
Y01785*
G37*
G36*
X01368Y01787D02*
X01368D01*
Y01787*
Y01786*
X01368*
Y01787*
Y01787*
G37*
G36*
X01371D02*
X0137D01*
Y01787*
Y01786*
X01371*
Y01787*
Y01787*
G37*
G36*
X01366D02*
X01365D01*
Y01787*
Y01786*
X01366*
Y01787*
Y01787*
G37*
G36*
X01353D02*
X01352D01*
Y01787*
Y01786*
X01353*
Y01787*
Y01787*
G37*
G36*
X01395Y01856D02*
X01394D01*
Y01856*
Y01855*
X01395*
Y01856*
Y01856*
G37*
G36*
X01403Y01787D02*
X01402D01*
Y01787*
Y01786*
X01403*
Y01787*
Y01787*
G37*
G36*
X01406D02*
X01405D01*
Y01787*
Y01786*
X01406*
Y01787*
Y01787*
G37*
G36*
X0139D02*
X01389D01*
Y01787*
Y01786*
X0139*
Y01787*
Y01787*
G37*
G36*
X01384D02*
X01383D01*
Y01787*
Y01786*
X01384*
Y01787*
Y01787*
G37*
G36*
X01387D02*
X01386D01*
Y01787*
Y01786*
X01387*
Y01787*
Y01787*
G37*
G36*
X01384Y01785D02*
X01383D01*
Y01784*
Y01784*
X01384*
Y01784*
Y01785*
G37*
G36*
X01387D02*
X01386D01*
Y01784*
Y01784*
X01387*
Y01784*
Y01785*
G37*
G36*
X01371D02*
X0137D01*
Y01784*
Y01784*
X01371*
Y01784*
Y01785*
G37*
G36*
X01366D02*
X01365D01*
Y01784*
Y01784*
X01366*
Y01784*
Y01785*
G37*
G36*
X01368D02*
X01368D01*
Y01784*
Y01784*
X01368*
Y01784*
Y01785*
G37*
G36*
X01406D02*
X01405D01*
Y01784*
Y01784*
X01406*
Y01784*
Y01785*
G37*
G36*
X0135Y01787D02*
X01349D01*
Y01787*
Y01786*
X0135*
Y01787*
Y01787*
G37*
G36*
X01403Y01785D02*
X01402D01*
Y01784*
Y01784*
X01403*
Y01784*
Y01785*
G37*
G36*
X0139D02*
X01389D01*
Y01784*
Y01784*
X0139*
Y01784*
Y01785*
G37*
G36*
X01392D02*
X01391D01*
Y01784*
Y01784*
X01392*
Y01784*
Y01785*
G37*
G36*
X01355Y01856D02*
X01354D01*
Y01856*
Y01855*
X01355*
Y01856*
Y01856*
G37*
G36*
X01363Y01816D02*
X01362D01*
Y01816*
Y01815*
X01363*
Y01816*
Y01816*
G37*
G36*
X01366D02*
X01365D01*
Y01816*
Y01815*
X01366*
Y01816*
Y01816*
G37*
G36*
X01361D02*
X0136D01*
Y01816*
Y01815*
X01361*
Y01816*
Y01816*
G37*
G36*
X01408Y01853D02*
X01407D01*
Y01853*
Y01852*
X01408*
Y01853*
Y01853*
G37*
G36*
X01358Y01816D02*
X01357D01*
Y01816*
Y01815*
X01358*
Y01816*
Y01816*
G37*
G36*
X0139D02*
X01389D01*
Y01816*
Y01815*
X0139*
Y01816*
Y01816*
G37*
G36*
X01392D02*
X01391D01*
Y01816*
Y01815*
X01392*
Y01816*
Y01816*
G37*
G36*
X01387D02*
X01386D01*
Y01816*
Y01815*
X01387*
Y01816*
Y01816*
G37*
G36*
X01392Y01853D02*
X01391D01*
Y01853*
Y01852*
X01392*
Y01853*
Y01853*
G37*
G36*
X01379Y01816D02*
X01378D01*
Y01816*
Y01815*
X01379*
Y01816*
Y01816*
G37*
G36*
X01398Y01811D02*
X01397D01*
Y01811*
Y0181*
X01398*
Y01811*
Y01811*
G37*
G36*
X01411Y01853D02*
X0141D01*
Y01853*
Y01852*
X01411*
Y01853*
Y01853*
G37*
G36*
X01395Y01811D02*
X01394D01*
Y01811*
Y0181*
X01395*
Y01811*
Y01811*
G37*
G36*
X0139D02*
X01389D01*
Y01811*
Y0181*
X0139*
Y01811*
Y01811*
G37*
G36*
X01392D02*
X01391D01*
Y01811*
Y0181*
X01392*
Y01811*
Y01811*
G37*
G36*
X01384Y01814D02*
X01383D01*
Y01813*
Y01813*
X01384*
Y01813*
Y01814*
G37*
G36*
X01387D02*
X01386D01*
Y01813*
Y01813*
X01387*
Y01813*
Y01814*
G37*
G36*
X01374D02*
X01373D01*
Y01813*
Y01813*
X01374*
Y01813*
Y01814*
G37*
G36*
X01366D02*
X01365D01*
Y01813*
Y01813*
X01366*
Y01813*
Y01814*
G37*
G36*
X01371D02*
X0137D01*
Y01813*
Y01813*
X01371*
Y01813*
Y01814*
G37*
G36*
X01395Y01816D02*
X01394D01*
Y01816*
Y01815*
X01395*
Y01816*
Y01816*
G37*
G36*
X014Y01819D02*
X01399D01*
Y01819*
Y01818*
X014*
Y01819*
Y01819*
G37*
G36*
X01403D02*
X01402D01*
Y01819*
Y01818*
X01403*
Y01819*
Y01819*
G37*
G36*
X01398D02*
X01397D01*
Y01819*
Y01818*
X01398*
Y01819*
Y01819*
G37*
G36*
X01392D02*
X01391D01*
Y01819*
Y01818*
X01392*
Y01819*
Y01819*
G37*
G36*
X01395D02*
X01394D01*
Y01819*
Y01818*
X01395*
Y01819*
Y01819*
G37*
G36*
X01358Y01822D02*
X01357D01*
Y01821*
Y01821*
X01358*
Y01821*
Y01822*
G37*
G36*
X01368D02*
X01368D01*
Y01821*
Y01821*
X01368*
Y01821*
Y01822*
G37*
G36*
X01355D02*
X01354D01*
Y01821*
Y01821*
X01355*
Y01821*
Y01822*
G37*
G36*
X01387Y01853D02*
X01386D01*
Y01853*
Y01852*
X01387*
Y01853*
Y01853*
G37*
G36*
X01353Y01822D02*
X01352D01*
Y01821*
Y01821*
X01353*
Y01821*
Y01822*
G37*
G36*
X01363Y01819D02*
X01362D01*
Y01819*
Y01818*
X01363*
Y01819*
Y01819*
G37*
G36*
X01366D02*
X01365D01*
Y01819*
Y01818*
X01366*
Y01819*
Y01819*
G37*
G36*
X01361D02*
X0136D01*
Y01819*
Y01818*
X01361*
Y01819*
Y01819*
G37*
G36*
X01355D02*
X01354D01*
Y01819*
Y01818*
X01355*
Y01819*
Y01819*
G37*
G36*
X01358D02*
X01357D01*
Y01819*
Y01818*
X01358*
Y01819*
Y01819*
G37*
G36*
X01382D02*
X01381D01*
Y01819*
Y01818*
X01382*
Y01819*
Y01819*
G37*
G36*
X0139Y01853D02*
X01389D01*
Y01853*
Y01852*
X0139*
Y01853*
Y01853*
G37*
G36*
X01379Y01819D02*
X01378D01*
Y01819*
Y01818*
X01379*
Y01819*
Y01819*
G37*
G36*
X01374D02*
X01373D01*
Y01819*
Y01818*
X01374*
Y01819*
Y01819*
G37*
G36*
X01376D02*
X01376D01*
Y01819*
Y01818*
X01376*
Y01819*
Y01819*
G37*
G36*
X01398Y018D02*
X01397D01*
Y018*
Y018*
X01398*
Y018*
Y018*
G37*
G36*
X014D02*
X01399D01*
Y018*
Y018*
X014*
Y018*
Y018*
G37*
G36*
X01387D02*
X01386D01*
Y018*
Y018*
X01387*
Y018*
Y018*
G37*
G36*
X01382D02*
X01381D01*
Y018*
Y018*
X01382*
Y018*
Y018*
G37*
G36*
X01384D02*
X01383D01*
Y018*
Y018*
X01384*
Y018*
Y018*
G37*
G36*
X01392Y01803D02*
X01391D01*
Y01803*
Y01802*
X01392*
Y01803*
Y01803*
G37*
G36*
X01363Y01806D02*
X01362D01*
Y01805*
Y01805*
X01363*
Y01805*
Y01806*
G37*
G36*
X01384Y01803D02*
X01383D01*
Y01803*
Y01802*
X01384*
Y01803*
Y01803*
G37*
G36*
X01363D02*
X01362D01*
Y01803*
Y01802*
X01363*
Y01803*
Y01803*
G37*
G36*
X01376D02*
X01376D01*
Y01803*
Y01802*
X01376*
Y01803*
Y01803*
G37*
G36*
X01353Y01856D02*
X01352D01*
Y01856*
Y01855*
X01353*
Y01856*
Y01856*
G37*
G36*
X01355Y018D02*
X01354D01*
Y018*
Y018*
X01355*
Y018*
Y018*
G37*
G36*
X014Y01798D02*
X01399D01*
Y01797*
Y01797*
X014*
Y01797*
Y01798*
G37*
G36*
X01384D02*
X01383D01*
Y01797*
Y01797*
X01384*
Y01797*
Y01798*
G37*
G36*
X01387D02*
X01386D01*
Y01797*
Y01797*
X01387*
Y01797*
Y01798*
G37*
G36*
X01371Y018D02*
X0137D01*
Y018*
Y018*
X01371*
Y018*
Y018*
G37*
G36*
X01374D02*
X01373D01*
Y018*
Y018*
X01374*
Y018*
Y018*
G37*
G36*
X01368D02*
X01368D01*
Y018*
Y018*
X01368*
Y018*
Y018*
G37*
G36*
X01358D02*
X01357D01*
Y018*
Y018*
X01358*
Y018*
Y018*
G37*
G36*
X01366D02*
X01365D01*
Y018*
Y018*
X01366*
Y018*
Y018*
G37*
G36*
Y01806D02*
X01365D01*
Y01805*
Y01805*
X01366*
Y01805*
Y01806*
G37*
G36*
X01384Y01808D02*
X01383D01*
Y01808*
Y01807*
X01384*
Y01808*
Y01808*
G37*
G36*
X01387D02*
X01386D01*
Y01808*
Y01807*
X01387*
Y01808*
Y01808*
G37*
G36*
X01382D02*
X01381D01*
Y01808*
Y01807*
X01382*
Y01808*
Y01808*
G37*
G36*
X01376D02*
X01376D01*
Y01808*
Y01807*
X01376*
Y01808*
Y01808*
G37*
G36*
X01379D02*
X01378D01*
Y01808*
Y01807*
X01379*
Y01808*
Y01808*
G37*
G36*
X01376Y01811D02*
X01376D01*
Y01811*
Y0181*
X01376*
Y01811*
Y01811*
G37*
G36*
X01379D02*
X01378D01*
Y01811*
Y0181*
X01379*
Y01811*
Y01811*
G37*
G36*
X01374D02*
X01373D01*
Y01811*
Y0181*
X01374*
Y01811*
Y01811*
G37*
G36*
X0139Y01808D02*
X01389D01*
Y01808*
Y01807*
X0139*
Y01808*
Y01808*
G37*
G36*
X01371Y01811D02*
X0137D01*
Y01811*
Y0181*
X01371*
Y01811*
Y01811*
G37*
G36*
X0139Y01806D02*
X01389D01*
Y01805*
Y01805*
X0139*
Y01805*
Y01806*
G37*
G36*
X01392D02*
X01391D01*
Y01805*
Y01805*
X01392*
Y01805*
Y01806*
G37*
G36*
X01379D02*
X01378D01*
Y01805*
Y01805*
X01379*
Y01805*
Y01806*
G37*
G36*
X01374D02*
X01373D01*
Y01805*
Y01805*
X01374*
Y01805*
Y01806*
G37*
G36*
X01376D02*
X01376D01*
Y01805*
Y01805*
X01376*
Y01805*
Y01806*
G37*
G36*
X01371Y01808D02*
X0137D01*
Y01808*
Y01807*
X01371*
Y01808*
Y01808*
G37*
G36*
X01374D02*
X01373D01*
Y01808*
Y01807*
X01374*
Y01808*
Y01808*
G37*
G36*
X01368D02*
X01368D01*
Y01808*
Y01807*
X01368*
Y01808*
Y01808*
G37*
G36*
X01363D02*
X01362D01*
Y01808*
Y01807*
X01363*
Y01808*
Y01808*
G37*
G36*
X01366D02*
X01365D01*
Y01808*
Y01807*
X01366*
Y01808*
Y01808*
G37*
%LNpcb-3*%
%LPD*%
G54D10*
X01696Y0131D03*
Y0136D03*
Y0141D03*
Y0146D03*
Y0151D03*
Y0156D03*
Y0161D03*
X01503Y0131D03*
Y0136D03*
Y0141D03*
Y0146D03*
Y0151D03*
Y0156D03*
Y0161D03*
G54D11*
X014Y0156D02*
X01503D01*
X0118Y0178D02*
X014Y0156D01*
X0118Y0178D02*
Y019D01*
X0132Y0204*
X01696Y0161D02*
X0174Y01653D01*
Y0184*
X0108Y0122D02*
X0117Y0131D01*
X01503*
X0142Y0112D02*
X01484Y01056D01*
X01636*
X01804Y01224*
Y01876*
X0174Y0194D02*
X01804Y01876D01*
X0108Y0132D02*
X0112Y0136D01*
X01503*
X0132Y0112D02*
X01448Y01248D01*
X0156*
X01587Y01275D02*
Y0141D01*
X0156Y01248D02*
X01587Y01275D01*
X01503Y0141D02*
X01587D01*
X0108Y0178D02*
Y0184D01*
Y0178D02*
X014Y0146D01*
X01503*
Y0161D02*
X01529D01*
Y01829*
X0174Y0204*
G54D12*
X0174Y0204D03*
X0108Y0184D03*
Y0112D03*
G54D13*
X0174Y0194D03*
Y0184D03*
X0142Y0204D03*
X0152D03*
X0108Y0194D03*
Y0204D03*
X0142Y0112D03*
X0152D03*
X0108Y0122D03*
Y0132D03*
Y0142D03*
Y0152D03*
Y0162D03*
G54D14*
X0132Y0204D03*
Y0112D03*
M02*